<?xml version="1.0" standalone="no"?>
<!DOCTYPE svg PUBLIC "-//W3C//DTD SVG 1.1//EN" "http://www.w3.org/Graphics/SVG/1.1/DTD/svg11.dtd" >
<!--
2013-9-30: Created.
-->
<svg>
<metadata>
Created by iconfont
</metadata>
<defs>

<font id="tuxiaban" horiz-adv-x="1024" >
  <font-face
    font-family="tuxiaban"
    font-weight="500"
    font-stretch="normal"
    units-per-em="1024"
    ascent="896"
    descent="-128"
  />
    <missing-glyph />
    
    <glyph glyph-name="guanbi" unicode="&#58880;" d="M166.86614223 867.23946619l828.37332396-828.37332396-138.04052631-138.04052629L28.82561594 729.13385777zM857.13385777 867.23946619l138.10560842-138.10560842L166.86614223-99.17438405999997l-138.10560842 138.04052629z"  horiz-adv-x="1024" />

    
    <glyph glyph-name="gouxuan" unicode="&#58881;" d="M-2.81477221 898.81477221v-1029.62954442h1029.62954442V898.81477221H-2.81477221z m429.01231018-858.02462037l-308.88886335 308.88886335 143.00410284 143.00410284 165.88476051-165.88475884 360.37034055 360.37034055 143.00410282-143.0041045-503.37444337-503.3744434z"  horiz-adv-x="1024" />

    
    <glyph glyph-name="sucai" unicode="&#58882;" d="M251.79780779 73.31081443000005H-8.40438557V904.40438557H822.68918557v-260.20219336h-100.97398557v155.34459336H96.45321443v-625.26198557h155.34459336zM1032.40438557-136.40438556999993H247.91419221L745.01688889 360.69831110999996l287.38749668-287.38749668v-209.7152z m-532.05523002 104.8576h427.19763002v62.1378378L745.01688889 213.12094777000004l-244.66773334-244.66773334zM484.81469667 395.65084445m-93.20675555 0a93.20675555 93.20675555 0 1 1 186.41351111 0 93.20675555 93.20675555 0 1 1-186.41351111 0Z"  horiz-adv-x="1024" />

    
    <glyph glyph-name="hygouxuan" unicode="&#58883;" d="M397.11404308-18.100847240000007l-393.26346553 397.68215704 176.74762492 176.74762492 216.51584061-216.51584063L843.40179753 786.10084724l176.74762492-181.16631512z"  horiz-adv-x="1024" />

    
    <glyph glyph-name="huiyuan" unicode="&#58884;" d="M788.48 783.36H245.76L13.653333 500.053333l501.76-515.413333 491.52 512-218.453333 286.72z m-273.066667-505.173333l-221.866666 232.106666 58.026666 75.093334 58.026667-44.373334-20.48-27.306666L512 384l122.88 129.706667-20.48 27.306666 58.026667 44.373334 54.613333-75.093334-211.626667-232.106666z"  horiz-adv-x="1024" />

    
    <glyph glyph-name="fenceng" unicode="&#58885;" d="M170.24189667 426.71976334h-34.95253333v-69.90506667h34.95253333c19.41807445 0 34.95253333 15.53445888 34.95253334 34.95253334s-15.53445888 34.95253333-34.95253334 34.95253333zM554.71976334 426.71976334h-23.30168889v-139.81013333h23.30168889c38.83614777 0 69.90506667 31.0689189 69.90506667 69.90506666s-31.0689189 69.90506667-69.90506667 69.90506667zM725.59881443 593.7152H-16.17161443v-473.80100779H776.08580779V539.34459221l-50.48699336 54.37060779zM170.24189667 310.21131890000004h-34.95253333v-58.25422223H88.68598557v221.36604445h81.5559111c46.60337778 0 81.55591111-34.95253333 81.55591112-81.55591111 0-46.60337778-38.83614777-81.55591111-81.55591112-81.55591111z m229.13327332-66.02145223c-11.65084445-3.88361443-23.30168889-3.88361443-34.95253333-3.88361444-11.65084445 0-23.30168889 0-34.95253333 3.88361444-27.18530333 7.76723001-46.60337778 34.95253333-46.60337778 62.13783666v11.65084444h46.60337778v-11.65084444c0-7.76723001 7.76723001-15.53445888 15.53446001-19.41807332 11.65084445-3.88361443 23.30168889-3.88361443 34.95253333 0 11.65084445 3.88361443 15.53445888 11.65084445 15.53445888 19.41807332s-7.76723001 15.53445888-15.53445888 19.41807445l-50.48699334 15.53445888c-27.18530333 7.76723001-46.60337778 34.95253333-46.60337778 62.13783779 0 27.18530333 19.41807445 50.48699221 46.60337778 62.13783666 19.41807445 7.76723001 38.83614777 7.76723001 58.25422222 0 27.18530333-11.65084445 46.60337778-34.95253333 46.60337778-62.13783666v-11.65084444h-46.60337778v11.65084444c0 7.76723001-7.76723001 15.53445888-15.53445888 19.41807332-7.76723001 3.88361443-19.41807445 3.88361443-27.18530333 0-7.76723001-3.88361443-15.53445888-11.65084445-15.53446001-19.41807332s7.76723001-15.53445888 15.53446001-19.41807445l50.48699221-15.53445888c27.18530333-7.76723001 46.60337778-34.95253333 46.60337778-62.13783779 3.88361443-27.18530333-15.53445888-50.48699221-42.71976334-62.13783666z m155.34459335-3.88361444h-69.90506667v233.01688889H554.71976334c62.13783666 0 116.50844445-50.48699221 116.50844445-116.50844445s-50.48699221-116.50844445-116.50844445-116.50844444zM814.92195555 904.40438557H205.19443001v-314.5728h104.8576V803.4304h462.1501622l163.11182222-166.99543666v-671.86536334H310.05203001v159.22820779H205.19443001v-260.20219336h834.97718442v815.55911112z"  horiz-adv-x="1024" />

    
    <glyph glyph-name="zhankai" unicode="&#58886;" d="M856.65786943 706.56441583L512 361.9065464 167.34213057 706.56441583l-163.49155302-163.49155301L512 34.92344035999997l508.14942245 508.14942246z"  horiz-adv-x="1024" />

    
    <glyph glyph-name="jubao" unicode="&#58887;" d="M454.00468502 379.85747793999997h124.27567408v-153.27333217h-124.27567408zM454.00468502 189.30144355000004h124.27567408v-74.56540445h-124.27567408zM1009.1026963-50.96485925000002H14.8973037l497.1026963 869.9297185 497.1026963-869.9297185z m-778.79422461 124.27567407h567.52557868l-281.69152831 497.10269629-285.83405037-497.10269629z"  horiz-adv-x="1024" />

    
    <glyph glyph-name="kefu" unicode="&#58888;" d="M682.87905223-16.012325550000014h-62.1378378v46.60337778H434.32770333v-155.34459335h186.4135111v46.60337778h62.1378378c120.39205888 0 213.59881443 97.09036999 213.59881444 213.59881557h-62.13783666c0-81.55591111-66.02145223-151.46097778-151.46097778-151.46097778zM849.87448889 597.59881443C826.5728 760.71063666 686.76266667 888.86992555 515.88361443 888.86992555S201.31081443 764.5942522299999 178.00912555 597.59881443H3.24645888V228.65540779000003h267.96942222v322.34002887c0 135.9265189 108.74121443 244.66773333 244.66773333 244.66773333s244.66773333-108.74121443 244.66773334-244.66773333V228.65540779000003H1024.63715555V597.59881443h-174.76266666zM92.5696 321.86216334000005v186.41351111h81.55591111v-186.41351111H92.5696z m838.8608 0h-77.67229667v186.41351111h77.67229667v-186.41351111z"  horiz-adv-x="1024" />

    
    <glyph glyph-name="shanchu" unicode="&#58889;" d="M756.40882608 557.9859437v-542.67044386H267.59117392V557.9859437h488.81765216m149.1308089 144.98828683h-787.07926996v-836.78953958h787.07926996V702.97423053zM19.03982577 702.97423053h981.77782518v-149.13080889H19.03982577zM317.30144355 901.81530905h393.53963497v-149.13080889h-393.53963497zM317.30144355 408.85513482h149.13080889v-244.40882609h-149.13080889zM561.71026963 408.85513482h149.13080889v-244.40882609h-149.13080889z"  horiz-adv-x="1024" />

    
    <glyph glyph-name="jingpin" unicode="&#58890;" d="M220.72888889 143.21588110000005h582.54222222v-42.7197622h-582.54222222zM814.92195555-62.615703329999974H209.07804445L80.91875555 484.97398557l248.55134778-100.97398557L512 706.34003001l182.52989667-322.34003001 248.55134778 100.97398557-128.1592889-547.5896889zM275.09949667 18.940207790000045h473.80100666l77.67229667 326.22364444-166.99543666-66.02145223L512 539.34459221l-147.57736334-260.20219221L197.4272 345.16385223l77.67229667-326.22364444zM512 787.89594112m-42.71976334 0a42.71976334 42.71976334 0 1 1 85.43952668 0 42.71976334 42.71976334 0 1 1-85.43952668 0ZM970.26654777 605.36604445c-23.30168889 0-42.71976334-19.41807445-42.7197622-42.71976335 0-23.30168889 19.41807445-42.71976334 42.7197622-42.7197622 23.30168889 0 42.71976334 19.41807445 42.71976334 42.7197622-3.88361443 23.30168889-19.41807445 42.71976334-42.71976334 42.71976335zM53.73345223 605.36604445c-23.30168889 0-42.71976334-19.41807445-42.71976334-42.71976335 0-23.30168889 19.41807445-42.71976334 42.71976334-42.7197622 23.30168889 0 42.71976334 19.41807445 42.7197622 42.7197622 0 23.30168889-19.41807445 42.71976334-42.7197622 42.71976335z"  horiz-adv-x="1024" />

    
    <glyph glyph-name="sousuo" unicode="&#58891;" d="M485.48785619 724.23917923c172.32893472 0 313.72703542-141.3981007 313.72703544-313.72703542s-141.3981007-313.72703542-313.72703544-313.72703544-313.72703542 141.3981007-313.72703542 313.72703544 141.3981007 313.72703542 313.72703542 313.72703542m0 172.32893472c-265.12143803 0-481.63727865-216.51584063-481.63727864-481.63727993s216.51584063-481.63727865 481.63727864-481.63727866 481.63727865 216.51584063 481.63727866 481.63727866S750.60929422 896.56811395 485.48785619 896.56811395zM827.58288549 186.48452867000003l193.75958344-193.71539696-121.86748726-121.86748852-193.71539694 193.71539824z"  horiz-adv-x="1024" />

    
    <glyph glyph-name="tishi1" unicode="&#58892;" d="M512 865.56823666C247.91419221 865.56823666 30.43176334 648.08580779 30.43176334 384S247.91419221-97.56823666000003 512-97.56823666000003 993.56823666 119.91419221000001 993.56823666 384 776.08580779 865.56823666 512 865.56823666z m0-858.27887332c-205.83158557 0-376.71063666 166.99543666-376.71063666 376.71063666S306.16841443 760.71063666 512 760.71063666s376.71063666-166.99543666 376.71063666-376.71063666-170.87905223-376.71063666-376.71063666-376.71063666zM469.28023666 240.30625223000004h77.67229667v-77.67229668h-77.67229667zM512 617.01688889c-46.60337778 0-85.43952555-11.65084445-116.50844445-38.83614777-31.0689189-27.18530333-46.60337778-58.25422222-46.60337777-97.09037113l81.55591111-11.65084444c3.88361443 27.18530333 15.53445888 46.60337778 31.0689189 58.25422222s34.95253333 19.41807445 54.37060664 19.41807445c23.30168889 0 42.71976334-7.76723001 54.37060779-19.41807445 15.53445888-11.65084445 19.41807445-27.18530333 19.41807445-42.7197622 0-11.65084445-3.88361443-23.30168889-11.65084444-34.95253334-3.88361443-7.76723001-19.41807445-19.41807445-46.60337778-42.71976334s-42.71976334-38.83614777-50.48699335-58.25422222c-7.76723001-15.53445888-11.65084445-19.41807445-11.65084444-46.60337778v-3.88361444H550.83614777s0 23.30168889 7.76723001 31.06891776c3.88361443 7.76723001 15.53445888 11.65084445 34.95253333 27.18530446 34.95253333 31.0689189 58.25422222 50.48699221 69.90506667 66.0214511 11.65084445 15.53445888 15.53445888 34.95253333 15.53445888 54.37060778 0 34.95253333-15.53445888 66.02145223-46.60337778 93.20675556C601.32314112 605.36604445 562.48699221 617.01688889 512 617.01688889z"  horiz-adv-x="1024" />

    
    <glyph glyph-name="tianjia" unicode="&#58893;" d="M1030.62821438 475.52262617h-427.10558821v427.10558821h-183.04525234v-427.10558821h-427.10558821v-183.04525234h427.10558821v-427.10558821h183.04525234v427.10558821h427.10558821z"  horiz-adv-x="1024" />

    
    <glyph glyph-name="xiazai" unicode="&#58894;" d="M1035.17297104-77.90046138000002H-11.17297104v447.76065135h155.53791031v-287.50947011h735.27012146v287.50947011h155.53791031zM431.87440938 845.90046138h155.53791031v-575.01894159h-155.53791031zM804.22274103 487.69193974l-94.26540065 94.26540064-202.67060993-202.67060993-197.95734039 202.67060993-98.9786702-94.26540064 296.93601059-296.93601059z"  horiz-adv-x="1024" />

    
    <glyph glyph-name="back" unicode="&#58895;" d="M511.24882215 835.72274393L1001.81185675 345.11552286000006 908.09142841 251.43928098000004 417.52839382 741.91394133zM511.02788849 834.1320153L604.79250331 740.41158694 114.22946871 249.84855234999998l-93.72042834 93.76461482zM423.6261869 207.25237507999998h132.56071901v-309.30834522h-132.56071901z"  horiz-adv-x="1024" />

    
    <glyph glyph-name="moban" unicode="&#58896;" d="M313.93564445 539.34459221h104.8576v-570.89137778H313.93564445zM18.7809189 904.40438557v-1040.80877114h986.4381622V904.40438557H18.7809189zM900.3614811-31.546785569999997H123.6385189V539.34459221h776.7229622v-570.89137778zM278.98311111 644.20219221H123.6385189v155.34459336h776.7229622v-155.34459336H278.98311111z"  horiz-adv-x="1024" />

    
    <glyph glyph-name="qq" unicode="&#58897;" d="M959.39242667 210.0140563c0 124.27567408-103.56306132 207.12612386-103.56306133 207.12612386 12.42756741 111.84810667-28.99765689 132.56071941-28.99765809 132.5607182-8.28504534 347.97188741-306.54666311 343.82936534-314.83170725 343.82936534-8.28504534 0-306.54666311 8.28504534-314.83170725-343.82936534 0 0-45.56774756-20.71261275-33.14018016-132.5607182 0 0-91.13549392-82.85044978-111.84810667-207.12612386 0 0-12.42756741-211.26864592 103.56306133-24.85513482 0 0 24.85513482-70.42288238 74.56540444-132.56071942 0 0-82.85044978-28.99765689-78.70792651-103.56306131 0 0-4.14252206-78.70792651 178.12846577-74.56540445 0 0 128.41819614-8.28504534 165.70089958 66.28035909h33.14017894c37.28270222-74.56540445 165.70089836-66.2803591 165.70089958-66.28035909 182.27098905-4.14252206 178.12846577 74.56540445 178.12846577 74.56540445 8.28504534 74.56540445-78.70792651 103.56306132-78.70792651 103.56306131 45.56774756 62.13783703 66.2803591 132.56071941 66.2803591 132.56071942 115.99062873-182.27098905 99.42053925 24.85513482 99.42053926 24.85513482z m12.42756741 0"  horiz-adv-x="1024" />

    
    <glyph glyph-name="shangyong" unicode="&#58898;" d="M1032.40438557 337.39662222000004H-8.40438557V679.15472555h1044.69238557v-341.75810333zM80.91875555 430.60337778h862.1624889V589.83158557H80.91875555v-159.22820779zM989.68462222-47.081244449999986H34.31537778V430.60337778h951.48563001v-477.68462223zM127.52213333 42.24189666999996H900.3614811v295.15472555H127.52213333v-295.15472555zM760.55134777 589.83158557H263.44865223V815.08124445h497.10269554v-225.24965888zM352.77179221 679.15472555h318.45641558V725.75810333h-318.45641558v-46.60337778zM275.09949667 473.32314112h69.90506667v-182.52989667H275.09949667zM682.87905223 473.32314112h69.90506667v-182.52989667h-69.90506667z"  horiz-adv-x="1024" />

    
    <glyph glyph-name="fuwu" unicode="&#58899;" d="M482.87288853-20.13866667000002L107.86133333 351.23199999999997c-50.9724448 50.9724448-80.0995552 120.14933333-80.0995552 192.96711147s29.12711147 141.99466667 80.0995552 192.9671104c105.58577813 105.58577813 280.3484448 105.58577813 389.57511147 0l43.69066667-43.69066667-58.25422294-58.25422187L439.18222187 678.912c-72.81777813 72.81777813-192.96711147 72.81777813-269.42577707 0-36.40888853-36.40888853-54.61333333-83.7404448-54.61333333-134.71288853s18.2044448-98.304 54.61333333-134.7128896l371.37066667-371.37066667-58.25422294-58.25422187zM512-52.90666667000005l-356.80711147 356.80711147 58.25422294 58.25422187 298.55288853-298.55288854 342.2435552 342.2435552c72.81777813 72.81777813 72.81777813 192.96711147 0 269.42577814-72.81777813 72.81777813-192.96711147 72.81777813-269.42577707 0l-134.7128896-134.7128896-58.25422186 58.25422293 134.71288853 134.71288853c105.58577813 105.58577813 280.3484448 105.58577813 389.57511147 0 105.58577813-105.58577813 105.58577813-280.3484448 0-389.57511146L512-52.90666667000005zM515.64088853 282.05511147000004c-69.17688853 0-127.43111147 58.25422187-127.4311104 127.4311104h43.69066667c0-47.3315552 36.40888853-83.7404448 83.74044373-83.74044374s83.7404448 36.40888853 83.7404448 83.74044374h43.69066667c0-69.17688853-58.25422187-127.43111147-127.43111147-127.4311104z"  horiz-adv-x="1024" />

    
    <glyph glyph-name="youjiantou" unicode="&#58900;" d="M700.76646387 510.3745517l125.00475803-125.00475804-499.93065787-499.8864714-124.96057155 124.96057155zM323.67540476 882.42830349l499.88647139-499.93065788-124.96057025-124.96057155-499.93065917 499.93065788z"  horiz-adv-x="1024" />

    
    <glyph glyph-name="shangchuan" unicode="&#58901;" d="M1029.81530905-96.53260682999996h-1035.6306181V342.57477571000004h157.41585423v-285.83405037h720.79890964V342.57477571000004h157.41585423zM433.29207349 781.68215703h153.27333096v-567.52557867h-153.27333096zM510.09444007 864.69830732l292.87633775-292.87633897-108.32696175-108.40981262-292.91776379 292.91776379zM512.24855135 867.43237215l108.3683878-108.3683878-292.87633898-292.87633896-108.40981262 108.32696296zM510.09444007 864.69830732l292.87633775-292.87633897-108.32696175-108.40981262-292.91776379 292.91776379zM512.24855135 867.43237215l108.3683878-108.3683878-292.87633898-292.87633896-108.40981262 108.32696296z"  horiz-adv-x="1024" />

    
    <glyph glyph-name="yuanchuang" unicode="&#58902;" d="M391.85066667-27.42044480000004h240.29866666V-125.72444480000001h-240.29866666zM948.90666667 456.81777813c0 240.29866667-196.608 433.26577813-436.90666667 433.26577707S75.09333333 697.1164448 75.09333333 456.81777813c0-160.19911147 87.38133333-302.19377813 218.45333334-375.01155626v-69.17688854h436.90666666v69.17688854c127.43111147 72.81777813 218.45333333 214.8124448 218.45333334 375.01155626z m-436.90666667-338.60266666c-185.68533333 0-338.60266667 152.91733333-338.60266667 338.60266666S326.31466667 795.4204448 512 795.4204448c185.68533333 0 338.60266667-152.91733333 338.60266667-338.60266667s-152.91733333-338.60266667-338.60266667-338.60266666zM624.8675552 551.48088853h-58.25422187c-3.64088853-7.28177813-10.92266667-14.5635552-21.84533333-25.48622186h-58.25422187l-18.2044448 25.48622186h-58.25422186l21.84533333-25.48622186h-69.1768896v-247.5804448h47.33155627v138.35377813c10.92266667-10.92266667 14.5635552-18.2044448 14.5635552-18.2044448l21.84533333 14.56355627V311.18222187000003h43.69066667v18.2044448h101.94488853V420.40888853l25.48622293-18.20444373 10.92266667 14.5635552v-65.536c0-21.84533333-10.92266667-29.12711147-32.768-29.12711147-14.5635552 0-25.48622187 0-40.04977813 3.6408896 3.64088853-10.92266667 7.28177813-25.48622187 10.92266666-43.69066666 36.40888853 0 61.89511147 3.64088853 72.81777814 3.64088853 10.92266667 3.64088853 21.84533333 10.92266667 25.48622186 18.2044448 7.28177813 10.92266667 10.92266667 21.84533333 10.92266667 40.04977707V529.6355552h-72.81777813c7.28177813 3.64088853 14.5635552 14.5635552 21.84533333 21.84533333z m-76.45866667-182.04444373h-58.25422186v29.1271104H548.40888853v-29.1271104z m80.09955627 120.14933333v-47.33155626c-21.84533333 14.5635552-47.3315552 29.12711147-72.81777813 43.69066666l-21.84533334-29.1271104 32.768-21.84533333H475.59111147c10.92266667 7.28177813 18.2044448 14.5635552 29.1271104 21.84533333l-25.48622187 29.1271104c-21.84533333-14.5635552-43.69066667-32.768-69.17688853-47.3315552v50.9724448h218.45333333zM541.12711147 631.5804448l-58.25422294-3.6408896 7.28177814-29.1271104h-141.99466667v-40.04977813h342.2435552V598.8124448h-145.6355552z"  horiz-adv-x="1024" />

    
    <glyph glyph-name="banquan" unicode="&#58903;" d="M512-108.96017423l-211.26864592 95.2780172c-136.70324148 62.13783703-227.83873539 198.84107852-227.8387354 347.9718874V756.82702222l24.85513481 12.42756741c260.97891555 144.98828683 571.66810075 144.98828683 832.64701629 0l20.71261154-12.42756741v-418.39476978c0-149.13080889-86.99297185-285.83405037-227.8387354-347.97188742L512-108.96017423zM159.88559053 702.97423053v-368.68450016c0-115.99062873 70.42288238-219.55369127 173.9859437-269.2639609l178.12846577-78.7079265 178.12846577 78.7079265c107.70558461 45.56774756 173.9859437 153.27333095 173.9859437 269.2639609V702.97423053c-223.69621333 111.84810667-480.53260683 111.84810667-704.22881894 0zM512 185.15892148c-132.56071941 0-240.26630281 107.70558461-240.26630281 240.26630281s107.70558461 240.26630281 240.26630281 240.26630402 240.26630281-107.70558461 240.26630281-240.26630402-107.70558461-240.26630281-240.26630281-240.26630281z m0 414.25224651c-95.27801719 0-173.9859437-78.70792651-173.9859437-173.9859437s78.70792651-173.9859437 173.9859437-173.9859437 173.9859437 78.70792651 173.9859437 173.9859437-78.70792651 173.9859437-173.9859437 173.9859437zM561.71026963 338.43225243999996h-45.56774757c-49.71026963 0-86.99297185 37.28270222-86.99297184 86.99297185 0 49.71026963 37.28270222 86.99297185 86.99297184 86.99297185h45.56774757V466.85044978h-45.56774757c-24.85513482 0-45.56774756-16.57008947-45.56774635-41.42522549s20.71261275-45.56774756 45.56774635-45.56774635h45.56774757v-41.4252255z"  horiz-adv-x="1024" />

    
    <glyph glyph-name="tishi" unicode="&#58904;" d="M512 886.7488005C235.48815995 886.7488005 9.2511995 660.51184005 9.2511995 384s226.23696045-502.7488005 502.7488005-502.7488005 502.7488005 226.23696045 502.7488005 502.7488005S788.51184005 886.7488005 512 886.7488005z m0-854.67296071c-196.07203239 0-351.92416021 155.85212782-351.92416021 351.92416021s155.85212782 351.92416021 351.92416021 351.92416021 351.92416021-155.85212782 351.92416021-351.92416021-155.85212782-351.92416021-351.92416021-351.92416021zM411.45023932 585.0995199h150.8246403v-251.37439952h-150.8246403zM411.45023932 283.45023932000004h150.8246403v-100.54975922h-150.8246403z"  horiz-adv-x="1024" />

    
    <glyph glyph-name="weixin" unicode="&#58905;" d="M682.87905223 539.34459221c11.65084445 0 23.30168889 0 31.06891776-3.88361443-31.0689189 135.9265189-174.76266667 240.7841189-345.64171776 240.78411889-186.41351111 0-341.75810333-128.15928889-341.75810446-291.2711111 0-93.20675555 50.48699221-170.87905223 135.9265189-229.13327446l-34.95253334-100.97398556 120.39205888 58.25422222c42.71976334-7.76723001 77.67229667-15.53445888 120.39206002-15.53445888h31.06891776c-7.76723001 23.30168889-11.65084445 46.60337778-11.65084444 69.90506666 3.88361443 151.46097778 132.04290333 271.85303666 295.15472668 271.85303666z m-182.52989668 93.20675556c27.18530333 0 42.71976334-15.53445888 42.71976335-42.7197622 0-27.18530333-15.53445888-42.71976334-42.71976335-42.71976335-27.18530333 0-50.48699221 15.53445888-50.48699221 42.71976335 0 23.30168889 23.30168889 42.71976334 50.48699221 42.7197622z m-240.78411889-85.43952555c-27.18530333 0-50.48699221 15.53445888-50.48699221 42.71976335 0 27.18530333 27.18530333 42.71976334 50.48699221 42.7197622 27.18530333 0 42.71976334-15.53445888 42.71976334-42.7197622 0-27.18530333-15.53445888-42.71976334-42.71976334-42.71976335z m734.0032-275.73665223c0 135.9265189-135.9265189 248.55134777-291.27111111 248.55134891-163.11182222 0-291.27111111-112.62483001-291.27111112-248.55134891 0-135.9265189 128.15928889-248.55134777 291.27111112-248.55134777 34.95253333 0 69.90506667 7.76723001 100.97398556 15.53445888l93.20675556-50.48699221-27.18530333 85.43952554c73.7886811 54.37060779 124.27567445 124.27567445 124.27567332 198.06435556z m-384.47786667 42.71976334c-15.53445888 0-34.95253333 15.53445888-34.95253333 34.95253334 0 15.53445888 15.53445888 34.95253333 34.95253333 34.95253333 27.18530333 0 42.71976334-15.53445888 42.71976334-34.95253333 0-15.53445888-15.53445888-34.95253333-42.71976334-34.95253334z m186.41351111 0c-15.53445888 0-34.95253333 15.53445888-34.95253333 34.95253334 0 15.53445888 15.53445888 34.95253333 34.95253333 34.95253333 27.18530333 0 42.71976334-15.53445888 42.71976335-34.95253333 0-15.53445888-15.53445888-34.95253333-42.71976335-34.95253334z m0 0"  horiz-adv-x="1024" />

    
    <glyph glyph-name="vip" unicode="&#58906;" d="M644.04290333 481.09036999h97.09037112V384h-97.09037112zM-16.17161443 648.08580779v-528.17161558h1056.34322886V648.08580779H-16.17161443z m462.1501622-283.50388224l-77.67229554-143.69374777H310.05203001l-97.09037113 143.69374777v186.41351111H278.98311111V384l50.48699222-89.32314112 50.48699334 89.32314112v166.99543666h66.0214511v-186.41351111z m97.09037113-143.69374777h-66.02145223v330.10725888h66.02145223v-330.10725888z m264.08580665 97.09036999h-163.11182222v-97.09036999h-66.0214511v330.10725888h229.13327332v-233.01688889z"  horiz-adv-x="1024" />

    
    <glyph glyph-name="zuojiantou" unicode="&#58907;" d="M323.23353613 257.6254483l-125.00475803 125.00475804 499.93065787 499.8864714 124.96057155-124.96057155zM700.32459524-114.42830348999996l-499.88647139 499.93065788 124.96057025 124.96057155 499.93065917-499.93065788z"  horiz-adv-x="1024" />

    


  </font>
</defs>
</svg>
