<?xml version="1.0" encoding="utf-8"?>
<!-- Generator: Adobe Illustrator 19.0.0, SVG Export Plug-In . SVG Version: 6.00 Build 0)  -->
<svg version="1.1" id="图层_1" xmlns="http://www.w3.org/2000/svg" xmlns:xlink="http://www.w3.org/1999/xlink" x="0px" y="0px"
	 viewBox="-5 6.5 17.9 17.9" style="enable-background:new -5 6.5 17.9 17.9;" xml:space="preserve">
<style type="text/css">
	.st0{fill:#141414;}
	.st1{fill:#159BFF;}
</style>
<path id="XMLID_3_" class="st0" d="M-1.6,6.5c-1.7,0-3,1.4-3,3.1v6.5c0,3.9,5.6,7.1,7.5,8c0.6,0.3,1.4,0.4,2.1,0
	c1.8-1,7.4-4.2,7.4-8V9.6c0-1.7-1.4-3.1-3.1-3.1H-1.6z"/>
<path id="XMLID_28_" class="st1" d="M8.4,18.4h-2c0,0,0-3.8,0-4L4.6,17H3.2l-1.8-2.6c0,0.2,0,4,0,4h-2v-8h2l2.5,4.4l2.7-4.4h1.8
	L8.4,18.4L8.4,18.4z"/>
</svg>
