<?xml version="1.0" encoding="utf-8"?>
<!-- Generator: Adobe Illustrator 19.0.0, SVG Export Plug-In . SVG Version: 6.00 Build 0)  -->
<svg version="1.1" id="图层_1" xmlns="http://www.w3.org/2000/svg" xmlns:xlink="http://www.w3.org/1999/xlink" x="0px" y="0px"
	 viewBox="-5 6.5 17.9 17.9" style="enable-background:new -5 6.5 17.9 17.9;" xml:space="preserve">
<style type="text/css">
	.st0{fill:#FF6C00;}
	.st1{fill:#FFFFFF;}
</style>
<g>
	<path id="XMLID_56_" class="st0" d="M-1.4,6.4c-1.7,0-3.1,1.4-3.1,3.1v6.5c0,3.9,5.6,7.1,7.5,8c0.6,0.3,1.4,0.4,2.1,0
		c1.8-1,7.4-4.2,7.4-8V9.6c0-1.7-1.4-3.1-3.1-3.1H-1.4z"/>
	<g id="XMLID_29_">
		<g id="XMLID_77_">
			<polygon id="XMLID_78_" class="st1" points="5.9,11.3 3.9,14.8 1.9,11.3 -0.6,11.3 -0.6,12 2.4,17.3 2.4,17.3 2.4,17.3 3.1,18.3 
				4.7,18.3 8.4,12 8.4,11.3 			"/>
		</g>
	</g>
</g>
</svg>
