<?xml version="1.0" standalone="no"?>
<!DOCTYPE svg PUBLIC "-//W3C//DTD SVG 1.1//EN" "http://www.w3.org/Graphics/SVG/1.1/DTD/svg11.dtd" >
<svg xmlns="http://www.w3.org/2000/svg">
<metadata>Generated by IcoMoon</metadata>
<defs>
<font id="qjapp" horiz-adv-x="1024">
<font-face units-per-em="1024" ascent="960" descent="-64" />
<missing-glyph horiz-adv-x="1024" />
<glyph unicode="&#x20;" horiz-adv-x="512" d="" />
<glyph unicode="&#xe900;" glyph-name="aleft" d="M707.491 29.091c11.636 0 23.273 4.655 32.582 13.964 18.618 18.618 18.618 46.545 0 65.164l-337.455 337.455 337.455 335.127c18.618 18.618 18.618 46.545 0 65.164s-46.545 18.618-65.164 0l-404.945-400.291 402.618-402.618c9.309-9.309 20.945-13.964 34.909-13.964z" />
<glyph unicode="&#xe901;" glyph-name="magnifier" d="M430.545 771.491c141.964 0 256-114.036 256-256s-114.036-256-256-256-256 114.036-256 256 116.364 256 256 256zM430.545 864.582c-193.164 0-349.091-155.927-349.091-349.091s155.927-349.091 349.091-349.091 349.091 155.927 349.091 349.091-155.927 349.091-349.091 349.091v0zM896 33.745c-11.636 0-23.273 4.655-32.582 13.964l-223.418 223.418c-18.618 18.618-18.618 46.545 0 65.164s46.545 18.618 65.164 0l223.418-223.418c18.618-18.618 18.618-46.545 0-65.164-9.309-11.636-20.945-13.964-32.582-13.964z" />
<glyph unicode="&#xe902;" glyph-name="cache" d="M523.636 233.891c-18.618 0-34.909 16.291-34.909 34.909v377.018c0 18.618 16.291 34.909 34.909 34.909s34.909-16.291 34.909-34.909v-377.018c0-18.618-16.291-34.909-34.909-34.909zM512 29.091c-230.4 0-418.909 188.509-418.909 418.909s188.509 418.909 418.909 418.909 418.909-188.509 418.909-418.909-188.509-418.909-418.909-418.909zM512 820.364c-204.8 0-372.364-167.564-372.364-372.364s167.564-372.364 372.364-372.364 372.364 167.564 372.364 372.364-167.564 372.364-372.364 372.364zM514.327 233.891c-9.309 0-18.618 2.327-25.6 9.309-13.964 13.964-13.964 34.909 0 48.873l155.927 155.927c13.964 13.964 34.909 13.964 48.873 0s13.964-34.909 0-48.873l-155.927-155.927c-6.982-4.655-13.964-9.309-23.273-9.309zM512 233.891c-9.309 0-18.618 2.327-25.6 9.309l-155.927 158.255c-13.964 13.964-13.964 34.909 0 48.873s34.909 13.964 48.873 0l155.927-155.927c13.964-13.964 13.964-34.909 0-48.873-4.655-6.982-13.964-11.636-23.273-11.636z" />
<glyph unicode="&#xe903;" glyph-name="del" d="M670.255 87.273h-335.127c-62.836 0-125.673 58.182-125.673 121.018v274.618h93.091v-274.618c0-18.618 13.964-51.2 32.582-51.2h335.127c18.618 0 27.927 32.582 27.927 51.2v274.618h93.091v-274.618c0-62.836-55.855-121.018-121.018-121.018zM698.182 645.818h-69.818v95.418h-237.382c-6.982 0-18.618-4.655-18.618-11.636v-83.782h-69.818v83.782c0 51.2 39.564 79.127 90.764 79.127h230.4c46.545 0 74.473-23.273 74.473-67.491v-95.418zM372.364 482.909h93.091v-232.727h-93.091v232.727zM186.182 645.818h651.636v-69.818h-651.636v69.818zM535.273 482.909h93.091v-232.727h-93.091v232.727z" />
<glyph unicode="&#xe904;" glyph-name="video" d="M512 887.855c-242.036 0-439.855-197.818-439.855-439.855s197.818-439.855 439.855-439.855 439.855 197.818 439.855 439.855-197.818 439.855-439.855 439.855zM658.618 429.382c0 0-2.327-2.327-2.327-2.327l-167.564-104.727c-2.327-2.327-4.655-4.655-6.982-4.655-9.309-6.982-16.291-9.309-25.6-6.982s-11.636 11.636-11.636 23.273v242.036c0 9.309 2.327 18.618 11.636 20.945 11.636 2.327 20.945 2.327 30.255-6.982 2.327-2.327 4.655-4.655 6.982-4.655l162.909-104.727c2.327-2.327 6.982-4.655 9.309-9.309 4.655-11.636 4.655-30.255-6.982-41.891z" />
<glyph unicode="&#xe905;" glyph-name="home" d="M984.436 415.418l-486.4 460.8-458.473-458.473h107.055c11.636 0 16.291-9.309 16.291-20.945v-323.491c0-34.909 39.564-44.218 74.473-44.218h121.018c34.909 0 62.836 9.309 62.836 44.218v158.255c0 16.291 13.964 30.255 30.255 30.255h118.691c13.964 0 13.964-9.309 13.964-23.273v-165.236c0-34.909 39.564-44.218 74.473-44.218h118.691c34.909 0 62.836 9.309 62.836 44.218v316.509c0 13.964 11.636 27.927 27.927 27.927l116.364-2.327z" />
<glyph unicode="&#xe906;" glyph-name="my" d="M740.073 650.473c0-122.105-98.986-221.091-221.091-221.091s-221.091 98.986-221.091 221.091c0 122.105 98.986 221.091 221.091 221.091s221.091-98.986 221.091-221.091zM774.982 471.273c-18.618 16.291-46.545 13.964-65.164-4.655-46.545-51.2-116.364-83.782-190.836-83.782-76.8 0-144.291 32.582-190.836 83.782-16.291 18.618-46.545 18.618-65.164 4.655-58.182-48.873-97.745-116.364-100.073-209.455v0-9.309c0 0 0 0 0 0v-58.182c0-90.764 69.818-165.236 158.255-165.236h395.636c86.109 0 158.255 74.473 158.255 165.236l2.327 58.182c-2.327 88.436-41.891 167.564-102.4 218.764z" />
<glyph unicode="&#xe907;" glyph-name="down" d="M674.909 354.909c0-25.6-20.945-46.545-46.545-46.545h-209.455c-25.6 0-46.545 20.945-46.545 46.545v465.455c0 25.6 20.945 46.545 46.545 46.545h209.455c25.6 0 46.545-20.945 46.545-46.545v-465.455zM432.873 203.636l-176.873 174.545c-18.618 18.618-30.255 44.218-32.582 69.818-2.327 44.218 34.909 83.782 79.127 83.782l409.6 4.655c46.545 0 86.109-39.564 83.782-86.109-2.327-25.6-11.636-48.873-30.255-67.491l-181.527-181.527c-39.564-39.564-109.382-39.564-151.273 2.327zM930.909 64c0-18.618-16.291-34.909-34.909-34.909h-768c-18.618 0-34.909 16.291-34.909 34.909v0c0 18.618 16.291 34.909 34.909 34.909h768c18.618 0 34.909-16.291 34.909-34.909v0z" />
<glyph unicode="&#xe908;" d="M751.787 127.147c-40.107 0-80.213 5.973-114.347 14.507l0.853 8.533-1.707-8.533c-5.973 1.707-11.947 3.413-17.92 5.12l-183.467 50.347c-43.52 11.093-69.973 55.467-58.88 98.987 5.12 21.333 18.773 39.253 37.547 50.347s40.96 14.507 61.44 9.387l72.533-17.92c1.707-0.853 3.413 0.853 3.413 0.853 0 0.853 0.853 1.707 0.853 3.413-15.36 15.36-168.107 174.933-154.453 321.707 6.827 69.12 37.547 93.013 56.32 100.693 22.187 9.387 47.787 6.827 66.56-7.68 17.067-12.8 24.747-32.427 22.187-52.053-2.56-18.773-5.12-36.693-3.413-53.76 3.413-46.933 22.187-77.653 34.987-93.013 5.12 15.36 15.36 29.013 29.013 37.547 21.333 12.8 47.787 11.947 69.12 0 4.267 12.8 12.8 23.040 23.893 29.867l6.827 4.267c23.893 14.507 54.613 8.533 71.68-12.8 4.267 5.973 9.387 10.24 15.36 13.653v0c23.893 13.653 56.32 5.12 70.827-19.627l41.813-69.973c0-0.853 6.827-12.8 40.96-79.36 23.893-45.227 35.84-94.72 34.133-142.507-1.707-64.853-23.893-114.347-67.413-146.773-42.667-33.28-100.693-45.227-158.72-45.227zM454.827 341.333c-11.947 0-23.040-3.413-33.28-9.387-14.507-8.533-25.6-23.040-29.867-39.253s-1.707-34.133 7.68-48.64 23.040-25.6 39.253-29.867l184.32-50.347c5.973-1.707 11.947-3.413 17.92-5.12h0.853c81.067-20.48 191.147-23.893 257.707 26.453 39.253 29.867 59.733 74.24 60.587 133.973 0.853 45.227-10.24 91.307-32.427 133.973-34.987 66.56-40.96 79.36-40.96 79.36l-41.813 69.973c-10.24 16.213-32.427 23.040-47.787 13.653v0c-6.827-4.267-12.8-11.093-15.36-18.773l-5.12-17.92-13.653 22.187c-11.093 17.92-34.133 23.893-52.907 12.8l-6.827-4.267c-11.093-6.827-17.92-17.92-18.773-30.72l-0.853-18.773-13.653 12.8c-16.213 15.36-40.96 17.92-59.733 6.827-14.507-8.533-23.893-23.893-23.893-40.96l-0.853-17.067-12.8 11.093c-1.707 1.707-46.080 38.4-52.053 116.053-1.707 18.773 0.853 37.547 3.413 57.173 1.707 13.653-3.413 27.307-15.36 35.84-13.653 10.24-32.427 12.8-49.493 5.12-25.6-11.093-41.813-41.813-46.080-87.040-12.8-141.653 149.333-306.347 151.040-308.053l1.707-1.707c4.267-6.827 3.413-16.213-0.853-23.040-5.12-6.827-13.653-9.387-21.333-7.68l-72.533 17.92c-5.973 2.56-11.093 3.413-16.213 3.413z" />
<glyph unicode="&#xe909;" d="M626.347 488.107c-1.707 0-3.413 0.853-5.12 1.707-50.347 39.253-61.44 57.173-63.147 59.733-2.56 4.267-0.853 9.387 3.413 11.947s9.387 0.853 11.947-3.413c0 0 11.093-17.92 58.88-54.613 3.413-2.56 4.267-8.533 1.707-11.947-2.56-1.707-5.12-3.413-7.68-3.413z" />
<glyph unicode="&#xe90a;" d="M708.267 518.827c-2.56 0-5.973 1.707-7.68 4.267l-35.84 59.733c-2.56 4.267-0.853 9.387 2.56 11.947 4.267 2.56 9.387 0.853 11.947-2.56l35.84-59.733c2.56-4.267 0.853-9.387-2.56-11.947-1.707-0.853-2.56-1.707-4.267-1.707z" />
<glyph unicode="&#xe90b;" d="M802.987 541.867c-2.56 0-5.973 1.707-7.68 4.267l-35.84 59.733c-2.56 4.267-0.853 9.387 2.56 11.947 4.267 2.56 9.387 0.853 11.947-2.56l35.84-59.733c2.56-4.267 0.853-9.387-2.56-11.947-0.853-0.853-2.56-1.707-4.267-1.707z" />
<glyph unicode="&#xe90c;" d="M201.387 529.067c-0.853 0-1.707 0-2.56 0-6.827 1.707-11.093 8.533-9.387 15.36l41.813 180.907c1.707 6.827 8.533 11.093 15.36 9.387s11.093-8.533 9.387-15.36l-41.813-180.907c-1.707-5.973-6.827-9.387-12.8-9.387z" />
<glyph unicode="&#xe90d;" d="M156.16 658.773c-4.267 0-8.533 2.56-11.093 5.973-3.413 5.973-1.707 13.653 4.267 17.92l88.747 55.467c5.973 3.413 13.653 1.707 17.92-4.267 3.413-5.973 1.707-13.653-4.267-17.92l-88.747-55.467c-2.56-0.853-5.12-1.707-6.827-1.707z" />
<glyph unicode="&#xe90e;" d="M299.52 625.493c-4.267 0-8.533 2.56-11.093 5.973l-55.467 88.747c-3.413 5.973-1.707 13.653 4.267 17.92 5.973 3.413 13.653 1.707 17.92-4.267l55.467-89.6c3.413-5.973 1.707-13.653-4.267-17.92-1.707-0.853-4.267-0.853-6.827-0.853z" />
<glyph unicode="&#xe90f;" d="M140.8 267.947c-0.853 0-1.707 0-2.56 0-6.827 1.707-11.093 8.533-9.387 15.36l39.253 168.107c1.707 6.827 8.533 11.093 15.36 9.387s11.093-8.533 9.387-15.36l-39.253-168.107c-1.707-5.12-6.827-9.387-12.8-9.387z" />
<glyph unicode="&#xe910;" d="M139.947 263.68c-4.267 0-8.533 2.56-11.093 5.973l-55.467 88.747c-3.413 5.973-1.707 13.653 4.267 17.92 5.973 3.413 13.653 1.707 17.92-4.267l55.467-88.747c3.413-5.973 1.707-13.653-4.267-17.92-2.56-0.853-5.12-1.707-6.827-1.707z" />
<glyph unicode="&#xe911;" d="M139.947 263.68c-4.267 0-8.533 2.56-11.093 5.973-3.413 5.973-1.707 13.653 4.267 17.92l88.747 55.467c5.973 3.413 13.653 1.707 17.92-4.267 3.413-5.973 1.707-13.653-4.267-17.92l-88.747-55.467c-2.56-0.853-5.12-1.707-6.827-1.707z" />
<glyph unicode="&#xe912;" d="M631.467 157.867c-31.573 31.573-31.573 83.627 0 115.2l52.907 52.053c1.707 1.707 0.853 1.707 0.853 2.56s-0.853 0-3.413 0h-292.693c-18.773 0-37.547 10.24-50.347 24.747s-18.773 35.84-16.213 54.613c4.267 33.28 34.133 57.173 68.267 57.173h112.64c-8.533 8.533-13.653 25.6-13.653 40.96 0 24.747 13.653 47.787 34.987 58.88-8.533 10.24-13.653 23.040-13.653 35.84v7.68c0 28.16 21.333 51.2 48.64 54.613-2.56 6.827-4.267 13.653-4.267 20.48 0 27.307 24.747 51.2 53.76 51.2h82.773c0 0 13.653-0.853 88.747-5.12 51.2-3.413 98.987-17.92 139.947-43.52 54.613-34.987 85.333-79.36 91.307-133.12 10.24-89.6-52.907-186.88-114.347-248.32 0 0-0.853-0.853-0.853-0.853-4.267-4.267-9.387-8.533-13.653-12.8l-136.533-131.413c-16.213-16.213-36.693-23.893-58.027-23.893-20.48 0-41.813 7.68-57.173 23.040zM885.76 315.733c58.88 58.88 118.613 151.893 110.080 235.52-5.12 48.64-33.28 89.6-83.627 121.173-37.547 23.893-83.627 39.253-131.413 41.813-74.24 4.267-88.747 6.827-88.747 6.827h-81.92c-19.627 0-38.4-17.067-38.4-34.987v-2.56c0-8.533 4.267-17.067 9.387-23.893l12.8-15.36h-26.453c-21.333 0-38.4-13.653-38.4-34.987v-7.68c0-12.8 6.827-24.747 17.067-31.573l15.36-10.24-17.92-5.12c-21.333-5.973-36.693-25.6-36.693-47.787 0-17.067 8.533-32.427 23.040-41.813l24.747-17.067h-163.84c-26.453 0-47.787-18.773-51.2-43.52-1.707-14.507 2.56-29.013 11.947-40.107s23.040-18.773 37.547-18.773h292.693c8.533 0 15.36-3.413 18.773-11.093s1.707-14.507-4.267-20.48l-52.907-52.907c-24.747-24.747-24.747-65.707 0-91.307 24.747-24.747 65.707-24.747 91.307 0l137.387 132.267c4.267 4.267 8.533 8.533 12.8 12.8l0.853 0.853z" />
<glyph unicode="&#xe913;" d="M500.053 448h73.387c5.12 0 8.533 3.413 8.533 8.533s-3.413 8.533-8.533 8.533h-73.387c-5.12 0-8.533-3.413-8.533-8.533s4.267-8.533 8.533-8.533z" />
<glyph unicode="&#xe914;" d="M534.187 550.4h69.973c5.12 0 8.533 3.413 8.533 8.533s-3.413 8.533-8.533 8.533h-69.973c-5.12 0-8.533-3.413-8.533-8.533s3.413-8.533 8.533-8.533z" />
<glyph unicode="&#xe915;" d="M563.2 644.267h69.973c5.12 0 8.533 3.413 8.533 8.533s-3.413 8.533-8.533 8.533h-69.973c-5.12 0-8.533-3.413-8.533-8.533s3.413-8.533 8.533-8.533z" />
<glyph unicode="&#xe916;" d="M98.133 463.36c6.827 0 12.8 5.973 12.8 12.8v185.173c0 6.827-5.973 12.8-12.8 12.8s-12.8-5.12-12.8-12.8v-186.027c0-5.973 5.973-11.947 12.8-11.947z" />
<glyph unicode="&#xe917;" d="M171.52 579.413c3.413 0 6.827 0.853 9.387 3.413 5.12 5.12 5.12 12.8 0 17.92l-74.24 74.24c-5.12 5.12-12.8 5.12-17.92 0s-5.12-12.8 0-17.92l74.24-74.24c2.56-2.56 5.12-3.413 8.533-3.413z" />
<glyph unicode="&#xe918;" d="M23.893 579.413c3.413 0 6.827 0.853 9.387 3.413l74.24 74.24c5.12 5.12 5.12 12.8 0 17.92s-12.8 5.12-17.92 0l-74.24-74.24c-5.12-5.12-5.12-12.8 0-17.92 1.707-2.56 5.12-3.413 8.533-3.413z" />
<glyph unicode="&#xe919;" d="M98.133 195.413c6.827 0 12.8 5.973 12.8 12.8v173.227c0 6.827-5.973 12.8-12.8 12.8s-12.8-5.973-12.8-12.8v-173.227c0-6.827 5.973-12.8 12.8-12.8z" />
<glyph unicode="&#xe91a;" d="M98.133 191.147c3.413 0 6.827 0.853 9.387 3.413l74.24 74.24c5.12 5.12 5.12 12.8 0 17.92s-12.8 5.12-17.92 0l-74.24-74.24c-5.12-5.12-5.12-12.8 0-17.92 1.707-1.707 5.12-3.413 8.533-3.413z" />
<glyph unicode="&#xe91b;" d="M98.133 191.147c3.413 0 6.827 0.853 9.387 3.413 5.12 5.12 5.12 12.8 0 17.92l-74.24 74.24c-5.12 5.12-12.8 5.12-17.92 0s-5.12-12.8 0-17.92l74.24-74.24c1.707-1.707 5.12-3.413 8.533-3.413z" />
<glyph unicode="&#xe91c;" d="M454.827 808.107c-65.707 0-118.613-52.907-118.613-118.613 0-46.080 26.453-86.187 64.853-105.813v29.867c-23.893 17.067-39.253 44.373-39.253 75.947 0 51.2 41.813 93.013 93.013 93.013s93.013-41.813 93.013-93.013c0-25.6-10.24-48.64-27.307-65.707v-33.28c31.573 21.333 52.907 57.173 52.907 98.133 0 65.707-53.76 119.467-118.613 119.467z" />
<glyph unicode="&#xe91d;" d="M454.827 884.907c-107.52 0-196.267-87.893-196.267-195.413 0-89.6 57.173-164.693 142.507-187.733v26.453c-68.267 22.187-116.907 86.187-116.907 161.28 0 93.867 76.8 169.813 169.813 169.813s168.96-75.947 168.96-169.813c0-69.12-42.667-128-102.4-155.307v-28.16c76.8 28.16 128 98.987 128 182.613 0 108.373-86.187 196.267-193.707 196.267z" />
<glyph unicode="&#xe91e;" d="M596.48-4.267c-84.48 0-172.373 58.027-229.547 116.053l-0.853 0.853c-4.267 4.267-8.533 9.387-12.8 13.653l-131.413 136.533c-31.573 31.573-31.573 83.627 0 115.2s83.627 31.573 115.2 0l52.907-52.907c1.707-1.707 1.707-0.853 1.707-0.853 0.853 0 0.853 0.853 0.853 3.413v292.693c0 18.773 10.24 37.547 24.747 50.347s34.133 18.773 53.76 16.213c33.28-4.267 58.88-34.133 58.88-68.267v-112.64c8.533 8.533 25.6 13.653 40.107 13.653 24.747 0 47.787-12.8 58.88-34.133 10.24 8.533 23.040 14.507 35.84 14.507h7.68c28.16 0 51.2-22.187 54.613-49.493 6.827 2.56 14.507 3.413 22.187 3.413v0c27.307 0 52.907-25.6 52.907-53.76v-81.92c0-0.853-2.56-14.507-7.68-89.6-3.413-51.2-18.773-98.987-44.373-139.947-34.987-54.613-80.213-85.333-133.973-91.307-5.973-1.707-12.8-1.707-19.627-1.707zM378.88 123.733v0c58.88-59.733 151.893-119.467 235.52-110.080 48.64 5.12 89.6 33.28 121.173 83.627 23.893 37.547 38.4 83.627 40.96 131.413 4.267 75.093 5.973 88.747 5.973 88.747v81.067c0 19.627-16.213 35.84-34.133 36.693v0c-8.533 0-17.92-2.56-23.893-8.533l-16.213-11.947v26.453c0 21.333-14.507 40.96-35.84 40.96h-7.68c-12.8 0-24.747-7.68-31.573-17.92l-11.093-16.213-5.12 17.92c-5.973 21.333-25.6 36.693-47.787 36.693-17.067 0-32.427-8.533-41.813-23.040l-15.36-25.6v163.84c0 26.453-18.773 47.787-42.667 51.2-14.507 1.707-29.867-2.56-40.96-11.947s-18.773-23.040-18.773-37.547v-292.693c0-8.533-3.413-15.36-11.093-18.773s-15.36-1.707-21.333 4.267l-52.907 53.76c-24.747 24.747-65.707 24.747-91.307 0s-24.747-65.707 0-91.307l132.267-137.387c4.267-4.267 8.533-9.387 13.653-13.653v0z" />
<glyph unicode="&#xe91f;" d="M520.533 427.52c-5.12 0-8.533 3.413-8.533 8.533v73.387c0 5.12 3.413 8.533 8.533 8.533s8.533-3.413 8.533-8.533v-73.387c0-4.267-3.413-8.533-8.533-8.533z" />
<glyph unicode="&#xe920;" d="M622.933 396.8c-5.12 0-8.533 3.413-8.533 8.533v69.973c0 5.12 3.413 8.533 8.533 8.533s8.533-3.413 8.533-8.533v-69.973c0-4.267-3.413-8.533-8.533-8.533z" />
<glyph unicode="&#xe921;" d="M716.8 367.787c-5.12 0-8.533 3.413-8.533 8.533v69.973c0 5.12 3.413 8.533 8.533 8.533s8.533-3.413 8.533-8.533v-69.973c0-4.267-3.413-8.533-8.533-8.533z" />
<glyph unicode="&#xe922;" d="M336.213 134.827c-20.48 0-41.813 7.68-58.027 23.893l-136.533 131.413c-4.267 4.267-8.533 8.533-13.653 12.8-0.853 0.853-0.853 0.853-0.853 0.853-62.293 61.44-124.587 159.573-115.2 248.32 5.973 53.76 36.693 98.987 91.307 133.12 40.107 25.6 88.747 40.96 139.947 43.52 75.093 4.267 88.747 5.12 88.747 5.12h82.773c29.013 0 52.907-23.040 53.76-51.2 0-6.827-1.707-13.653-4.267-20.48 27.307-3.413 47.787-26.453 47.787-54.613v-5.973c0-13.653-4.267-26.453-12.8-35.84 21.333-11.093 35.84-34.133 35.84-58.88 0-14.507-5.12-32.427-13.653-40.96h112.64c34.987 0 64-24.747 68.267-57.173 2.56-18.773-3.413-40.107-16.213-54.613s-30.72-24.747-50.347-24.747h-292.693c-1.707 0-2.56 0.853-3.413 0 0-0.853-0.853-1.707 0.853-2.56l52.907-52.053c31.573-31.573 31.573-83.627 0-115.2-15.36-17.067-36.693-24.747-57.173-24.747zM139.093 314.88v0c5.12-4.267 9.387-8.533 13.653-12.8l137.387-131.413c25.6-25.6 66.56-25.6 91.307 0 24.747 24.747 24.747 65.707 0 91.307l-52.907 52.907c-5.973 5.973-7.68 12.8-4.267 20.48s10.24 11.093 18.773 11.093h292.693c14.507 0 28.16 8.533 37.547 18.773 9.387 11.093 13.653 25.6 11.947 40.107-3.413 24.747-25.6 43.52-51.2 43.52h-163.84l24.747 16.213c14.507 9.387 23.040 24.747 23.040 41.813 0 22.187-15.36 41.813-36.693 47.787l-17.92 4.267 15.36 10.24c11.093 6.827 17.067 18.773 17.067 31.573v7.68c0 21.333-16.213 34.987-37.547 34.987h-26.453l12.8 15.36c5.12 5.973 8.533 15.36 8.533 23.893v2.56c0 17.92-17.92 34.987-37.547 34.987h-82.773c0 0-14.507-2.56-88.747-6.827-47.787-2.56-93.867-17.92-131.413-41.813-50.347-31.573-78.507-72.533-83.627-121.173-9.387-82.773 51.2-175.787 110.080-235.52v0z" />
<glyph unicode="&#xe923;" d="M524.8 448h-72.533c-5.12 0-8.533 3.413-8.533 8.533s3.413 8.533 8.533 8.533h73.387c5.12 0 8.533-3.413 8.533-8.533s-4.267-8.533-9.387-8.533z" />
<glyph unicode="&#xe924;" d="M491.52 550.4h-69.973c-5.12 0-8.533 3.413-8.533 8.533s3.413 8.533 8.533 8.533h69.973c5.12 0 8.533-3.413 8.533-8.533s-4.267-8.533-8.533-8.533z" />
<glyph unicode="&#xe925;" d="M461.653 644.267h-69.12c-5.12 0-8.533 3.413-8.533 8.533s3.413 8.533 8.533 8.533h69.973c5.12 0 8.533-3.413 8.533-8.533s-4.267-8.533-9.387-8.533z" />
<glyph unicode="&#xe926;" d="M925.867 463.36c-6.827 0-12.8 5.973-12.8 12.8v185.173c0 6.827 5.973 12.8 12.8 12.8s12.8-5.973 12.8-12.8v-186.027c0-5.973-5.973-11.947-12.8-11.947z" />
<glyph unicode="&#xe927;" d="M853.333 579.413c-3.413 0-6.827 0.853-9.387 3.413-5.12 5.12-5.12 12.8 0 17.92l74.24 74.24c5.12 5.12 12.8 5.12 17.92 0s5.12-12.8 0-17.92l-74.24-74.24c-1.707-2.56-5.12-3.413-8.533-3.413z" />
<glyph unicode="&#xe928;" d="M1000.96 579.413c-3.413 0-6.827 0.853-9.387 3.413l-74.24 74.24c-5.12 5.12-5.12 12.8 0 17.92s12.8 5.12 17.92 0l74.24-74.24c5.12-5.12 5.12-12.8 0-17.92-1.707-2.56-5.12-3.413-8.533-3.413z" />
<glyph unicode="&#xe929;" d="M925.867 195.413c-6.827 0-12.8 5.973-12.8 12.8v173.227c0 6.827 5.973 12.8 12.8 12.8s12.8-5.973 12.8-12.8v-173.227c0-6.827-5.973-12.8-12.8-12.8z" />
<glyph unicode="&#xe92a;" d="M926.72 191.147c-3.413 0-6.827 0.853-9.387 3.413l-73.387 74.24c-5.12 5.12-5.12 12.8 0 17.92s12.8 5.12 17.92 0l74.24-74.24c5.12-5.12 5.12-12.8 0-17.92-2.56-1.707-5.973-3.413-9.387-3.413z" />
<glyph unicode="&#xe92b;" d="M926.72 191.147c-3.413 0-6.827 0.853-9.387 3.413-5.12 5.12-5.12 12.8 0 17.92l74.24 74.24c5.12 5.12 12.8 5.12 17.92 0s5.12-12.8 0-17.92l-74.24-74.24c-1.707-1.707-5.12-3.413-8.533-3.413z" />
<glyph unicode="&#xe92c;" glyph-name="vip" d="M628.364 494.545h69.818v-46.545h-69.818v46.545zM930.909 543.418v58.182c0 76.8-58.182 146.618-134.982 146.618h-563.2c-76.8 0-162.909-69.818-162.909-146.618v-58.182c46.545-23.273 65.164-65.164 65.164-114.036s-18.618-93.091-65.164-114.036v-58.182c0-76.8 86.109-134.982 162.909-134.982h565.527c76.8 0 134.982 58.182 134.982 134.982v58.182c-46.545 23.273-62.836 65.164-62.836 114.036-2.327 48.873 13.964 90.764 60.509 114.036zM416.582 345.6c-2.327-9.309-11.636-13.964-20.945-13.964h-18.618c-9.309 0-16.291 2.327-20.945 9.309l-48.873 137.309c-2.327 6.982-11.636 16.291-18.618 16.291h-32.582v46.545h60.509c9.309 0 18.618-9.309 20.945-16.291l46.545-130.327c0-2.327 4.655 0 6.982 2.327l34.909 144.291h48.873l-58.182-195.491zM535.273 331.636h-46.545v209.455h46.545v-209.455zM744.727 401.455h-116.364v-69.818h-46.545v209.455h162.909v-139.636z" />
<glyph unicode="&#xe92d;" glyph-name="phone" d="M791.273 727.273c0 39.564-30.255 69.818-69.818 69.818h-418.909c-39.564 0-69.818-30.255-69.818-69.818v-535.273c0-39.564 30.255-69.818 69.818-69.818h418.909c39.564 0 69.818 30.255 69.818 69.818v535.273zM456.145 727.273h128c4.655 0 9.309-6.982 9.309-11.636s-4.655-11.636-9.309-11.636h-128c-4.655 0-9.309 6.982-9.309 11.636s2.327 11.636 9.309 11.636zM518.982 154.764c-20.945 0-37.236 16.291-37.236 37.236s16.291 37.236 37.236 37.236c20.945 0 37.236-16.291 37.236-37.236s-16.291-37.236-37.236-37.236zM721.455 308.364c0-25.6-20.945-46.545-46.545-46.545h-302.545c-25.6 0-46.545 20.945-46.545 46.545v302.545c0 25.6 20.945 46.545 46.545 46.545h302.545c25.6 0 46.545-20.945 46.545-46.545v-302.545z" />
<glyph unicode="&#xe92e;" glyph-name="history" d="M512 834.327c-214.109 0-386.327-172.218-386.327-386.327s172.218-386.327 386.327-386.327c214.109 0 386.327 172.218 386.327 386.327s-172.218 386.327-386.327 386.327zM616.727 282.764c-6.982-6.982-16.291-11.636-25.6-11.636s-18.618 4.655-25.6 11.636l-67.491 72.145c-23.273 23.273-32.582 55.855-32.582 90.764v144.291c0 20.945 13.964 37.236 34.909 37.236s34.909-16.291 34.909-37.236v-144.291c0-13.964 2.327-27.927 13.964-37.236l69.818-72.145c13.964-13.964 13.964-37.236-2.327-53.527z" />
<glyph unicode="&#xe92f;" glyph-name="member" d="M930.909 545.745v58.182c0 76.8-55.855 144.291-132.655 144.291h-565.527c-76.8 0-141.964-67.491-141.964-144.291v-58.182c46.545-23.273 65.164-65.164 65.164-114.036s-18.618-93.091-65.164-114.036v-58.182c0-76.8 65.164-137.309 141.964-137.309h565.527c76.8 0 132.655 60.509 132.655 137.309v58.182c-23.273 23.273-62.836 65.164-62.836 114.036s39.564 90.764 62.836 114.036zM672.582 450.327l-55.855-53.527c-4.655-4.655-9.309-13.964-6.982-20.945l13.964-76.8c2.327-16.291-13.964-25.6-27.927-18.618l-69.818 37.236c-6.982 4.655-16.291 4.655-23.273 0l-69.818-37.236c-13.964-6.982-30.255 4.655-27.927 18.618l13.964 76.8c2.327 6.982-2.327 16.291-6.982 20.945l-55.855 53.527c-11.636 11.636-4.655 30.255 9.309 32.582l76.8 11.636c6.982 0 13.964 6.982 18.618 13.964l34.909 69.818c6.982 13.964 25.6 13.964 32.582 0l34.909-69.818c4.655-6.982 9.309-11.636 18.618-13.964l76.8-11.636c18.618-2.327 25.6-20.945 13.964-32.582z" />
<glyph unicode="&#xe930;" glyph-name="offline" d="M761.018 548.073c-16.291 0-30.255-2.327-44.218-4.655 2.327 9.309 2.327 20.945 2.327 32.582 0 111.709-90.764 202.473-202.473 202.473-102.4 0-186.182-74.473-200.145-172.218-6.982 0-13.964 0-20.945 0-125.673 0-230.4-125.673-230.4-251.345 0-123.345 100.073-221.091 216.436-228.073h465.455c116.364 2.327 204.8 90.764 204.8 197.818-2.327 111.709-81.455 223.418-190.836 223.418zM621.382 345.6l-76.8-76.8c-18.618-18.618-46.545-18.618-65.164 0l-74.473 74.473c-9.309 9.309-11.636 18.618-13.964 30.255 0 18.618 11.636 34.909 30.255 34.909h20.945v121.018c0 11.636 16.291 9.309 27.927 9.309h86.109c11.636 0 2.327 2.327 2.327-9.309v-121.018h32.582c20.945 0 41.891-16.291 39.564-37.236-2.327-6.982-2.327-16.291-9.309-25.6z" />
<glyph unicode="&#xe931;" glyph-name="set" d="M870.4 494.545h-39.564c-20.945 0-39.564 18.618-46.545 37.236-4.655 11.636-9.309 27.927-16.291 39.564-9.309 18.618-6.982 44.218 9.309 58.182l27.927 27.927c9.309 9.309 9.309 23.273 0 32.582l-48.873 48.873c-9.309 9.309-23.273 9.309-32.582 0l-27.927-27.927c-16.291-16.291-37.236-18.618-58.182-9.309-11.636 6.982-27.927 11.636-39.564 16.291-20.945 6.982-37.236 25.6-37.236 46.545v39.564c0 11.636-2.327 13.964-16.291 13.964h-69.818c-11.636 0-30.255-2.327-30.255-13.964v-39.564c0-20.945-9.309-39.564-30.255-46.545-11.636-4.655-23.273-9.309-34.909-16.291-18.618-9.309-41.891-6.982-55.855 9.309l-27.927 27.927c-9.309 9.309-23.273 9.309-32.582 0l-48.873-48.873c-9.309-9.309-9.309-23.273 0-32.582l27.927-27.927c16.291-16.291 18.618-37.236 9.309-58.182-6.982-11.636-11.636-27.927-16.291-39.564-6.982-20.945-25.6-37.236-46.545-37.236h-39.564c-13.964 0-27.927-2.327-27.927-16.291v-69.818c0-11.636 16.291-30.255 27.927-30.255h39.564c20.945 0 39.564-9.309 46.545-30.255 4.655-11.636 9.309-23.273 16.291-34.909 9.309-18.618 6.982-41.891-9.309-55.855l-27.927-27.927c-9.309-9.309-9.309-23.273 0-32.582l48.873-48.873c9.309-9.309 23.273-9.309 32.582 0l27.927 27.927c16.291 16.291 37.236 18.618 58.182 9.309 11.636-6.982 20.945-11.636 32.582-16.291 20.945-6.982 30.255-25.6 30.255-46.545v-39.564c0-11.636 18.618-27.927 30.255-27.927h69.818c11.636 0 16.291 16.291 16.291 27.927v39.564c0 20.945 18.618 39.564 37.236 46.545 11.636 4.655 27.927 9.309 39.564 16.291 18.618 9.309 44.218 6.982 58.182-9.309l27.927-27.927c9.309-9.309 23.273-9.309 32.582 0l48.873 48.873c9.309 9.309 9.309 23.273 0 32.582l-27.927 27.927c-16.291 16.291-18.618 37.236-9.309 58.182 6.982 11.636 11.636 20.945 16.291 32.582 6.982 20.945 25.6 30.255 46.545 30.255h39.564c13.964 0 13.964 18.618 13.964 30.255v69.818c0 13.964-2.327 16.291-13.964 16.291zM507.345 336.291c-60.509 0-107.055 48.873-107.055 107.055s48.873 107.055 107.055 107.055 107.055-48.873 107.055-107.055-46.545-107.055-107.055-107.055z" />
<glyph unicode="&#xe932;" glyph-name="collect" d="M551.564 783.127l79.127-160.582c6.982-16.291 23.273-27.927 41.891-30.255l179.2-25.6c34.909-4.655 48.873-48.873 23.273-72.145l-128-125.673c-13.964-11.636-18.618-30.255-16.291-48.873l30.255-176.873c6.982-34.909-30.255-62.836-62.836-44.218l-158.255 83.782c-16.291 9.309-34.909 9.309-51.2 0l-158.255-83.782c-32.582-16.291-67.491 9.309-62.836 44.218l30.255 176.873c2.327 18.618-2.327 37.236-16.291 48.873l-128 125.673c-25.6 25.6-11.636 67.491 23.273 72.145l179.2 25.6c18.618 2.327 32.582 13.964 41.891 30.255l79.127 160.582c11.636 32.582 58.182 32.582 74.473 0z" />
<glyph unicode="&#xe933;" glyph-name="mymsg" d="M768 294.4v188.509c0 125.673-81.455 230.4-193.164 262.982-6.982 34.909-37.236 60.509-74.473 60.509s-65.164-25.6-74.473-60.509c-111.709-32.582-193.164-139.636-193.164-262.982v-188.509c-23.273-2.327-58.182-30.255-58.182-62.836 0-34.909 27.927-62.836 62.836-62.836h139.636c16.291-69.818 67.491-93.091 125.673-93.091s109.382 23.273 125.673 93.091h139.636c34.909 0 60.509 27.927 60.509 62.836 0 32.582-13.964 60.509-60.509 62.836z" />
<glyph unicode="&#xe934;" glyph-name="msg" d="M930.909 680.727c0 76.8-62.836 139.636-139.636 139.636h-581.818c-76.8 0-139.636-62.836-139.636-139.636v-465.455c0-76.8 62.836-139.636 139.636-139.636h581.818c76.8 0 139.636 62.836 139.636 139.636v465.455zM791.273 617.891l-251.345-204.8c-6.982-6.982-16.291-9.309-25.6-9.309s-18.618 2.327-25.6 9.309l-251.345 204.8c-13.964 13.964-13.964 34.909 0 48.873s34.909 13.964 48.873 0l225.745-179.2 225.745 179.2c13.964 13.964 34.909 13.964 48.873 0 16.291-11.636 16.291-34.909 4.655-48.873z" />
<glyph unicode="&#xe935;" glyph-name="feedback" d="M197.818 201.309l18.618 111.709c0 13.964 4.655 27.927 13.964 37.236 16.291 18.618 44.218 18.618 60.509 2.327l116.364-116.364c18.618-16.291 18.618-46.545 0-62.836-9.309-9.309-23.273-13.964-37.236-13.964l-114.036-16.291c-32.582 0-58.182 25.6-58.182 58.182zM723.782 552.727l-111.709 111.709c-18.618 18.618-18.618 48.873 0 65.164l23.273 23.273c18.618 18.618 48.873 18.618 65.164 0l111.709-111.709c18.618-18.618 18.618-48.873 0-65.164l-23.273-23.273c-18.618-18.618-46.545-18.618-65.164 0zM442.182 273.455l-111.709 111.709c-18.618 18.618-18.618 48.873 0 65.164l179.2 179.2c18.618 18.618 48.873 18.618 65.164 0l111.709-111.709c18.618-18.618 18.618-48.873 0-65.164l-179.2-179.2c-16.291-18.618-46.545-18.618-65.164 0z" />
<glyph unicode="&#xe936;" glyph-name="downvid" d="M414.255 175.709c48.873-48.873 132.655-48.873 181.527 0l214.109 214.109c23.273 23.273 34.909 51.2 37.236 79.127 4.655 55.855-48.873 102.4-104.727 100.073h-69.818v309.527c2.327 25.6-6.982 34.909-32.582 34.909h-256c-25.6 0-58.182-9.309-58.182-34.909v-311.855h-67.491c-53.527 0-95.418-46.545-90.764-100.073 2.327-30.255 16.291-60.509 39.564-83.782l207.127-207.127zM965.818 52.364h-907.636c-25.6 0-46.545-20.945-46.545-46.545s20.945-46.545 46.545-46.545h907.636c25.6 0 46.545 20.945 46.545 46.545s-20.945 46.545-46.545 46.545z" />
<glyph unicode="&#xe937;" glyph-name="oppose" d="M747.055 354.909h158.255c32.582 0 32.582 32.582 32.582 32.582l-32.582 460.8c0 32.582-32.582 41.891-32.582 41.891h-128c-27.927 0-23.273-37.236-23.273-37.236v-470.109c0-32.582 25.6-27.927 25.6-27.927zM146.618 354.909h211.782c11.636 0 20.945-11.636 18.618-23.273-76.8-325.818 65.164-311.855 65.164-311.855 67.491 0 53.527 53.527 53.527 60.509 0 134.982 114.036 225.745 158.255 256 11.636 6.982 20.945 20.945 20.945 34.909v428.218c0 46.545-34.909 67.491-93.091 67.491h-349.091c-27.927 0-60.509-88.436-60.509-88.436-86.109-309.527-86.109-370.036-86.109-370.036 0-60.509 60.509-53.527 60.509-53.527z" />
<glyph unicode="&#xe938;" glyph-name="share" d="M954.182 724.945c0 90.764-74.473 165.236-165.236 165.236h-577.164c-90.764 0-165.236-74.473-165.236-165.236v-553.891c0-90.764 74.473-165.236 165.236-165.236h577.164c90.764 0 165.236 74.473 165.236 165.236v553.891zM735.418 410.764c0-23.273-9.309-44.218-23.273-62.836-25.6-30.255-72.145-30.255-100.073-2.327l-48.873 46.545-195.491-195.491c-13.964-13.964-30.255-20.945-48.873-20.945-16.291 0-34.909 6.982-48.873 20.945-25.6 25.6-25.6 69.818 0 95.418l193.164 193.164-46.545 46.545c-27.927 27.927-30.255 76.8 2.327 102.4 16.291 13.964 37.236 20.945 60.509 20.945l190.836 30.255c51.2 0 93.091-41.891 93.091-93.091l-27.927-181.527z" />
<glyph unicode="&#xe939;" glyph-name="collectvid" d="M563.2 855.273l97.745-195.491c9.309-20.945 27.927-34.909 51.2-37.236l216.436-32.582c41.891-6.982 60.509-58.182 27.927-88.436l-155.927-153.6c-16.291-16.291-23.273-37.236-18.618-60.509l37.236-216.436c6.982-41.891-37.236-74.473-76.8-55.855l-193.164 102.4c-18.618 9.309-44.218 9.309-62.836 0l-193.164-102.4c-37.236-20.945-83.782 11.636-76.8 55.855l37.236 216.436c4.655 20.945-4.655 44.218-18.618 60.509l-155.927 153.6c-30.255 30.255-13.964 83.782 27.927 88.436l216.436 32.582c20.945 2.327 41.891 16.291 51.2 37.236l97.745 195.491c16.291 39.564 72.145 39.564 90.764 0z" />
<glyph unicode="&#xe93a;" glyph-name="praise" d="M276.945 541.091h-158.255c-32.582 0-32.582-34.909-32.582-34.909l32.582-446.836c0-32.582 32.582-30.255 32.582-30.255h128c27.927 0 23.273 13.964 23.273 13.964v470.109c0 30.255-25.6 27.927-25.6 27.927zM877.382 541.091h-211.782c-11.636 0-20.945 11.636-18.618 23.273 76.8 325.818-65.164 311.855-65.164 311.855-67.491 0-53.527-53.527-53.527-60.509 0-134.982-114.036-225.745-158.255-256-11.636-6.982-20.945-20.945-20.945-34.909v-428.218c0-46.545 34.909-67.491 93.091-67.491h349.091c27.927 0 60.509 88.436 60.509 88.436 88.436 309.527 88.436 370.036 88.436 370.036-2.327 60.509-62.836 53.527-62.836 53.527z" />
<glyph unicode="&#xe93b;" glyph-name="multiple" d="M207.127 448c0-64.266-52.098-116.364-116.364-116.364s-116.364 52.098-116.364 116.364c0 64.266 52.098 116.364 116.364 116.364s116.364-52.098 116.364-116.364zM633.018 448c0-64.266-52.098-116.364-116.364-116.364s-116.364 52.098-116.364 116.364c0 64.266 52.098 116.364 116.364 116.364s116.364-52.098 116.364-116.364zM1058.909 448c0-64.266-52.098-116.364-116.364-116.364s-116.364 52.098-116.364 116.364c0 64.266 52.098 116.364 116.364 116.364s116.364-52.098 116.364-116.364z" />
<glyph unicode="&#xe93c;" glyph-name="pause" d="M253.673 820.364v0c-51.2 0-93.091-41.891-93.091-93.091v-556.218c0-51.2 41.891-93.091 93.091-93.091v0c51.2 0 93.091 41.891 93.091 93.091v553.891c0 53.527-41.891 95.418-93.091 95.418zM770.327 820.364c-51.2 0-93.091-41.891-93.091-93.091v-556.218c0-51.2 41.891-93.091 93.091-93.091s93.091 41.891 93.091 93.091v553.891c-2.327 53.527-44.218 95.418-93.091 95.418z" />
<glyph unicode="&#xe93d;" glyph-name="gou" d="M712.145 582.982c-18.618 18.618-46.545 18.618-65.164 0l-174.545-174.545-97.745 97.745c-18.618 18.618-46.545 18.618-65.164 0s-18.618-46.545 0-65.164l128-128c9.309-9.309 20.945-13.964 32.582-13.964 0 0 0 0 2.327 0 0 0 0 0 2.327 0 11.636 0 23.273 4.655 32.582 13.964l204.8 204.8c20.945 18.618 20.945 46.545 0 65.164zM512 17.455c-237.382 0-430.545 193.164-430.545 430.545s193.164 430.545 430.545 430.545c237.382 0 430.545-193.164 430.545-430.545s-193.164-430.545-430.545-430.545zM512 808.727c-197.818 0-360.727-160.582-360.727-360.727s160.582-360.727 360.727-360.727c197.818 0 360.727 160.582 360.727 360.727s-162.909 360.727-360.727 360.727z" />
<glyph unicode="&#xe93e;" glyph-name="close" d="M512 866.909c-230.4 0-418.909-188.509-418.909-418.909s188.509-418.909 418.909-418.909c230.4 0 418.909 188.509 418.909 418.909s-188.509 418.909-418.909 418.909zM693.527 331.636c18.618-18.618 18.618-46.545 0-65.164-9.309-9.309-20.945-13.964-32.582-13.964s-23.273 4.655-32.582 13.964l-116.364 116.364-116.364-116.364c-9.309-9.309-20.945-13.964-32.582-13.964s-23.273 4.655-32.582 13.964c-18.618 18.618-18.618 46.545 0 65.164l116.364 116.364-116.364 116.364c-18.618 18.618-18.618 46.545 0 65.164s46.545 18.618 65.164 0l116.364-116.364 116.364 116.364c18.618 18.618 46.545 18.618 65.164 0s18.618-46.545 0-65.164l-116.364-116.364 116.364-116.364z" />
<glyph unicode="&#xe93f;" glyph-name="close2" d="M356.073 299.055c-13.964 13.964-13.964 34.909 0 48.873l265.309 265.309c13.964 13.964 34.909 13.964 48.873 0s13.964-34.909 0-48.873l-265.309-265.309c-13.964-13.964-37.236-13.964-48.873 0zM619.055 299.055l-262.982 265.309c-13.964 13.964-13.964 34.909 0 48.873s34.909 13.964 48.873 0l265.309-265.309c13.964-13.964 13.964-34.909 0-48.873s-37.236-13.964-51.2 0zM512 38.4c-230.4 0-418.909 188.509-418.909 418.909s188.509 418.909 418.909 418.909 418.909-188.509 418.909-418.909c0-232.727-188.509-418.909-418.909-418.909zM512 827.345c-204.8 0-372.364-167.564-372.364-372.364s167.564-372.364 372.364-372.364c204.8 0 372.364 167.564 372.364 372.364 0 207.127-167.564 372.364-372.364 372.364z" />
<glyph unicode="&#xe940;" glyph-name="follow" d="M709.818 471.273h-162.909v162.909c0 18.618-16.291 34.909-34.909 34.909s-34.909-16.291-34.909-34.909v-162.909h-162.909c-18.618 0-34.909-16.291-34.909-34.909s16.291-34.909 34.909-34.909h162.909v-139.636c0-18.618 16.291-34.909 34.909-34.909s34.909 16.291 34.909 34.909v139.636h162.909c18.618 0 34.909 16.291 34.909 34.909s-16.291 34.909-34.909 34.909z" />
<glyph unicode="&#xe941;" glyph-name="history2" d="M137.309 324.655l-74.473 104.727c-11.636 11.636-18.618 25.6-18.618 41.891-2.327 27.927 20.945 48.873 46.545 48.873l186.182 2.327c27.927 0 51.2-23.273 48.873-51.2-2.327-13.964-6.982-27.927-18.618-39.564l-79.127-107.055c-25.6-23.273-65.164-23.273-90.764 0zM560.873 29.091c-109.382 0-211.782 41.891-290.909 116.364-13.964 13.964-13.964 34.909 0 48.873s34.909 13.964 48.873 0c65.164-62.836 151.273-97.745 242.036-97.745 95.418 0 186.182 37.236 251.345 107.055 67.491 69.818 100.073 160.582 95.418 258.327-9.309 176.873-153.6 323.491-332.8 332.8-97.745 4.655-188.509-30.255-258.327-95.418-69.818-67.491-107.055-155.927-107.055-251.345 0-18.618-16.291-34.909-34.909-34.909s-34.909 16.291-34.909 34.909c0 116.364 46.545 223.418 130.327 302.545s193.164 121.018 309.527 116.364c214.109-9.309 388.655-183.855 397.964-397.964 4.655-116.364-34.909-225.745-116.364-309.527-76.8-83.782-183.855-130.327-300.218-130.327zM649.309 285.091c-9.309 0-18.618 2.327-23.273 9.309l-76.8 79.127c-25.6 25.6-34.909 55.855-34.909 83.782v153.6c0 18.618 16.291 34.909 34.909 34.909s34.909-16.291 34.909-34.909v-153.6c0-9.309 2.327-23.273 13.964-34.909l79.127-79.127c13.964-13.964 13.964-34.909 0-48.873-9.309-6.982-18.618-9.309-27.927-9.309z" />
<glyph unicode="&#xe942;" glyph-name="gou2" d="M854.109 685.382c-18.618 18.618-46.545 18.618-65.164 0l-377.018-377.018-176.873 176.873c-18.618 18.618-46.545 18.618-65.164 0s-18.618-46.545 0-65.164l209.455-209.455c9.309-9.309 20.945-13.964 32.582-13.964 0 0 0 0 2.327 0 0 0 0 0 2.327 0 11.636 0 23.273 4.655 32.582 13.964l407.273 407.273c16.291 18.618 16.291 48.873-2.327 67.491z" />
<glyph unicode="&#xe943;" glyph-name="eye" d="M509.673 727.273c-218.764 0-388.655-137.309-439.855-239.709-13.964-27.927-13.964-62.836 0-90.764 51.2-102.4 223.418-228.073 439.855-228.073 251.345 0 456.145 179.2 456.145 272.291s-204.8 286.255-456.145 286.255zM528.291 217.6c-123.345 0-223.418 102.4-223.418 228.073s100.073 228.073 223.418 228.073c123.345 0 223.418-102.4 223.418-228.073s-100.073-228.073-223.418-228.073zM528.291 592.291c-79.127 0-141.964-65.164-141.964-146.618s62.836-146.618 141.964-146.618c79.127 0 141.964 65.164 141.964 146.618s-62.836 146.618-141.964 146.618z" />
<glyph unicode="&#xe944;" glyph-name="circle" d="M512 17.455c-237.382 0-430.545 193.164-430.545 430.545s193.164 430.545 430.545 430.545c237.382 0 430.545-193.164 430.545-430.545s-193.164-430.545-430.545-430.545zM512 808.727c-197.818 0-360.727-162.909-360.727-360.727s160.582-360.727 360.727-360.727c197.818 0 360.727 160.582 360.727 360.727 0 197.818-160.582 360.727-360.727 360.727z" />
<glyph unicode="&#xe945;" glyph-name="fullscreen" d="M174.545 543.418c-18.618 0-34.909 16.291-34.909 34.909v137.309c0 58.182 48.873 81.455 104.727 81.455h139.636c18.618 0 34.909-16.291 34.909-34.909s-16.291-34.909-34.909-34.909h-139.636c-16.291 0-34.909 9.309-34.909-11.636v-137.309c0-18.618-16.291-34.909-34.909-34.909zM826.182 543.418c-18.618 0-34.909 16.291-34.909 34.909v132.655c0 18.618-6.982 16.291-25.6 16.291h-125.673c-18.618 0-34.909 16.291-34.909 34.909s16.291 34.909 34.909 34.909h125.673c60.509 0 95.418-30.255 95.418-86.109v-132.655c0-18.618-16.291-34.909-34.909-34.909zM765.673 75.636h-125.673c-18.618 0-34.909 16.291-34.909 34.909s16.291 34.909 34.909 34.909h125.673c18.618 0 25.6 32.582 25.6 53.527v123.345c0 18.618 16.291 34.909 34.909 34.909s34.909-16.291 34.909-34.909v-123.345c0-58.182-37.236-123.345-95.418-123.345zM407.273 75.636h-162.909c-60.509 0-104.727 72.145-104.727 128v118.691c0 18.618 16.291 34.909 34.909 34.909s34.909-16.291 34.909-34.909v-118.691c0-18.618 20.945-58.182 34.909-58.182h162.909c18.618 0 34.909-16.291 34.909-34.909s-16.291-34.909-34.909-34.909z" />
<glyph unicode="&#xe946;" glyph-name="uppic" d="M756.364 634.182h-111.709c0 46.545-27.927 69.818-53.527 69.818h-151.273c-46.545 0-51.2-23.273-51.2-69.818h-125.673c-34.909 0-74.473-6.982-74.473-41.891v-344.436c0-34.909 39.564-79.127 74.473-79.127h505.018c32.582 0 60.509 34.909 60.509 67.491l-2.327 337.455c-2.327 37.236-32.582 60.509-69.818 60.509v0zM518.982 252.509c-88.436 0-160.582 72.145-160.582 160.582s72.145 160.582 160.582 160.582c88.436 0 160.582-72.145 160.582-160.582-2.327-88.436-72.145-160.582-160.582-160.582zM744.727 517.818h-69.818v46.545h69.818v-46.545z" />
<glyph unicode="&#xe947;" glyph-name="aup" d="M95.418 252.509c0-11.636 4.655-23.273 13.964-32.582 18.618-18.618 46.545-18.618 65.164 0l337.455 337.455 337.455-337.455c18.618-18.618 46.545-18.618 65.164 0s18.618 46.545 0 65.164l-402.618 404.945-402.618-402.618c-9.309-9.309-13.964-20.945-13.964-34.909z" />
<glyph unicode="&#xe948;" glyph-name="adown" d="M95.418 643.491c0 11.636 4.655 23.273 13.964 32.582 18.618 18.618 46.545 18.618 65.164 0l337.455-337.455 337.455 337.455c18.618 18.618 46.545 18.618 65.164 0s18.618-46.545 0-65.164l-402.618-404.945-402.618 402.618c-9.309 9.309-13.964 20.945-13.964 34.909z" />
<glyph unicode="&#xe949;" glyph-name="follow2" d="M714.473 582.982c-18.618 18.618-46.545 18.618-65.164 0l-174.545-174.545-97.745 97.745c-18.618 18.618-46.545 18.618-65.164 0s-18.618-46.545 0-65.164l128-128c9.309-9.309 20.945-13.964 32.582-13.964 0 0 0 0 2.327 0 0 0 0 0 2.327 0 11.636 0 23.273 4.655 32.582 13.964l204.8 204.8c16.291 18.618 16.291 48.873 0 65.164z" />
<glyph unicode="&#xe94a;" glyph-name="aright" d="M363.055 124.509c-11.636 0-23.273 4.655-32.582 13.964-18.618 18.618-18.618 46.545 0 65.164l244.364 244.364-244.364 244.364c-18.618 18.618-18.618 46.545 0 65.164s46.545 18.618 65.164 0l309.527-309.527-309.527-309.527c-6.982-9.309-18.618-13.964-32.582-13.964z" />
<glyph unicode="&#xe94b;" glyph-name="play" d="M162.909 105.891v698.182c0 20.945 13.964 41.891 34.909 48.873 27.927 9.309 60.509 4.655 83.782-13.964 4.655-4.655 11.636-9.309 16.291-11.636l539.927-309.527c30.255-30.255 34.909-76.8 11.636-111.709-4.655-6.982-11.636-13.964-20.945-18.618l-530.618-304.873c-6.982-2.327-11.636-6.982-16.291-11.636-23.273-18.618-55.855-23.273-83.782-13.964-20.945 6.982-34.909 27.927-34.909 48.873z" />
<glyph unicode="&#xe94c;" glyph-name="qq" d="M861.091 380.509c-16.291 41.891-74.473 137.309-76.8 183.855v0c0 0 0 2.327 0 4.655 0 169.891-121.018 307.2-272.291 307.2s-272.291-134.982-272.291-304.873c0-2.327 0-4.655 0-4.655v0c0-46.545-60.509-144.291-76.8-183.855-16.291-41.891-18.618-83.782-11.636-116.364s13.964-53.527 20.945-60.509c6.982-6.982 13.964-13.964 34.909 0 16.291 13.964 34.909 41.891 34.909 41.891s13.964-44.218 48.873-76.8c-25.6-11.636-62.836-39.564-67.491-58.182-2.327-18.618 39.564-86.109 137.309-86.109 100.073-2.327 132.655 41.891 134.982 44.218 9.309 9.309 16.291 16.291 16.291 16.291s6.982-6.982 16.291-16.291c2.327-2.327 37.236-46.545 134.982-44.218 100.073 2.327 141.964 69.818 137.309 86.109-2.327 18.618-39.564 44.218-67.491 58.182 32.582 32.582 48.873 76.8 48.873 76.8s18.618-27.927 34.909-41.891c20.945-13.964 27.927-6.982 34.909 0s11.636 27.927 20.945 60.509c6.982 30.255 2.327 72.145-11.636 114.036v0z" />
<glyph unicode="&#xe94d;" glyph-name="qzone" d="M793.6 245.527c-114.036-16.291-328.145-39.564-542.255-4.655l346.764 258.327c0 0-251.345 37.236-407.273 32.582 0 0 269.964 69.818 593.455 6.982l-330.473-246.691c0 0 197.818-23.273 339.782-32.582l-4.655 30.255c-2.327 11.636 2.327 23.273 9.309 32.582l209.455 204.8c20.945 20.945 9.309 58.182-20.945 62.836l-283.927 41.891c-11.636 2.327-20.945 9.309-27.927 18.618l-132.655 260.655c-13.964 27.927-53.527 27.927-65.164 0l-128-262.982c-4.655-11.636-16.291-18.618-27.927-20.945l-283.927-41.891c-30.255-4.655-41.891-41.891-20.945-62.836l209.455-204.8c9.309-9.309 11.636-20.945 9.309-32.582l-51.2-281.6c-4.655-30.255 25.6-53.527 53.527-39.564l251.345 132.655c11.636 4.655 23.273 4.655 34.909 0l256-132.655c27.927-13.964 60.509 9.309 53.527 39.564l-39.564 242.036zM870.4 257.164c-23.273 0-53.527 0-81.455 4.655l4.655-16.291c48.873 4.655 76.8 11.636 76.8 11.636v0z" />
<glyph unicode="&#xe94e;" glyph-name="weibo" d="M921.6 764.509c-90.764 88.436-232.727 74.473-232.727 74.473-16.291 0-37.236-13.964-37.236-30.255v-13.964c0-16.291 20.945-30.255 37.236-27.927 0 0 132.655 13.964 186.182-65.164s32.582-176.873 32.582-176.873c-2.327-16.291 11.636-27.927 27.927-27.927h11.636c16.291 0 32.582 11.636 32.582 27.927 2.327 0 32.582 153.6-58.182 239.709zM707.491 704c-11.636-2.327-30.255-13.964-30.255-25.6v-6.982c0-11.636 18.618-18.618 30.255-18.618 0 0 60.509 6.982 86.109-25.6s9.309-74.473 9.309-74.473c-6.982-9.309 2.327-9.309 13.964-9.309h18.618c11.636 0 20.945 0 23.273 11.636 0 0 20.945 79.127-27.927 123.345s-123.345 25.6-123.345 25.6zM393.309 445.673c-88.436-16.291-148.945-93.091-134.982-167.564s100.073-123.345 188.509-104.727c88.436 16.291 148.945 93.091 134.982 167.564-16.291 74.473-100.073 121.018-188.509 104.727zM384 247.855c-27.927-13.964-58.182-6.982-67.491 13.964s4.655 48.873 32.582 60.509c27.927 13.964 58.182 6.982 67.491-13.964s-4.655-48.873-32.582-60.509zM446.836 310.691c-16.291 0-27.927 11.636-27.927 27.927s11.636 27.927 27.927 27.927 27.927-11.636 27.927-27.927-11.636-27.927-27.927-27.927zM723.782 475.927c0 9.309 79.127 83.782 0 130.327s-225.745-25.6-221.091-16.291c62.836 109.382-27.927 144.291-72.145 144.291-109.382 0-393.309-242.036-393.309-397.964 0-153.6 190.836-279.273 425.891-279.273s423.564 125.673 423.564 279.273c-2.327 132.655-162.909 132.655-162.909 139.636zM472.436 145.455c-148.945-20.945-283.927 41.891-297.891 141.964s95.418 195.491 246.691 216.436c148.945 20.945 283.927-41.891 297.891-141.964 13.964-97.745-95.418-195.491-246.691-216.436z" />
<glyph unicode="&#xe94f;" glyph-name="member2" d="M814.545 771.491c-30.255 30.255-72.145 46.545-114.036 46.545h-379.345c-41.891 0-83.782-16.291-114.036-46.545l-88.436-111.709c-55.855-55.855-55.855-146.618 0-200.145l328.145-351.418c34.909-34.909 93.091-34.909 128 0l328.145 351.418c55.855 55.855 55.855 146.618 0 200.145l-88.436 111.709zM709.818 552.727l-174.545-174.545c-6.982-6.982-16.291-9.309-25.6-9.309s-18.618 2.327-25.6 9.309l-174.545 174.545c-13.964 13.964-13.964 34.909-2.327 48.873 13.964 13.964 34.909 13.964 48.873 0l134.982-134.982c9.309-9.309 23.273-9.309 30.255 0l134.982 134.982c13.964 13.964 34.909 13.964 48.873 0 18.618-13.964 20.945-34.909 4.655-48.873z" />
<glyph unicode="&#xe950;" d="M725.555 181.912c-0.761 0-0.761 0-1.523 0-12.943 0-27.408 3.807-35.022 10.659v-3.807l-13.704 14.465c-26.647 29.692-26.647 75.372 0 102.781l47.203 46.442c0.761 0.761 0.761 0.761 0.761 1.523s-0.761 0.761-3.045 0.761h-261.139c-16.749 0-32.738 8.375-44.158 21.317-11.42 13.704-16.749 30.454-14.465 47.964 3.807 29.692 30.454 52.532 60.907 52.532h99.735c-7.613 7.613-12.181 23.601-12.181 36.544 0 22.079 12.181 42.635 31.215 52.532-8.375 9.136-12.943 21.317-12.943 32.738v6.852c0 24.363 22.079 44.919 47.203 47.964-2.284 4.568-1.523 10.659-1.523 16.749v-0.761c0 24.363 17.511 42.635 43.396 42.635h73.088c0 0 12.943 1.523 79.941-2.284 47.964-3.045 90.599-15.227 124.859-36.544 48.726-31.215 76.134-70.804 81.463-118.769 9.136-79.941-47.203-166.733-102.019-221.549l-0.761-0.761c-4.568-4.568-8.375-8.375-12.943-12.181l-122.575-117.246c-12.943-12.943-31.976-20.556-51.771-20.556zM684.443 215.411l1.523-2.284c9.136-9.897 22.84-15.988 38.067-16.749 15.988-0.761 31.976 5.329 43.396 16.749l122.575 118.007c3.807 3.807 7.613 7.613 12.181 11.42 0 0 0 0 0.761 0.761 52.532 52.532 105.826 135.518 98.213 209.368-4.568 43.396-29.692 79.941-74.611 108.11-31.976 20.556-71.566 31.976-117.246 35.022-64.714 3.807-77.657 3.045-78.418 3.045h-73.85c-17.511 0-31.976-13.704-32.738-28.931 0-6.852 2.284-12.943 7.613-20.556l9.136-12.943h-22.84c-17.511 0-36.544-11.42-36.544-31.215v-6.852c0-12.943 8.375-22.84 15.988-28.17l13.704-9.136-15.988-4.568c-19.033-5.329-31.976-22.079-31.976-42.635 0-15.227 8.375-31.215 20.556-37.306l27.408-15.227h-150.745c-22.84 0-42.635-16.749-45.68-38.828-1.523-12.943 2.284-26.647 11.42-37.306 8.375-9.897 20.556-15.988 32.738-15.988h261.139c7.613 0 14.465-3.045 16.749-9.897 3.045-6.852 1.523-13.704-3.807-19.033l-47.203-46.442c-20.556-19.795-21.317-54.055-1.523-78.418z" />
<glyph unicode="&#xe951;" d="M619.729 461.323h-60.907c-4.568 0-7.613 3.045-7.613 7.613s3.045 7.613 7.613 7.613h60.907c4.568 0 7.613-3.045 7.613-7.613s-3.045-7.613-7.613-7.613z" />
<glyph unicode="&#xe952;" d="M650.183 552.684h-60.907c-4.568 0-7.613 3.045-7.613 7.613s3.045 7.613 7.613 7.613h60.907c4.568 0 7.613-3.045 7.613-7.613s-3.045-7.613-7.613-7.613z" />
<glyph unicode="&#xe953;" glyph-name="wx" d="M721.455 573.673c-169.891 0-304.873-116.364-304.873-258.327s132.655-258.327 304.873-258.327c32.582 0 67.491 6.982 100.073 16.291 4.655 0 9.309 0 11.636-2.327l55.855-30.255c13.964-6.982 30.255 4.655 25.6 20.945l-11.636 37.236c-2.327 6.982 0 13.964 6.982 18.618 67.491 53.527 116.364 121.018 116.364 197.818-2.327 141.964-144.291 258.327-304.873 258.327zM621.382 359.564c-18.618 0-34.909 18.618-34.909 34.909 0 18.618 18.618 34.909 34.909 34.909 27.927 0 44.218-18.618 44.218-34.909 2.327-18.618-16.291-34.909-44.218-34.909zM819.2 359.564c-18.618 0-34.909 18.618-34.909 34.909 0 18.618 18.618 34.909 34.909 34.909 27.927 0 44.218-18.618 44.218-34.909 0-18.618-18.618-34.909-44.218-34.909zM691.2 603.927c11.636 0 23.273 0 34.909-2.327-32.582 146.618-186.182 256-365.382 256-200.145 0-360.727-134.982-360.727-307.2v-6.982c0-90.764 46.545-167.564 125.673-228.073 11.636-6.982 13.964-20.945 9.309-34.909l-25.6-76.8c-2.327-4.655 2.327-9.309 6.982-6.982l102.4 51.2c6.982 4.655 16.291 4.655 25.6 2.327 39.564-6.982 74.473-16.291 114.036-16.291 11.636 0 23.273 0 34.909 2.327-6.982 23.273-11.636 51.2-11.636 76.8 0 162.909 137.309 290.909 309.527 290.909zM239.709 613.236c-27.927 0-55.855 18.618-55.855 46.545s27.927 46.545 55.855 46.545c27.927 0 46.545-18.618 46.545-46.545s-18.618-46.545-46.545-46.545zM439.855 657.455c0 27.927 27.927 46.545 55.855 46.545s46.545-18.618 46.545-46.545c0-27.927-18.618-46.545-46.545-46.545-27.927 2.327-55.855 18.618-55.855 46.545z" />
<glyph unicode="&#xe954;" d="M673.023 636.431h-60.907c-4.568 0-7.613 3.045-7.613 7.613s3.045 7.613 7.613 7.613h60.907c4.568 0 7.613-3.045 7.613-7.613s-3.045-7.613-7.613-7.613z" />
<glyph unicode="&#xe955;" d="M342.602 419.45c0-6.091-5.329-11.42-11.42-11.42h-114.201c-6.091 0-11.42 5.329-11.42 11.42s5.329 11.42 11.42 11.42h114.201c6.091 0 11.42-5.329 11.42-11.42z" />
<glyph unicode="&#xe956;" d="M348.693 419.45c0-3.045-0.761-6.091-3.045-8.375-4.568-4.568-11.42-4.568-15.988 0l-66.236 66.236c-4.568 4.568-4.568 11.42 0 15.988s11.42 4.568 15.988 0l66.236-66.236c1.523-1.523 3.045-4.568 3.045-7.613z" />
<glyph unicode="&#xe957;" d="M348.693 419.45c0-3.045-0.761-6.091-3.045-8.375l-66.236-66.236c-4.568-4.568-11.42-4.568-15.988 0s-4.568 11.42 0 15.988l66.236 66.236c4.568 4.568 11.42 4.568 15.988 0 1.523-1.523 3.045-4.568 3.045-7.613z" />
<glyph unicode="&#xe958;" d="M13.704 419.45c0 6.091 5.329 11.42 11.42 11.42h114.201c6.091 0 11.42-5.329 11.42-11.42s-5.329-11.42-11.42-11.42h-114.201c-6.852 0-11.42 5.329-11.42 11.42z" />
<glyph unicode="&#xe959;" d="M7.613 419.45c0 3.045 0.761 6.091 3.045 8.375 4.568 4.568 11.42 4.568 15.988 0l66.236-66.236c4.568-4.568 4.568-11.42 0-15.988s-11.42-4.568-15.988 0l-66.236 66.236c-2.284 2.284-3.045 4.568-3.045 7.613z" />
<glyph unicode="&#xe95a;" d="M7.613 419.45c0 3.045 0.761 6.091 3.045 8.375l66.236 66.236c4.568 4.568 11.42 4.568 15.988 0s4.568-11.42 0-15.988l-66.236-66.236c-4.568-4.568-11.42-4.568-15.988 0-2.284 2.284-3.045 4.568-3.045 7.613z" />
</font>
</defs>
</svg>
