<?xml version="1.0" standalone="no"?><!DOCTYPE svg PUBLIC "-//W3C//DTD SVG 1.1//EN" "http://www.w3.org/Graphics/SVG/1.1/DTD/svg11.dtd"><svg t="1564647347102" class="icon" viewBox="0 0 2732 1024" version="1.1" xmlns="http://www.w3.org/2000/svg" p-id="916" xmlns:xlink="http://www.w3.org/1999/xlink" width="533.59375" height="200"><defs><style type="text/css"></style></defs><path d="M2673.14196054 445.17898027h-145.20721493c-3.8550592 0-7.71011733-3.8550592-7.7101184-7.71011734v-321.2549024c0-3.8550592-3.8550592-7.71011733-7.71011734-7.71011733h-60.39592213c-3.8550592 0-7.71011733 3.8550592-7.71011733 7.71011733v321.2549024c0 3.8550592-3.8550592 7.71011733-7.71011734 7.71011734h-145.207216c-3.8550592 0-7.71011733 3.8550592-7.71011733 7.71011733v60.39592213c0 3.8550592 3.8550592 7.71011733 7.71011733 7.71011734h145.207216c3.8550592 0 7.71011733 3.8550592 7.71011734 7.71011733v385.50588267c0 3.8550592 3.8550592 7.71011733 7.71011733 7.71011733h60.39592213c3.8550592 0 7.71011733-3.8550592 7.71011734-7.71011733v-385.50588267c0-3.8550592 3.8550592-7.71011733 7.7101184-7.71011733H2673.14196054c3.8550592 0 7.71011733-3.8550592 7.7101184-7.71011734v-60.39592213c0-3.8550592-3.8550592-7.71011733-7.7101184-7.71011733zM1909.84031361 519.71011733H2146.28392107c3.8550592 0 7.71011733 3.8550592 7.7101184 7.7101184v301.97960747c0 3.8550592-3.8550592 7.71011733-7.7101184 7.71011733h-160.62745066c-3.8550592 0-7.71011733-3.8550592-7.71011734-7.71011733V673.9124704c0-3.8550592 3.8550592-7.71011733 7.71011734-7.71011733h105.37160853c3.8550592 0 7.71011733-3.8550592 7.71011733-7.71011734v-60.39592213c0-3.8550592-3.8550592-7.71011733-7.71011733-7.71011733h-179.9027456c-3.8550592 0-7.71011733 3.8550592-7.71011733 7.71011733V903.93098027c0 3.8550592 3.8550592 7.71011733 7.71011733 7.71011733h310.9747456c3.8550592 0 7.71011733-3.8550592 7.71011733-7.71011733V452.8890976c0-3.8550592-3.8550592-7.71011733-7.71011733-7.71011733h-310.9747456c-3.8550592 0-7.71011733 3.8550592-7.71011733 7.71011733v60.39592213c-1.28501973 3.8550592 1.28501973 6.4250976 6.4250976 6.4250976zM1909.84031361 380.928h310.9747456c3.8550592 0 7.71011733-3.8550592 7.71011733-7.71011733V312.82196053c0-3.8550592-3.8550592-7.71011733-7.71011733-7.71011733h-310.9747456c-3.8550592 0-7.71011733 3.8550592-7.71011734 7.71011733v60.39592214c0 3.8550592 2.57003947 7.71011733 7.71011734 7.71011733zM2094.88313707 104.648784h-60.39592106c-3.8550592 0-7.71011733 3.8550592-7.7101184 7.7101184v43.69066667c0 3.8550592-3.8550592 7.71011733-7.71011734 7.71011733h-113.08172586c-3.8550592 0-7.71011733 3.8550592-7.71011734 7.71011733v60.39592214c0 3.8550592 3.8550592 7.71011733 7.71011734 7.71011733h316.11482453c3.8550592 0 7.71011733-3.8550592 7.71011733-7.71011733V171.46980373c0-3.8550592-3.8550592-7.71011733-7.71011733-7.71011733h-113.08172587c-3.8550592 0-7.71011733-3.8550592-7.71011733-7.71011733v-43.69066667c1.28501973-5.14007893-2.57003947-7.71011733-6.42509867-7.7101184zM90.25254934 195.88517653h196.608c6.4250976 0 10.2801568 7.71011733 6.4250976 12.85019627L82.54243094 460.599216c-1.28501973 1.28501973-1.28501973 2.57003947-1.28501867 5.14007787v55.2558432c0 3.8550592 3.8550592 7.71011733 7.71011734 7.71011733h354.6654112c3.8550592 0 7.71011733-3.8550592 7.7101184-7.71011733V360.3676864c0-3.8550592-3.8550592-7.71011733-7.7101184-7.71011733h-60.39592107c-3.8550592 0-7.71011733 3.8550592-7.71011733 7.71011733v84.81129387c0 3.8550592-3.8550592 7.71011733-7.7101184 7.71011733H202.04925441c-6.4250976 0-10.2801568-7.71011733-6.4250976-12.8501952l200.4630592-241.5836864c1.28501973-1.28501973 3.8550592-2.57003947 6.4250976-2.57003947h53.97082346c3.8550592 0 7.71011733-3.8550592 7.71011734-7.71011733v-60.39592213c0-3.8550592-3.8550592-7.71011733-7.71011734-7.71011734H90.25254934c-3.8550592 0-7.71011733 3.8550592-7.7101184 7.71011734v60.39592213c0 3.8550592 3.8550592 7.71011733 7.7101184 7.71011733zM300.99576427 568.54086293h-60.39592106c-3.8550592 0-7.71011733 3.8550592-7.71011734 7.71011734v47.54572586c0 3.8550592-3.8550592 7.71011733-7.7101184 7.71011734H87.68250987c-3.8550592 0-7.71011733 3.8550592-7.71011733 7.71011733v60.39592213c0 3.8550592 3.8550592 7.71011733 7.71011733 7.71011734h138.78211734c3.8550592 0 7.71011733 3.8550592 7.7101184 7.71011733v116.93678507c0 3.8550592-3.8550592 7.71011733-7.7101184 7.71011733H87.68250987c-3.8550592 0-7.71011733 3.8550592-7.71011733 7.71011733v60.39592214c0 3.8550592 3.8550592 7.71011733 7.71011733 7.71011733h367.51560747c3.8550592 0 7.71011733-3.8550592 7.7101184-7.71011733v-60.39592214c0-3.8550592-3.8550592-7.71011733-7.7101184-7.71011733H316.41600001c-3.8550592 0-7.71011733-3.8550592-7.71011734-7.71011733v-116.93678507c0-3.8550592 3.8550592-7.71011733 7.71011734-7.71011733h138.78211733c3.8550592 0 7.71011733-3.8550592 7.7101184-7.71011734v-60.39592213c0-3.8550592-3.8550592-7.71011733-7.7101184-7.71011733H316.41600001c-3.8550592 0-7.71011733-3.8550592-7.71011734-7.71011734v-47.54572586c0-5.14007893-3.8550592-7.71011733-7.7101184-7.71011734zM809.86352961 519.71011733V297.40172587c0-3.8550592 2.57003947-7.71011733 7.71011733-7.7101184h25.70039253c3.8550592 0 7.71011733-2.57003947 7.71011734-7.71011734V222.87058773c0-3.8550592-3.8550592-7.71011733-7.71011734-7.71011733H590.12517654c-3.8550592 0-7.71011733-3.8550592-7.71011733-7.71011733v-96.3764704c0-3.8550592-3.8550592-7.71011733-7.7101184-7.7101184H514.30901974c-3.8550592 0-7.71011733 3.8550592-7.71011733 7.7101184v170.90760746c0 3.8550592 3.8550592 7.71011733 7.71011733 7.71011734h212.02823467c3.8550592 0 7.71011733 3.8550592 7.7101184 7.7101184v203.0330976c0 1.28501973 0 2.57003947-1.28501974 3.8550592l-60.39592213 105.37160746c-2.57003947 5.14007893-8.99513707 5.14007893-12.8501952 0l-75.8161568-107.94164693c-1.28501973-1.28501973-1.28501973-2.57003947-1.28501973-3.8550592V360.3676864c0-3.8550592-3.8550592-7.71011733-7.7101184-7.71011733H514.30901974c-3.8550592 0-7.71011733 3.8550592-7.71011733 7.71011733v161.9124704c0 1.28501973 0 2.57003947 1.28501866 3.8550592l114.3667456 161.9124704c1.28501973 2.57003947 1.28501973 5.14007893 0 7.71011733L501.45882347 907.78603947c-2.57003947 5.14007893 1.28501973 11.56517653 6.4250976 11.56517653h69.3910592c2.57003947 0 5.14007893-1.28501973 6.42509867-3.8550592L668.51137281 769.00392107c2.57003947-5.14007893 8.99513707-5.14007893 12.85019626 0l102.801568 146.49223573c1.28501973 2.57003947 3.8550592 2.57003947 6.42509867 2.57003947h73.24611733c6.4250976 0 10.2801568-6.4250976 6.4250976-11.56517654L717.34211734 691.9027456c-1.28501973-2.57003947-1.28501973-5.14007893 0-7.7101184l91.23639253-159.34243093c1.28501973-2.57003947 1.28501973-3.8550592 1.28501974-5.14007894zM993.62133334 519.71011733h236.44360747c3.8550592 0 7.71011733 3.8550592 7.7101184 7.7101184v301.97960747c0 3.8550592-3.8550592 7.71011733-7.7101184 7.71011733H1068.15247041c-3.8550592 0-7.71011733-3.8550592-7.71011734-7.71011733V673.9124704c0-3.8550592 3.8550592-7.71011733 7.71011734-7.71011733h105.37160853c3.8550592 0 7.71011733-3.8550592 7.71011733-7.71011734v-60.39592213c0-3.8550592-3.8550592-7.71011733-7.71011733-7.71011733h-179.9027456c-3.8550592 0-7.71011733 3.8550592-7.71011733 7.71011733V903.93098027c0 3.8550592 3.8550592 7.71011733 7.71011733 7.71011733h310.9747456c3.8550592 0 7.71011733-3.8550592 7.71011733-7.71011733V452.8890976c0-3.8550592-3.8550592-7.71011733-7.71011733-7.71011733H993.62133334c-3.8550592 0-7.71011733 3.8550592-7.71011733 7.71011733v60.39592213c0 3.8550592 2.57003947 6.4250976 7.71011733 6.4250976zM993.62133334 380.928h310.9747456c3.8550592 0 7.71011733-3.8550592 7.71011733-7.71011733V312.82196053c0-3.8550592-3.8550592-7.71011733-7.71011733-7.71011733H993.62133334c-3.8550592 0-7.71011733 3.8550592-7.71011733 7.71011733v60.39592214c0 3.8550592 2.57003947 7.71011733 7.71011733 7.71011733zM1445.94823574 195.88517653h223.5934112c3.8550592 0 7.71011733 3.8550592 7.71011733 7.71011734v168.33756906c0 3.8550592 3.8550592 7.71011733 7.7101184 7.71011734h60.39592107c3.8550592 0 7.71011733-3.8550592 7.71011733-7.71011734v-244.15372586c0-3.8550592-3.8550592-7.71011733-7.71011733-7.71011734h-373.94070613c-3.8550592 0-7.71011733 3.8550592-7.71011734 7.71011734v240.29866666c0 3.8550592 3.8550592 7.71011733 7.71011734 7.71011734h60.39592213c3.8550592 0 7.71011733-3.8550592 7.71011733-7.71011734V202.31027413c0-3.8550592 2.57003947-6.4250976 6.42509867-6.4250976zM1178.66415681 104.648784H1118.26823574c-3.8550592 0-7.71011733 3.8550592-7.7101184 7.7101184v43.69066667c0 3.8550592-3.8550592 7.71011733-7.71011733 7.71011733H989.76627414c-3.8550592 0-7.71011733 3.8550592-7.71011733 7.71011733v60.39592214c0 3.8550592 3.8550592 7.71011733 7.71011733 7.71011733h316.11482347c3.8550592 0 7.71011733-3.8550592 7.7101184-7.71011733V171.46980373c0-3.8550592-3.8550592-7.71011733-7.7101184-7.71011733h-113.0817248c-3.8550592 0-7.71011733-3.8550592-7.7101184-7.71011733v-43.69066667c1.28501973-5.14007893-2.57003947-7.71011733-6.4250976-7.7101184zM1753.06792107 643.072V452.8890976c0-3.8550592-3.8550592-7.71011733-7.71011733-7.71011733h-373.94070613c-3.8550592 0-7.71011733 3.8550592-7.71011734 7.71011733v190.1829024c0 2.57003947 1.28501973 3.8550592 2.57003947 5.14007893l128.50196053 113.0817248c3.8550592 2.57003947 3.8550592 7.71011733 0 11.56517654l-150.34729386 132.35701973c-5.14007893 5.14007893-2.57003947 12.85019627 5.14007786 12.85019627h89.9513728c1.28501973 0 3.8550592-1.28501973 5.14007894-1.28501974l107.94164693-95.09145066c2.57003947-2.57003947 7.71011733-2.57003947 10.2801568 0L1670.82666667 916.78117653c1.28501973 1.28501973 2.57003947 1.28501973 5.14007894 1.28501974h89.95137173c6.4250976 0 10.2801568-8.99513707 5.14007893-12.85019627l-150.34729386-132.35701973c-3.8550592-2.57003947-3.8550592-7.71011733 0-11.56517654l128.50196053-113.0817248c2.57003947-1.28501973 3.8550592-3.8550592 3.85505813-5.14007893zM1439.52313707 608.3764704v-80.95623467c0-3.8550592 3.8550592-7.71011733 7.71011734-7.7101184H1670.82666667c3.8550592 0 7.71011733 3.8550592 7.71011734 7.7101184V608.3764704c0 2.57003947-1.28501973 3.8550592-2.5700384 5.14007893l-111.79670614 98.94650987c-2.57003947 2.57003947-7.71011733 2.57003947-10.2801568 0l-111.79670613-98.94650987c-2.57003947 0-2.57003947-2.57003947-2.57003947-5.14007893z" p-id="917" fill="#ffffff"></path></svg>