<?xml version="1.0" encoding="utf-8"?>
<!-- Generator: Adobe Illustrator 19.0.0, SVG Export Plug-In . SVG Version: 6.00 Build 0)  -->
<svg version="1.1" id="图层_1" xmlns="http://www.w3.org/2000/svg" xmlns:xlink="http://www.w3.org/1999/xlink" x="0px" y="0px"
	 viewBox="0 0 34 34" style="enable-background:new 0 0 34 34;" xml:space="preserve">
<style type="text/css">
	.st0{fill:#FFFFFF;}
	.st1{fill:#34ACFE;}
	.st2{fill:#FF5959;}
</style>
<g id="XMLID_8_">
	<path id="XMLID_25_" class="st0" d="M31.1,20.5c0,6.6-6.7,12-14.9,12s-14.9-5.4-14.9-12s6.7-12,14.9-12S31.1,13.9,31.1,20.5"/>
	<path id="XMLID_22_" class="st1" d="M33.7,7.2c0.4-0.5,0.5-1.2,0-1.7l-2.5-2.9c-0.4-0.5-1.1-0.6-1.7-0.3c-1.2,0.8-3.1,1.7-5.9,0.4
		c0,0-3.5-1.7-7.3-1.7C7.3,1,0,8.3,0,17.2c0,4.7,2,9,5.2,11.9l-0.7-3.7c-0.1-0.6-0.3-1.2-0.6-1.8c-0.8-1.3-1.2-2.9-1.2-4.5
		c0-3.5,2.1-6.6,5.1-8.1l0,0c1.7,2.9,4.9,4.9,8.5,4.9s6.8-2,8.5-4.9l0,0c3,1.4,5.1,4.5,5.1,8.1c0,1.7-0.5,3.2-1.2,4.5
		c-0.3,0.5-0.5,1-0.6,1.5l-0.7,3.9c3.2-3,5.1-7.2,5.2-11.9c0-1.4,0-2.2-0.6-4.3C31.4,10.6,32.7,8.3,33.7,7.2"/>
	<path id="XMLID_20_" class="st1" d="M3.6,27.5c0,0-2.4-3.3-3-6c-0.4-2.1,3.5,5.7,3.5,5.7L3.6,27.5z"/>
	<path id="XMLID_19_" class="st1" d="M29,27.5c0,0,1.4-1.5,2.7-5.3c0.7-2-3.7,4.9-3.7,4.9L29,27.5z"/>
	<path id="XMLID_18_" class="st1" d="M16.3,33c-5,0-9.8-2.1-12.7-5.5L4.2,27c2.8,3.3,7.3,5.2,12.1,5.2s9.3-1.9,12.1-5.2l0.6,0.5
		C26.1,31,21.3,33,16.3,33"/>
	<path id="XMLID_23_" class="st2" d="M12.5,13.4c0.3,0.6,0.3,1.7-0.2,2.2c-0.9-3.7-3.1-4.4-3.1-4.4c0.3,1.9-0.9,3.9-2.1,5.5
		c0-0.8-0.1-1.3-0.5-2c-0.1,1.4-1,2.5-1.3,3.9c-0.3,1.9,0.3,3.2,2.6,4.7c0.5,0.4,1.2,0.6,1.9,0.6c0.7,0,1.4-0.2,2-0.6c0,0,0,0,0,0
		C17.7,19.5,13.3,14,12.5,13.4z"/>
	<path id="XMLID_21_" class="st2" d="M25.5,13.4c0.3,0.6,0.3,1.7-0.2,2.2c-0.9-3.7-3.1-4.4-3.1-4.4c0.3,1.9-0.9,3.9-2.1,5.5
		c0-0.8-0.1-1.3-0.5-2c-0.1,1.4-1,2.5-1.3,3.9c-0.3,1.9,0.3,3.2,2.6,4.7c0.5,0.4,1.2,0.6,1.9,0.6c0.7,0,1.4-0.2,2-0.6c0,0,0,0,0,0
		C30.7,19.5,26.2,14,25.5,13.4z"/>
	<path id="XMLID_17_" class="st2" d="M21,28.2l-0.8-3.2c-0.1-0.7-0.7-1.2-1.4-1.3c-0.5-0.1-1.4-0.2-2.5-0.2c-1.1,0-2,0.1-2.5,0.2
		c-0.7,0.1-1.3,0.6-1.4,1.3l-0.8,3.2c-0.1,0.5,0,1,0.3,1.4c0.3,0.4,0.8,0.6,1.3,0.6c0.1,0,0.1,0,0.2,0c0.7-0.1,1.9-0.2,2.9-0.2
		c1,0,2.2,0.1,2.9,0.2c0.1,0,0.1,0,0.2,0c0.5,0,1-0.2,1.3-0.6C21,29.2,21.1,28.7,21,28.2"/>
	<path id="XMLID_16_" class="st0" d="M18.9,26.2l-0.2-0.7c-0.1-0.3-0.3-0.5-0.6-0.6c-0.4-0.1-1-0.1-1.8-0.1c-0.8,0-1.4,0.1-1.8,0.1
		c-0.3,0-0.6,0.3-0.6,0.6l-0.1,0.4l0.5,0.6c0.1,0.1,0.2,0.1,0.2,0l0.3-0.4c0.1-0.1,0.2-0.1,0.2,0l0.2,0.3c0.1,0.1,0.2,0.1,0.2,0
		l0.3-0.3c0.1-0.1,0.2-0.1,0.2,0l0.3,0.3c0.1,0.1,0.2,0.1,0.2,0l0.3-0.3c0.1-0.1,0.2-0.1,0.2,0l0.3,0.3c0.1,0.1,0.2,0.1,0.2,0
		l0.3-0.3c0.1-0.1,0.2-0.1,0.2,0l0.3,0.3c0.1,0.1,0.2,0.1,0.2,0L18.9,26.2z"/>
	<path id="XMLID_10_" class="st0" d="M19.4,28.4l-0.9-0.9c-0.1-0.1-0.2-0.1-0.3,0l-0.2,0.3c-0.1,0.1-0.2,0.1-0.3,0l-0.2-0.3
		c-0.1-0.1-0.3-0.1-0.3,0l-0.2,0.3c-0.1,0.1-0.3,0.1-0.3,0l-0.2-0.2c-0.1-0.1-0.3-0.1-0.3,0l-0.2,0.3c-0.1,0.1-0.3,0.1-0.4,0
		L15,27.5c-0.1-0.1-0.3-0.1-0.3,0l-0.2,0.2c-0.1,0.1-0.3,0.1-0.4,0l-0.3-0.3c-0.1-0.1-0.2-0.1-0.3,0l-0.4,0.4l0,0.1
		c-0.1,0.5,0.3,1,0.8,0.9c0.6-0.1,1.5-0.1,2.3-0.1c0.8,0,1.7,0.1,2.3,0.1C19,28.9,19.3,28.7,19.4,28.4"/>
</g>
</svg>
