<?xml version="1.0" encoding="utf-8"?>
<!-- Generator: Adobe Illustrator 19.0.0, SVG Export Plug-In . SVG Version: 6.00 Build 0)  -->
<svg version="1.1" id="图层_1" xmlns="http://www.w3.org/2000/svg" xmlns:xlink="http://www.w3.org/1999/xlink" x="0px" y="0px"
	 viewBox="2 -2.6 34 34" style="enable-background:new 2 -2.6 34 34;" xml:space="preserve">
<style type="text/css">
	.st0{fill:#FFFFFF;}
	.st1{fill:#34ACFE;}
	.st2{fill:#FF5959;}
	.st3{fill:#330000;}
</style>
<g>
	<path class="st0" d="M33.1,17.8c0,6.6-6.7,12-14.9,12c-8.2,0-14.9-5.4-14.9-12s6.7-12,14.9-12C26.5,5.8,33.1,11.2,33.1,17.8"/>
	<path class="st1" d="M35.7,4.5c0.4-0.5,0.5-1.2,0-1.7l-2.5-2.9c-0.4-0.5-1.1-0.6-1.7-0.3c-1.2,0.8-3.1,1.7-5.9,0.4
		c0,0-3.5-1.7-7.3-1.7C9.3-1.6,2,5.6,2,14.6c0,4.7,2,9,5.2,11.9l-0.7-3.7c-0.1-0.6-0.3-1.2-0.6-1.8c-0.8-1.3-1.2-2.9-1.2-4.5
		c0-3.5,2.1-6.6,5.1-8.1l0,0c1.7,2.9,4.9,4.9,8.5,4.9s6.8-2,8.5-4.9l0,0c3,1.4,5.1,4.5,5.1,8.1c0,1.7-0.5,3.2-1.2,4.5
		c-0.3,0.5-0.5,1-0.6,1.5l-0.7,3.9c3.2-3,5.1-7.2,5.2-11.9c0-1.4,0-2.2-0.6-4.3C33.4,7.9,34.7,5.6,35.7,4.5"/>
	<path class="st1" d="M5.6,24.9c0,0-2.4-3.3-3-6c-0.4-2.1,3.6,5.7,3.6,5.7L5.6,24.9z"/>
	<path class="st1" d="M31,24.9c0,0,1.4-1.5,2.7-5.3c0.7-2-3.7,4.9-3.7,4.9L31,24.9z"/>
	<path class="st1" d="M18.3,30.3c-5,0-9.8-2.1-12.7-5.5l0.6-0.5c2.8,3.3,7.3,5.2,12.1,5.2s9.3-1.9,12.1-5.2l0.6,0.5
		C28.1,28.3,23.3,30.3,18.3,30.3"/>
	<path class="st2" d="M21,25.9c0,1.1-1.3,0.4-2.7,0.4c-1.5,0-2.6,0.6-2.6-0.4s1.2-1.9,2.7-1.9C19.8,24,21,24.8,21,25.9z"/>
	<g>
		<path class="st3" d="M26.6,14c-2.9,0.5-6.2,1.1-6.2,1.1l0.2,0.3c0,0.1,0.1,0.1,0.1,0.2c-0.1,1-0.4,7.6,3.8,7.4
			c3.1-0.1,4.8-4.6,4.5-7.3C28.7,13.1,27.6,13.9,26.6,14"/>
		<path class="st0" d="M23.2,18.7c0.1,0.8,0,1.6-0.4,1.6c-0.4,0-0.9-0.6-1-1.4c-0.1-0.8,0.2-1.5,0.6-1.6
			C22.8,17.3,23.1,17.9,23.2,18.7"/>
		<path class="st0" d="M27.6,17.1c0,0.9-0.8,1.7-1.7,1.7c-0.9,0-1.7-0.8-1.7-1.7c0-0.9,0.8-1.7,1.7-1.7
			C26.8,15.4,27.6,16.1,27.6,17.1"/>
		<path class="st0" d="M26,20.9c0,0.5-0.4,1-1,1s-1-0.4-1-1c0-0.5,0.4-1,1-1S26,20.4,26,20.9"/>
	</g>
	<g>
		<path class="st3" d="M10.1,14c2.9,0.5,6.2,1.1,6.2,1.1l-0.2,0.3c0,0.1-0.1,0.1-0.1,0.2c0.1,1,0.4,7.6-3.8,7.4
			c-3.1-0.1-4.8-4.6-4.5-7.3C8,13.1,9.1,13.9,10.1,14"/>
		<path class="st0" d="M13.5,18.7c-0.1,0.8,0,1.6,0.4,1.6c0.4,0,0.9-0.6,1-1.4c0.1-0.8-0.2-1.5-0.6-1.6
			C13.9,17.3,13.6,17.9,13.5,18.7"/>
		<path class="st0" d="M9.1,17.1c0,0.9,0.8,1.7,1.7,1.7c0.9,0,1.7-0.8,1.7-1.7c0-0.9-0.8-1.7-1.7-1.7C9.9,15.4,9.1,16.1,9.1,17.1"/>
		<path class="st0" d="M10.7,20.9c0,0.5,0.4,1,1,1c0.5,0,1-0.4,1-1c0-0.5-0.4-1-1-1C11.1,19.9,10.7,20.4,10.7,20.9"/>
	</g>
	<path class="st3" d="M6.4,16c-0.3,0-0.5-0.2-0.6-0.5c0-0.3,0.2-0.6,0.5-0.6c2.2-0.3,3-2.4,3.1-2.5c0.1-0.3,0.4-0.4,0.7-0.3
		c0.3,0.1,0.4,0.4,0.3,0.7C10.5,12.9,9.5,15.7,6.4,16C6.5,16,6.5,16,6.4,16"/>
	<path class="st3" d="M30.4,16.1c0.3,0,0.5-0.2,0.6-0.5c0-0.3-0.2-0.6-0.5-0.6c-2.2-0.3-3-2.4-3.1-2.5c-0.1-0.3-0.4-0.4-0.7-0.3
		c-0.3,0.1-0.4,0.4-0.3,0.7C26.4,13,27.4,15.8,30.4,16.1C30.4,16.1,30.4,16.1,30.4,16.1"/>
</g>
</svg>
