<?xml version="1.0" encoding="utf-8"?>
<!-- Generator: Adobe Illustrator 19.0.0, SVG Export Plug-In . SVG Version: 6.00 Build 0)  -->
<svg version="1.1" id="图层_1" xmlns="http://www.w3.org/2000/svg" xmlns:xlink="http://www.w3.org/1999/xlink" x="0px" y="0px"
	 viewBox="-1 1.8 34 34" style="enable-background:new -1 1.8 34 34;" xml:space="preserve">
<style type="text/css">
	.st0{fill:#FFFFFF;}
	.st1{fill:#34ACFE;}
	.st2{opacity:0.46;}
	.st3{fill:#F7F7F8;}
	.st4{fill:#FF5959;}
</style>
<g>
	<g>
		<ellipse class="st0" cx="15.3" cy="22.3" rx="14.9" ry="12"/>
	</g>
	<g>
		<path class="st1" d="M32.6,9c0.4-0.5,0.5-1.2,0-1.7l-2.5-2.9c-0.4-0.5-1.1-0.6-1.7-0.3c-1.2,0.8-3.1,1.7-5.9,0.4
			c0,0-3.5-1.7-7.3-1.7C6.3,2.9-1,10.1-1,19.1c0,4.7,2,9,5.2,11.9l-0.7-3.7c-0.1-0.6-0.3-1.2-0.6-1.8c-0.8-1.3-1.2-2.9-1.2-4.5
			c0-3.5,2.1-6.6,5.1-8.1l0,0c1.7,2.9,4.9,4.9,8.5,4.9c3.6,0,6.8-2,8.5-4.9l0,0c3,1.5,5.1,4.5,5.1,8.1c0,1.7-0.5,3.2-1.2,4.5
			c-0.3,0.5-0.5,1-0.6,1.5L26.3,31c3.2-3,5.1-7.2,5.2-11.9c0-1.4,0-2.2-0.6-4.3C30.4,12.4,31.7,10.1,32.6,9z"/>
	</g>
	<path class="st1" d="M2.6,29.4c0,0-2.4-3.3-3-6c-0.4-2.1,3.6,5.7,3.6,5.7L2.6,29.4z"/>
	<g>
		<path class="st1" d="M28,29.4c0,0,1.4-1.5,2.7-5.3c0.7-2-3.7,4.9-3.7,4.9L28,29.4z"/>
	</g>
	<g>
		<path class="st1" d="M15.3,34.8c-5,0-9.8-2.1-12.7-5.5l0.6-0.5C6,32.1,10.5,34,15.3,34c4.8,0,9.3-1.9,12.1-5.2l0.6,0.5
			C25.1,32.8,20.3,34.8,15.3,34.8z"/>
	</g>
	<g>
		<path d="M13.3,19.7l0.8,2c0,0.1,0.2,0.2,0.3,0.2h1.7c0.1,0,0.2-0.1,0.3-0.2l0.8-2H13.3z"/>
		<g>
			<path d="M16.9,19.9l-0.4,1.5c0,0.1,0,0.3,0,0.4l1.7,4.9c0.1,0.3,0.3,0.5,0.6,0.5h5.8c0.3,0,0.6-0.2,0.6-0.5l1.2-5.6
				c0-0.2,0-0.4-0.1-0.5l-0.6-0.8c-0.1-0.2-0.3-0.3-0.5-0.3h-7.8C17.2,19.4,17,19.6,16.9,19.9z"/>
		</g>
		<g class="st2">
			<path class="st3" d="M20.2,27.1l4.2-7.7h-1.7L18.5,27c0.1,0.1,0.2,0.1,0.3,0.1H20.2z"/>
			<path class="st3" d="M22,27.1l3.9-7.3l-0.1-0.1c-0.1-0.1-0.2-0.2-0.4-0.3l-4.1,7.7H22z"/>
		</g>
		<g>
			<path d="M13.7,19.9l0.4,1.5c0,0.1,0,0.3,0,0.4l-1.7,4.9c-0.1,0.3-0.3,0.5-0.6,0.5H6c-0.3,0-0.6-0.2-0.6-0.5L4.1,21
				c0-0.2,0-0.4,0.1-0.5l0.6-0.8c0.1-0.2,0.3-0.3,0.5-0.3h7.8C13.4,19.4,13.7,19.6,13.7,19.9z"/>
		</g>
		<g class="st2">
			<polygon class="st3" points="10.2,19.4 6,27.1 6.4,27.1 7.8,27.1 11.9,19.4 			"/>
			<path class="st3" d="M13.1,19.4L13.1,19.4l-4.2,7.7h0.7l4-7.5C13.5,19.5,13.3,19.4,13.1,19.4z"/>
		</g>
	</g>
	<g>
		<path class="st4" d="M16.1,29.5c1.8-0.7,2-1.8,2.3-1.6c0.5,0.2,0.5,2.9-2,3.9c-2.9,1.2-4.1-0.7-3.2-2
			C13.7,29.2,15.2,29.9,16.1,29.5z"/>
	</g>
</g>
</svg>
