<?xml version="1.0" encoding="utf-8"?>
<!-- Generator: Adobe Illustrator 19.0.0, SVG Export Plug-In . SVG Version: 6.00 Build 0)  -->
<svg version="1.1" id="图层_1" xmlns="http://www.w3.org/2000/svg" xmlns:xlink="http://www.w3.org/1999/xlink" x="0px" y="0px"
	 viewBox="2 -2.6 34 34" style="enable-background:new 2 -2.6 34 34;" xml:space="preserve">
<style type="text/css">
	.st0{fill:#FFFFFF;}
	.st1{fill:#34ACFE;}
	.st2{fill:#330000;}
	.st3{fill:none;}
	.st4{fill:#FF5959;}
</style>
<g>
	<path class="st0" d="M33.1,17.8c0,6.6-6.7,12-14.9,12c-8.2,0-14.9-5.4-14.9-12s6.7-12,14.9-12C26.5,5.8,33.1,11.2,33.1,17.8"/>
	<path class="st1" d="M35.7,4.5c0.4-0.5,0.5-1.2,0-1.7l-2.5-2.9c-0.4-0.5-1.1-0.6-1.7-0.3c-1.2,0.8-3.1,1.7-5.9,0.4
		c0,0-3.5-1.7-7.3-1.7C9.3-1.6,2,5.6,2,14.6c0,4.7,2,9,5.2,11.9l-0.7-3.7c-0.1-0.6-0.3-1.2-0.6-1.8c-0.8-1.3-1.2-2.9-1.2-4.5
		c0-3.5,2.1-6.6,5.1-8.1l0,0c1.7,2.9,4.9,4.9,8.5,4.9s6.8-2,8.5-4.9l0,0c3,1.4,5.1,4.5,5.1,8.1c0,1.7-0.5,3.2-1.2,4.5
		c-0.3,0.5-0.5,1-0.6,1.5l-0.7,3.9c3.2-3,5.1-7.2,5.2-11.9c0-1.4,0-2.2-0.6-4.3C33.4,7.9,34.7,5.6,35.7,4.5"/>
	<path class="st1" d="M5.6,24.9c0,0-2.4-3.3-3-6c-0.4-2.1,3.6,5.7,3.6,5.7L5.6,24.9z"/>
	<path class="st1" d="M31,24.9c0,0,1.4-1.5,2.7-5.3c0.7-2-3.7,4.9-3.7,4.9L31,24.9z"/>
	<path class="st1" d="M18.3,30.4c-5,0-9.8-2.1-12.7-5.5l0.6-0.5c2.8,3.3,7.3,5.2,12.1,5.2s9.3-1.9,12.1-5.2l0.6,0.5
		C28.1,28.3,23.3,30.4,18.3,30.4"/>
	<g>
		<path class="st2" d="M12.8,17.3c0,1.3-1.1,2.4-2.4,2.4c-1.3,0-2.4-1.1-2.4-2.4v-0.5h4.8L12.8,17.3"/>
		<path class="st2" d="M8.7,17.5h6.9c0.4,0,0.7-0.3,0.7-0.7S16,16,15.6,16H8.7C8.3,16,8,16.4,8,16.8S8.3,17.5,8.7,17.5"/>
		<path class="st2" d="M24.6,17.3c0,1.3-1.1,2.4-2.4,2.4c-1.3,0-2.4-1.1-2.4-2.4v-0.5h4.8L24.6,17.3"/>
		<path class="st2" d="M20.4,17.5h7.5c0.4,0,0.7-0.3,0.7-0.7S28.3,16,27.9,16h-7.5c-0.4,0-0.7,0.3-0.7,0.7S20.1,17.5,20.4,17.5"/>
	</g>
	<rect x="2" y="-1.6" class="st3" width="34" height="32"/>
	<ellipse class="st4" cx="18.3" cy="24.7" rx="2.7" ry="1.9"/>
</g>
</svg>
