<?xml version="1.0" encoding="utf-8"?>
<!-- Generator: Adobe Illustrator 19.0.0, SVG Export Plug-In . SVG Version: 6.00 Build 0)  -->
<svg version="1.1" id="图层_1" xmlns="http://www.w3.org/2000/svg" xmlns:xlink="http://www.w3.org/1999/xlink" x="0px" y="0px"
	 viewBox="0 0 34 34" style="enable-background:new 0 0 34 34;" xml:space="preserve">
<style type="text/css">
	.st0{fill:#FFFFFF;}
	.st1{fill:#34ACFE;}
	.st2{fill:#FF5959;}
	.st3{fill:none;stroke:#330000;stroke-width:1.4173;stroke-linecap:round;stroke-linejoin:round;stroke-miterlimit:10;}
</style>
<g id="XMLID_8_">
	<g>
		<g>
			<ellipse id="XMLID_22_" class="st0" cx="16.3" cy="20.5" rx="14.9" ry="12"/>
		</g>
		<g>
			<path id="XMLID_21_" class="st1" d="M33.7,7.2c0.4-0.5,0.5-1.2,0-1.7l-2.5-2.9c-0.4-0.5-1.1-0.6-1.7-0.3
				c-1.2,0.8-3.1,1.7-5.9,0.4c0,0-3.5-1.7-7.3-1.7C7.3,1,0,8.3,0,17.2c0,4.7,2,9,5.2,11.9l-0.7-3.7c-0.1-0.6-0.3-1.2-0.6-1.8
				c-0.8-1.3-1.2-2.9-1.2-4.5c0-3.5,2.1-6.6,5.1-8.1l0,0c1.7,2.9,4.9,4.9,8.5,4.9c3.6,0,6.8-2,8.5-4.9l0,0c3,1.5,5.1,4.5,5.1,8.1
				c0,1.7-0.5,3.2-1.2,4.5c-0.3,0.5-0.5,1-0.6,1.5l-0.7,3.9c3.2-3,5.1-7.2,5.2-11.9c0-1.4,0-2.2-0.6-4.3
				C31.4,10.6,32.7,8.3,33.7,7.2z"/>
		</g>
		<path id="XMLID_20_" class="st1" d="M3.6,27.5c0,0-2.4-3.3-3-6c-0.4-2.1,3.6,5.7,3.6,5.7L3.6,27.5z"/>
		<g>
			<path id="XMLID_19_" class="st1" d="M29,27.5c0,0,1.4-1.5,2.7-5.3c0.7-2-3.7,4.9-3.7,4.9L29,27.5z"/>
		</g>
		<g>
			<path id="XMLID_18_" class="st1" d="M16.3,33c-5,0-9.8-2.1-12.7-5.5L4.2,27c2.8,3.3,7.3,5.2,12.1,5.2c4.8,0,9.3-1.9,12.1-5.2
				l0.6,0.5C26.1,31,21.3,33,16.3,33z"/>
		</g>
	</g>
	<path id="XMLID_17_" class="st2" d="M16.5,23.9h-1.2c-0.4,0-0.8,0.3-1,0.7l-1.7,3.9c-0.2,0.7,0.3,1.3,1,1.3h4.6
		c0.7,0,1.2-0.7,1-1.3l-1.7-3.9C17.4,24.1,17,23.9,16.5,23.9z"/>
	<g>
		<path id="XMLID_16_" class="st3" d="M23.1,16.9c0,0-3.3,0.6-4.5,4.1H22"/>
		<path id="XMLID_10_" class="st3" d="M8.9,16.9c0,0,3.3,0.6,4.5,4.1h-3.4"/>
	</g>
</g>
</svg>
