<?xml version="1.0" standalone="no"?><!DOCTYPE svg PUBLIC "-//W3C//DTD SVG 1.1//EN" "http://www.w3.org/Graphics/SVG/1.1/DTD/svg11.dtd" ><svg xmlns="http://www.w3.org/2000/svg"><metadata></metadata><defs><font id="fonteditor" horiz-adv-x="1907"><font-face font-family="AvantGarde Bk BT" font-weight="400" font-stretch="normal" units-per-em="2048" panose-1="2 11 4 2 2 2 2 2 2 4" ascent="1972" descent="-483" x-height="4" bbox="-51 -430 1794 1485" underline-thickness="113" underline-position="-178" unicode-range="U+0041-2263" /><missing-glyph horiz-adv-x="1229" d="M102 -362 L102 1444 L1126 1444 L1126 -362 L102 -362 ZM217 -248 L1012 -248 L1012 1329 L217 1329 L217 -248 Z" /><glyph glyph-name="A" unicode="a" d="M100 0 L-51 0 L514 1456 L686 1456 L1249 0 L1096 0 L922 457 L274 457 L100 0 ZM872 588 L596 1319 L324 588 L872 588 Z" /><glyph glyph-name="B" unicode="b" d="M272 688 L272 139 L473 139 Q650 139 734.5 206 Q819 273 819 412 Q819 551 733 619.5 Q647 688 473 688 L272 688 ZM272 1317 L272 827 L358 827 Q570 827 654.5 885.5 Q739 944 739 1077 Q739 1202 657 1259.5 Q575 1317 395 1317 L272 1317 ZM135 1456 L406 1456 Q653 1456 769 1362.5 Q885 1269 885 1071 Q885 971 846 900 Q807 829 729 784 Q847 735 906 646.5 Q965 558 965 430 Q965 208 842.5 104 Q720 0 457 0 L135 0 L135 1456 Z" /><glyph glyph-name="C" unicode="c" d="M1296 1079 Q1198 1215 1077 1279 Q956 1343 801 1343 Q558 1343 385.5 1163 Q213 983 213 735 Q213 471 384.5 290 Q556 109 801 109 Q952 109 1074 172 Q1196 235 1286 360 L1456 360 Q1356 174 1188 72.5 Q1020 -29 811 -29 Q490 -29 275.5 190 Q61 409 61 737 Q61 890 119 1027 Q177 1164 289 1274 Q393 1378 522.5 1431.5 Q652 1485 803 1485 Q1020 1485 1193.5 1379 Q1367 1273 1468 1079 L1296 1079 Z" /><glyph glyph-name="D" unicode="d" d="M276 1317 L276 137 L573 137 Q851 137 1001 293 Q1151 449 1151 735 Q1151 878 1100 999 Q1049 1120 954 1202 Q883 1264 795 1290.5 Q707 1317 539 1317 L276 1317 ZM135 1456 L549 1456 Q720 1456 836.5 1422 Q953 1388 1042 1313 Q1167 1208 1236 1056 Q1305 904 1305 731 Q1305 538 1229 379.5 Q1153 221 1014 121 Q922 56 815 28 Q708 0 485 0 L135 0 L135 1456 Z" /><glyph glyph-name="E" unicode="e" d="M279 803 L891 803 L891 659 L279 659 L279 141 L891 141 L891 0 L135 0 L135 1456 L891 1456 L891 1313 L279 1313 L279 803 Z" /><glyph glyph-name="F" unicode="f" d="M135 0 L135 1456 L854 1456 L854 1313 L276 1313 L276 803 L854 803 L854 659 L276 659 L276 0 L135 0 Z" /><glyph glyph-name="G" unicode="g" d="M643 698 L1548 698 Q1530 380 1319 175.5 Q1108 -29 801 -29 Q486 -29 273.5 191 Q61 411 61 737 Q61 890 119 1027 Q177 1164 289 1274 Q397 1381 528 1433 Q659 1485 819 1485 Q1031 1485 1199.5 1382.5 Q1368 1280 1470 1090 L1294 1090 Q1191 1221 1073.5 1283.5 Q956 1346 811 1346 Q560 1346 386.5 1166.5 Q213 987 213 735 Q213 467 386 288 Q559 109 813 109 Q1013 109 1171.5 237 Q1330 365 1378 569 L643 569 L643 698 Z" /><glyph glyph-name="H" unicode="h" d="M279 0 L135 0 L135 1456 L279 1456 L279 803 L971 803 L971 1456 L1114 1456 L1114 0 L971 0 L971 664 L279 664 L279 0 Z" /><glyph glyph-name="I" unicode="i" d="M276 0 L133 0 L133 1456 L276 1456 L276 0 Z" /><glyph glyph-name="J" unicode="j" d="M641 1456 L784 1456 L784 475 Q784 347 770.5 275 Q757 203 725 150 Q675 64 586.5 16.5 Q498 -31 389 -31 Q226 -31 126.5 74.5 Q27 180 27 354 L170 354 Q176 246 239.5 179.5 Q303 113 397 113 Q530 113 585.5 197.5 Q641 282 641 535 L641 1456 Z" /><glyph glyph-name="K" unicode="k" d="M274 449 L274 0 L133 0 L133 1456 L274 1456 L274 647 L948 1456 L1118 1456 L530 752 L1108 0 L932 0 L438 645 L274 449 Z" /><glyph glyph-name="L" unicode="l" d="M791 0 L135 0 L135 1456 L279 1456 L279 141 L791 141 L791 0 Z" /><glyph glyph-name="M" unicode="m" d="M143 0 L143 1456 L354 1456 L858 190 L1360 1456 L1571 1456 L1571 0 L1434 0 L1434 1286 L922 0 L793 0 L281 1286 L281 0 L143 0 Z" /><glyph glyph-name="N" unicode="n" d="M1102 174 L1085 1456 L1227 1456 L1227 0 L1055 0 L256 1284 L272 0 L131 0 L131 1456 L303 1456 L1102 174 Z" /><glyph glyph-name="O" unicode="o" d="M211 735 Q211 469 384 289 Q557 109 811 109 Q1059 109 1230 291 Q1401 473 1401 739 Q1401 987 1225 1166.5 Q1049 1346 801 1346 Q700 1346 606.5 1311.5 Q513 1277 434 1210 Q330 1122 270.5 995 Q211 868 211 735 ZM61 737 Q61 889 119.5 1027 Q178 1165 289 1274 Q396 1379 524.5 1432 Q653 1485 803 1485 Q956 1485 1086.5 1431.5 Q1217 1378 1325 1272 Q1436 1163 1492 1028 Q1548 893 1548 737 Q1548 582 1500 452.5 Q1452 323 1356 217 Q1245 95 1105 33 Q965 -29 801 -29 Q487 -29 274 191.5 Q61 412 61 737 Z" /><glyph glyph-name="P" unicode="p" d="M262 1313 L262 758 L473 758 Q649 758 733 825 Q817 892 817 1032 Q817 1178 732.5 1245.5 Q648 1313 461 1313 L262 1313 ZM119 1456 L428 1456 Q561 1456 641 1442 Q721 1428 774 1397 Q870 1339 921.5 1246.5 Q973 1154 973 1038 Q973 928 926.5 834.5 Q880 741 797 686 Q739 647 658.5 629.5 Q578 612 453 612 L262 612 L262 0 L119 0 L119 1456 Z" /><glyph glyph-name="Q" unicode="q" d="M1313 174 Q1358 144 1413.5 130.5 Q1469 117 1546 117 L1565 117 L1565 -10 Q1560 -11 1552 -11 Q1509 -14 1493 -14 Q1424 -14 1346.5 12.5 Q1269 39 1200 88 Q1111 30 1011.5 0.5 Q912 -29 803 -29 Q491 -29 276 191.5 Q61 412 61 737 Q61 889 119.5 1027 Q178 1165 289 1274 Q396 1379 524.5 1432 Q653 1485 803 1485 Q1124 1485 1336 1267 Q1548 1049 1548 713 Q1548 551 1490 418.5 Q1432 286 1313 174 ZM1202 264 Q1299 361 1350 482.5 Q1401 604 1401 739 Q1401 987 1225 1166.5 Q1049 1346 801 1346 Q561 1346 386 1165 Q211 984 211 743 Q211 696 217 649.5 Q223 603 236 555 Q314 592 389 609.5 Q464 627 547 627 Q718 627 862.5 549.5 Q1007 472 1202 264 ZM1085 178 Q901 370 787.5 429.5 Q674 489 532 489 Q475 489 415.5 474 Q356 459 285 426 Q367 276 507.5 191 Q648 106 811 106 Q878 106 945 124 Q1012 142 1085 178 Z" /><glyph glyph-name="R" unicode="r" d="M256 1313 L256 0 L115 0 L115 1456 L506 1456 Q635 1456 713.5 1436.5 Q792 1417 856 1372 Q943 1311 993.5 1209 Q1044 1107 1044 993 Q1044 824 943.5 702 Q843 580 692 569 L1044 0 L874 0 L442 702 L580 702 Q718 702 804.5 783 Q891 864 891 991 Q891 1068 864.5 1131 Q838 1194 786 1241 Q743 1280 682.5 1296.5 Q622 1313 467 1313 L256 1313 Z" /><glyph glyph-name="S" unicode="s" d="M58 416 L196 416 Q200 281 272.5 201 Q345 121 463 121 Q590 121 664.5 200.5 Q739 280 739 416 Q739 614 433 715 Q409 723 397 727 Q237 782 166.5 866.5 Q96 951 96 1087 Q96 1261 204.5 1372 Q313 1483 485 1483 Q649 1483 745 1382 Q841 1281 852 1098 L717 1098 Q706 1217 646 1281.5 Q586 1346 485 1346 Q377 1346 308.5 1275.5 Q240 1205 240 1096 Q240 1039 260.5 997.5 Q281 956 326 922 Q372 888 502 846 Q577 822 616 807 Q758 752 820.5 666.5 Q883 581 883 442 Q883 230 767.5 100.5 Q652 -29 461 -29 Q283 -29 172 93.5 Q61 216 58 416 Z" /><glyph glyph-name="T" unicode="t" d="M446 0 L303 0 L303 1313 L12 1313 L12 1456 L737 1456 L737 1313 L446 1313 L446 0 Z" /><glyph glyph-name="U" unicode="u" d="M113 1456 L256 1456 L256 535 Q256 428 264.5 375 Q273 322 293 281 Q332 198 407.5 151 Q483 104 578 104 Q743 104 822 216.5 Q901 329 901 565 L901 1456 L1042 1456 L1042 530 Q1042 247 929.5 108 Q817 -31 588 -31 Q343 -31 228 105 Q113 241 113 530 L113 1456 Z" /><glyph glyph-name="V" unicode="v" d="M-41 1456 L102 1456 L563 215 L1026 1456 L1169 1456 L621 0 L508 0 L-41 1456 Z" /><glyph glyph-name="W" unicode="w" d="M899 1456 L1192 262 L1556 1456 L1696 1456 L1245 0 L1126 0 L834 1188 L541 0 L422 0 L-31 1456 L111 1456 L473 262 L768 1456 L899 1456 Z" /><glyph glyph-name="X" unicode="x" d="M170 0 L-6 0 L500 733 L6 1456 L184 1456 L584 852 L983 1456 L1159 1456 L666 733 L1171 0 L991 0 L584 618 L170 0 Z" /><glyph glyph-name="Y" unicode="y" d="M557 535 L557 0 L416 0 L416 537 L-49 1456 L115 1456 L487 700 L864 1456 L1024 1456 L557 535 Z" /><glyph glyph-name="Z" unicode="z" d="M719 1313 L80 1313 L80 1456 L885 1456 L885 1319 L203 141 L899 141 L899 0 L39 0 L39 137 L719 1313 Z" /><glyph glyph-name="a" unicode="a" d="M1042 557 Q1042 732 917 862.5 Q792 993 629 993 Q452 993 327.5 862.5 Q203 732 203 539 Q203 355 327 228.5 Q451 102 625 102 Q793 102 917.5 235.5 Q1042 369 1042 557 ZM1042 174 Q976 79 863.5 25 Q751 -29 621 -29 Q379 -29 218 136.5 Q57 302 57 545 Q57 792 221.5 958 Q386 1124 633 1124 Q760 1124 866 1072.5 Q972 1021 1042 924 L1042 1100 L1180 1100 L1180 0 L1042 0 L1042 174 Z" /><glyph glyph-name="b" unicode="b" d="M248 1456 L248 915 Q337 1022 443 1073 Q549 1124 680 1124 Q912 1124 1072.5 957 Q1233 790 1233 551 Q1233 304 1069 137.5 Q905 -29 657 -29 Q535 -29 433.5 19.5 Q332 68 248 166 L248 0 L109 0 L109 1456 L248 1456 ZM248 539 Q248 363 372.5 232.5 Q497 102 659 102 Q836 102 960.5 233 Q1085 364 1085 557 Q1085 740 961 866.5 Q837 993 664 993 Q491 993 369.5 861 Q248 729 248 539 Z" /><glyph glyph-name="c" unicode="c" d="M993 762 Q928 882 834.5 939.5 Q741 997 612 997 Q442 997 323.5 868 Q205 739 205 549 Q205 359 324 231.5 Q443 104 618 104 Q746 104 844 167 Q942 230 993 344 L1149 344 Q1085 165 948 67 Q811 -31 625 -31 Q386 -31 221.5 138.5 Q57 308 57 547 Q57 791 223.5 960.5 Q390 1130 629 1130 Q808 1130 944.5 1033.5 Q1081 937 1149 762 L993 762 Z" /><glyph glyph-name="d" unicode="d" d="M1042 539 Q1042 727 917.5 860 Q793 993 625 993 Q451 993 327 866.5 Q203 740 203 557 Q203 364 327.5 233 Q452 102 629 102 Q792 102 917 233 Q1042 364 1042 539 ZM1038 926 L1038 1456 L1180 1456 L1180 0 L1038 0 L1038 166 Q964 74 854 22.5 Q744 -29 621 -29 Q383 -29 220 139 Q57 307 57 551 Q57 793 218 958.5 Q379 1124 621 1124 Q751 1124 857.5 1073.5 Q964 1023 1038 926 Z" /><glyph glyph-name="e" unicode="e" d="M1192 506 L199 506 Q212 326 329 215 Q446 104 621 104 Q745 104 844 168.5 Q943 233 997 348 L1157 348 Q1081 165 943.5 67 Q806 -31 625 -31 Q385 -31 219 140 Q53 311 53 551 Q53 802 215.5 966 Q378 1130 631 1130 Q879 1130 1035.5 959.5 Q1192 789 1192 516 L1192 506 ZM1036 625 Q996 810 889 903.5 Q782 997 610 997 Q450 997 339 896.5 Q228 796 203 625 L1036 625 Z" /><glyph glyph-name="f" unicode="f" d="M309 0 L172 0 L172 977 L25 977 L25 1100 L166 1100 L166 1130 Q166 1305 254.5 1389 Q343 1473 526 1473 L539 1473 L539 1346 Q412 1344 359.5 1295.5 Q307 1247 307 1130 L307 1100 L539 1100 L539 977 L309 977 L309 0 Z" /><glyph glyph-name="g" unicode="g" d="M301 -90 Q333 -186 417 -239.5 Q501 -293 621 -293 Q809 -293 922.5 -168 Q1036 -43 1036 166 L1036 195 Q956 86 854 30.5 Q752 -25 629 -25 Q381 -25 217 140.5 Q53 306 53 553 Q53 796 215 961 Q377 1126 616 1126 Q755 1126 856.5 1076 Q958 1026 1036 920 L1036 1100 L1174 1100 L1174 182 Q1174 -106 1029.5 -268 Q885 -430 631 -430 Q444 -430 310 -337.5 Q176 -245 137 -90 L301 -90 ZM203 559 Q203 366 325.5 236 Q448 106 621 106 Q784 106 909 236.5 Q1034 367 1034 543 Q1034 731 911 864 Q788 997 621 997 Q449 997 326 870.5 Q203 744 203 559 Z" /><glyph glyph-name="h" unicode="h" d="M111 1456 L250 1456 L250 971 Q311 1046 396.5 1084 Q482 1122 588 1122 Q820 1122 926 989.5 Q1032 857 1032 559 L1032 0 L893 0 L893 561 Q893 800 821 893.5 Q749 987 580 987 Q484 987 411.5 948.5 Q339 910 297 838 Q271 793 260.5 735.5 Q250 678 250 535 L250 0 L111 0 L111 1456 Z" /><glyph glyph-name="i" unicode="i" d="M256 1229 L115 1229 L115 1456 L256 1456 L256 1229 ZM115 0 L115 1100 L256 1100 L256 0 L115 0 Z" /><glyph glyph-name="j" unicode="j" d="M256 1229 L115 1229 L115 1456 L256 1456 L256 1229 ZM256 1100 L256 -4 Q256 -204 200.5 -279 Q145 -354 10 -354 L-20 -354 L-20 -223 Q59 -223 87 -193.5 Q115 -164 115 -25 L115 1100 L256 1100 Z" /><glyph glyph-name="k" unicode="k" d="M256 0 L115 0 L115 1456 L256 1456 L256 590 L653 1100 L815 1100 L416 590 L901 0 L723 0 L256 573 L256 0 Z" /><glyph glyph-name="l" unicode="l" d="M115 0 L115 1456 L256 1456 L256 0 L115 0 Z" /><glyph glyph-name="m" unicode="m" d="M977 928 Q1044 1023 1143.5 1072.5 Q1243 1122 1366 1122 Q1590 1122 1692 987.5 Q1794 853 1794 555 L1794 0 L1659 0 L1659 584 Q1659 802 1587 894.5 Q1515 987 1352 987 Q1258 987 1186.5 948.5 Q1115 910 1073 838 Q1048 793 1037 735.5 Q1026 678 1026 535 L1026 0 L893 0 L893 616 Q893 806 816 896.5 Q739 987 580 987 Q484 987 411.5 948.5 Q339 910 297 838 Q271 793 260.5 735.5 Q250 678 250 535 L250 0 L111 0 L111 1100 L250 1100 L250 975 Q313 1048 398.5 1085 Q484 1122 592 1122 Q717 1122 820 1069.5 Q923 1017 977 928 Z" /><glyph glyph-name="n" unicode="n" d="M113 1100 L250 1100 L250 975 Q315 1050 400.5 1086 Q486 1122 596 1122 Q717 1122 811.5 1077 Q906 1032 961 948 Q999 889 1015.5 809.5 Q1032 730 1032 575 L1032 0 L893 0 L893 616 Q893 811 818.5 899 Q744 987 580 987 Q484 987 411.5 948.5 Q339 910 297 838 Q271 793 260.5 735.5 Q250 678 250 535 L250 0 L113 0 L113 1100 Z" /><glyph glyph-name="o" unicode="o" d="M201 551 Q201 361 322 232.5 Q443 104 623 104 Q800 104 920 232.5 Q1040 361 1040 553 Q1040 748 918.5 873.5 Q797 999 610 999 Q442 999 321.5 870 Q201 741 201 551 ZM53 549 Q53 791 219 963 Q385 1135 612 1135 Q851 1135 1019.5 966 Q1188 797 1188 563 Q1188 317 1023 143 Q858 -31 623 -31 Q384 -31 218.5 139.5 Q53 310 53 549 Z" /><glyph glyph-name="p" unicode="p" d="M109 1100 L248 1100 L248 920 Q308 1013 419.5 1068.5 Q531 1124 657 1124 Q906 1124 1069.5 958.5 Q1233 793 1233 545 Q1233 303 1071.5 137 Q910 -29 668 -29 Q534 -29 426.5 23 Q319 75 248 174 L248 -356 L109 -356 L109 1100 ZM248 557 Q248 369 372 235.5 Q496 102 664 102 Q837 102 961 228.5 Q1085 355 1085 539 Q1085 732 960.5 862.5 Q836 993 659 993 Q496 993 372 862 Q248 731 248 557 Z" /><glyph glyph-name="q" unicode="q" d="M1038 1100 L1180 1100 L1180 -356 L1038 -356 L1038 166 Q968 73 859 22 Q750 -29 621 -29 Q379 -29 218 136.5 Q57 302 57 545 Q57 792 221.5 958 Q386 1124 633 1124 Q758 1124 862.5 1072.5 Q967 1021 1038 924 L1038 1100 ZM1042 557 Q1042 732 917 862.5 Q792 993 629 993 Q452 993 327.5 862.5 Q203 732 203 539 Q203 355 327 228.5 Q451 102 625 102 Q793 102 917.5 235.5 Q1042 369 1042 557 Z" /><glyph glyph-name="r" unicode="r" d="M254 0 L111 0 L111 1100 L244 1100 L244 973 Q296 1046 357.5 1080 Q419 1114 501 1116 L502 963 Q369 951 311.5 883.5 Q254 816 254 664 L254 0 Z" /><glyph glyph-name="s" unicode="s" d="M43 346 L188 346 L188 342 Q188 239 247 171.5 Q306 104 393 104 Q476 104 531 156 Q586 208 586 287 Q586 366 542.5 414 Q499 462 385 504 Q202 569 146 637 Q90 705 90 819 Q90 948 183.5 1038 Q277 1128 410 1128 Q551 1128 634 1048 Q717 968 723 825 L572 825 Q567 903 522.5 946 Q478 989 401 989 Q332 989 286 942.5 Q240 896 240 827 Q240 778 259 744.5 Q278 711 322 684 Q362 659 438.5 636 Q515 613 541 602 Q644 558 692.5 485 Q741 412 741 299 Q741 157 642 64 Q543 -29 391 -29 Q236 -29 142 72.5 Q48 174 43 346 Z" /><glyph glyph-name="t" unicode="t" d="M209 0 L209 958 L0 958 L0 1100 L209 1100 L209 1456 L350 1456 L350 1100 L559 1100 L559 958 L350 958 L350 0 L209 0 Z" /><glyph glyph-name="u" unicode="u" d="M109 1100 L248 1100 L248 516 Q248 291 321 197.5 Q394 104 561 104 Q656 104 728 142.5 Q800 181 844 254 Q869 297 880 355.5 Q891 414 891 559 L891 1100 L1032 1100 L1032 0 L891 0 L891 119 Q827 41 748 6 Q669 -29 557 -29 Q319 -29 214 99.5 Q109 228 109 526 L109 1100 Z" /><glyph glyph-name="v" unicode="v" d="M543 0 L414 0 L-16 1100 L133 1100 L485 213 L840 1100 L993 1100 L543 0 Z" /><glyph glyph-name="w" unicode="w" d="M1016 276 L1282 1100 L1432 1100 L1061 0 L969 0 L711 838 L457 0 L365 0 L-6 1100 L141 1100 L410 276 L662 1100 L764 1100 L1016 276 Z" /><glyph glyph-name="x" unicode="x" d="M172 1100 L428 684 L702 1100 L864 1100 L508 573 L862 0 L702 0 L420 459 L125 0 L-31 0 L342 571 L14 1100 L172 1100 Z" /><glyph glyph-name="y" unicode="y" d="M-33 1100 L129 1100 L469 207 L825 1100 L989 1100 L395 -356 L244 -356 L391 2 L-33 1100 Z" /><glyph glyph-name="z" unicode="z" d="M780 0 L20 0 L20 133 L594 967 L84 967 L84 1100 L750 1100 L750 948 L188 141 L780 141 L780 0 Z" /></font>
</defs>
</svg>
