<?xml version="1.0" encoding="utf-8"?>
<!-- Generator: Adobe Illustrator 19.0.0, SVG Export Plug-In . SVG Version: 6.00 Build 0)  -->
<svg version="1.1" id="图层_1" xmlns="http://www.w3.org/2000/svg" xmlns:xlink="http://www.w3.org/1999/xlink" x="0px" y="0px"
	 viewBox="86 69.5 202.4 63.5" style="enable-background:new 86 69.5 202.4 63.5;" xml:space="preserve">
<style type="text/css">
	.st0{fill:#FFFFFF;}
</style>
<g>
	<path id="XMLID_92_" class="st0" d="M287.8,96.1h-11.3c-0.3,0-0.7-0.3-0.7-0.6v-25c0-0.3-0.2-0.3-0.5-0.3h-4.7
		c-0.3,0-0.9,0-0.9,0.3v25c0,0.3,0,0.6-0.3,0.6h-11.3c-0.3,0-0.4,0.2-0.4,0.5v4.7c0,0.3,0,0.8,0.4,0.8h11.3c0.3,0,0.3,0,0.3,0.4v30
		c0,0.3,0.5,0.7,0.9,0.7h4.7c0.3,0,0.5-0.4,0.5-0.7v-30c0-0.3,0.4-0.4,0.7-0.4h11.3c0.3,0,1-0.5,1-0.8v-4.7
		C288.8,96.3,288.1,96.1,287.8,96.1z"/>
	<path id="XMLID_91_" class="st0" d="M228.4,102.1h18.4c0.3,0,1,0,1,0.4V126c0,0.3-0.7,0.1-1,0.1h-12.5c-0.3,0-0.4,0.2-0.4-0.1
		v-12.2c0-0.3,0.1-0.8,0.4-0.8h8.2c0.3,0,0.4-0.1,0.4-0.4v-4.7c0-0.3,0-0.9-0.4-0.9h-14c-0.3,0-0.6,0.6-0.6,0.9v23.8
		c0,0.3,0.3,0.3,0.6,0.3h24.2c0.3,0,0.2,0,0.2-0.3V96.6c0-0.3,0.1-0.5-0.2-0.5h-24.2c-0.3,0-0.6,0.2-0.6,0.5v4.7
		C227.8,101.6,228,102.1,228.4,102.1z"/>
	<path id="XMLID_90_" class="st0" d="M252.8,85.6c0-0.3-0.3-0.6-0.6-0.6h-23.8c-0.3,0-0.6,0.3-0.6,0.6v4.9c0,0.3,0.3,0.6,0.6,0.6
		h23.8c0.3,0,0.6-0.3,0.6-0.6V85.6z"/>
	<path id="XMLID_89_" class="st0" d="M242.8,69.1h-4.7c-0.3,0-0.4,0.7-0.4,1v3.4c0,0.3-0.5,0.5-0.8,0.5h-8.8c-0.3,0-0.4,0.3-0.4,0.6
		v4.7c0,0.3,0,0.7,0.4,0.7h9.4h5.8h9.4c0.3,0,1-0.4,1-0.7v-4.6c0-0.3-0.6-0.6-1-0.6h-8.8c-0.3,0-0.2-0.2-0.2-0.5v-3.5
		C243.8,69.8,243.1,69.1,242.8,69.1z"/>
	<path id="XMLID_88_" class="st0" d="M86.8,77.1h15.3c0.5,0,0.8,0.3,0.5,0.7L86,97.3c0,0.1-0.2,0.1-0.2,0.2v4.3
		c0,0.3,0.6,0.3,0.9,0.3h27.6c0.3,0,0.5,0.1,0.5-0.3V89.4c0-0.3-0.1-0.3-0.5-0.3h-4.7c-0.3,0-0.9,0-0.9,0.3V96c0,0.3,0,0.1-0.3,0.1
		H95.5c-0.5,0-0.8-0.3-0.5-0.7l15.7-18.5c0.1-0.1,0.3,0.2,0.5,0.2h4.2c0.3,0,0.4-0.8,0.4-1.1v-4.7c0-0.3,0-0.3-0.4-0.3H86.8
		c-0.3,0-1-0.1-1,0.3V76C85.8,76.3,86.5,77.1,86.8,77.1z"/>
	<path id="XMLID_87_" class="st0" d="M103.2,106.1h-4.7c-0.3,0-0.8-0.2-0.8,0.1v3.7c0,0.3,0,0.2-0.4,0.2H86.6
		c-0.3,0-0.8,0.6-0.8,0.9v4.7c0,0.3,0.5,0.4,0.8,0.4h10.8c0.3,0,0.4,0.4,0.4,0.8v9.1c0,0.3,0,0.1-0.4,0.1H86.6
		c-0.3,0-0.8,0.7-0.8,1.1v4.7c0,0.3,0.5,0.3,0.8,0.3H98h5.8h11.4c0.3,0,0.6,0,0.6-0.3v-4.7c0-0.3-0.2-1.1-0.6-1.1h-10.8
		c-0.3,0-0.6,0.2-0.6-0.1v-9.1c0-0.3,0.3-0.8,0.6-0.8h10.8c0.3,0,0.6-0.1,0.6-0.4V111c0-0.3-0.2-0.9-0.6-0.9h-10.8
		c-0.3,0-0.6,0.1-0.6-0.2v-3.7C103.8,105.8,103.5,106.1,103.2,106.1z"/>
	<path id="XMLID_86_" class="st0" d="M142.8,101.9V84.5c0-0.3,0.3-0.4,0.6-0.4h2c0.3,0,0.4-0.3,0.4-0.7v-4.7c0-0.3-0.2-0.7-0.5-0.7
		h-19.6c-0.3,0-1-0.2-1-0.5v-7.4c0-0.3,0.1-1-0.2-1h-4.7c-0.3,0-0.1,0.7-0.1,1v13.3c0,0.3-0.2,0.7,0.1,0.7h16.5
		c0.3,0,0.4,0.2,0.4,0.5v15.8c0,0.1,0.1,0.2,0,0.3l-4.7,8.2c-0.2,0.4-0.7,0.4-1,0l-6-8.4c-0.1-0.1-0.3-0.2-0.3-0.3V89.4
		c0-0.3,0.1-0.3-0.2-0.3h-4.7c-0.3,0-0.1,0-0.1,0.3V102c0,0.1-0.2,0.2-0.1,0.3l8.8,12.6c0.1,0.2,0.1,0.4,0,0.6l-9.5,16.6
		c-0.2,0.4,0,1,0.5,1h5.4c0.2,0,0.4-0.2,0.5-0.4l6.5-11.4c0.2-0.4,0.7-0.4,1-0.1l8.1,11.5c0.1,0.2,0.3,0.3,0.5,0.3h5.6
		c0.5,0,0.8-0.6,0.5-1l-11.9-16.8c-0.1-0.2-0.1-0.5,0-0.7l7.1-12.4C142.8,102.1,142.8,102,142.8,101.9z"/>
	<path id="XMLID_85_" class="st0" d="M157.1,102.1h18.4c0.3,0,0.3,0,0.3,0.4V126c0,0.3,0,0.1-0.3,0.1h-12.6c-0.3,0-0.1,0.2-0.1-0.1
		v-12.2c0-0.3-0.2-0.8,0.1-0.8h8.2c0.3,0,0.7-0.1,0.7-0.4v-4.7c0-0.3-0.3-0.9-0.7-0.9h-14c-0.3,0-0.3,0.6-0.3,0.9v23.8
		c0,0.3,0,0.3,0.3,0.3h24.2c0.3,0,0.5,0,0.5-0.3V96.6c0-0.3-0.2-0.5-0.5-0.5h-24.2c-0.3,0-0.3,0.2-0.3,0.5v4.7
		C156.8,101.6,156.7,102.1,157.1,102.1z"/>
	<path id="XMLID_84_" class="st0" d="M181.8,85.6c0-0.3-0.3-0.6-0.6-0.6h-23.9c-0.3,0-0.6,0.3-0.6,0.6v4.9c0,0.3,0.3,0.6,0.6,0.6
		h23.8c0.3,0,0.6-0.3,0.6-0.6L181.8,85.6L181.8,85.6z"/>
	<path id="XMLID_83_" class="st0" d="M192.3,77.1h17.4c0.3,0,1-0.2,1,0.1v13.1c0,0.3-0.2,0.8,0.2,0.8h4.7c0.3,0,0.2-0.5,0.2-0.8v-19
		c0-0.3,0.1-0.3-0.2-0.3h-29.1c-0.3,0-0.8-0.1-0.8,0.3V90c0,0.3,0.4,1,0.8,1h4.7c0.3,0,0.6-0.7,0.6-1V77.2
		C191.8,76.8,192,77.1,192.3,77.1z"/>
	<path id="XMLID_82_" class="st0" d="M171.5,69.1h-4.7c-0.3,0-1.1,0.7-1.1,1v3.4c0,0.3,0.2,0.5-0.1,0.5h-8.8c-0.3,0-1.1,0.3-1.1,0.6
		v4.7c0,0.3,0.7,0.7,1.1,0.7h9.4h5.8h9.4c0.3,0,0.3-0.4,0.3-0.7v-4.6c0-0.3,0.1-0.6-0.3-0.6h-8.8c-0.3,0-0.9-0.2-0.9-0.5v-3.5
		C171.8,69.8,171.8,69.1,171.5,69.1z"/>
	<path id="XMLID_81_" class="st0" d="M215.8,111.4V96.6c0-0.3,0.1-0.5-0.2-0.5h-29.1c-0.3,0-0.8,0.2-0.8,0.5v14.8
		c0,0.2,0.2,0.3,0.3,0.4l10.1,8.8c0.3,0.2,0.3,0.6,0,0.9l-11.6,10.4c-0.4,0.4-0.1,1.1,0.4,1.1h7c0.1,0,0.3-0.2,0.4-0.3l8.4-7.4
		c0.2-0.2,0.6-0.2,0.8,0l8.4,7.5c0.1,0.1,0.2,0.2,0.4,0.2h7c0.5,0,0.8-0.8,0.4-1.1L206,121.6c-0.3-0.2-0.3-0.7,0-0.9l9.8-8.8
		C215.9,111.7,215.8,111.6,215.8,111.4z M191.8,108.8v-6.3c0-0.3,0.3-0.4,0.6-0.4h17.4c0.3,0,1,0,1,0.4v6.3c0,0.2-0.3,0.3-0.4,0.4
		l-8.8,7.7c-0.2,0.2-0.6,0.2-0.8,0l-8.7-7.7C191.8,109.1,191.8,108.9,191.8,108.8z"/>
</g>
</svg>
