<?xml version="1.0" encoding="utf-8"?>
<!-- Generator: Adobe Illustrator 22.0.0, SVG Export Plug-In . SVG Version: 6.00 Build 0)  -->
<svg version="1.1" id="图层_1" xmlns="http://www.w3.org/2000/svg" xmlns:xlink="http://www.w3.org/1999/xlink" x="0px" y="0px"
	 viewBox="0 0 143 30" style="enable-background:new 0 0 143 30;" xml:space="preserve">
<style type="text/css">
	.st0{fill:#323333;}
	.st1{fill:#F08619;}
</style>
<path class="st0" d="M140.8,23.3h-7.3v-1.5h5.7c0.6,0,1.1-0.5,1.1-1.1s-0.5-1.1-1.1-1.1h-5.7v-0.7c0-0.6-0.5-1.1-1.1-1.1
	c-0.6,0-1.1,0.5-1.1,1.1v0.7h-5.9c-0.6,0-1.1,0.5-1.1,1.1s0.5,1.1,1.1,1.1h5.9v1.5h-7.7c-0.6,0-1.1,0.5-1.1,1.1s0.5,1.1,1.1,1.1
	h17.2c0.6,0,1.1-0.5,1.1-1.1S141.4,23.3,140.8,23.3z"/>
<path class="st0" d="M62,20.9l-1.1,0.6V9.5h1.6c0.6,0,1.1-0.5,1.1-1.1c0-0.6-0.5-1.1-1.1-1.1h-2.6c0,0,0,0,0,0c0,0,0,0,0,0h-2.6
	c-0.6,0-1.1,0.5-1.1,1.1c0,0.6,0.5,1.1,1.1,1.1h1.6v13l-2.1,1.1c-0.5,0.3-0.7,0.9-0.5,1.5c0.2,0.4,0.6,0.6,0.9,0.6
	c0.2,0,0.3,0,0.5-0.1l5.3-2.8c0.5-0.3,0.7-0.9,0.5-1.5C63.2,20.8,62.5,20.6,62,20.9z"/>
<path class="st1" d="M27.6,7.9c1.9,0,3.6,0.7,4.9,2c1.3,1.4,2,3,2,4.9c0,1.2,0.4,2.1,1.1,2.8c0.7,0.7,1.7,1.1,2.8,1.1
	c1.2,0,2.1-0.4,2.8-1.1c0.7-0.7,1.1-1.7,1.1-2.8c0-4.2-1.4-7.7-4.2-10.5c-2.8-2.8-6.3-4.2-10.5-4.2s-7.7,1.4-10.5,4.3
	c-2.3,2.3-3.7,5.1-4.1,8.4c-1.1-0.5-2.4-0.8-3.7-0.8c-4.9,0-8.9,4-8.9,8.9s4,8.9,8.9,8.9c3.2,0,6.1-1.8,7.6-4.4
	c0.1,0.1,0.1,0.1,0.2,0.2c2.9,2.9,6.4,4.4,10.5,4.4h4.6c1.2,0,2.1-0.4,2.8-1.1C35.7,28,36,27,36,25.9c0-1.2-0.4-2-1.1-2.7
	c-0.7-0.7-1.6-0.9-2.8-0.9h-4.6c-1.9,0-3.6-0.9-4.9-2.3c-1.4-1.4-2.1-3.3-2.1-5.2s0.7-3.6,2.1-4.9C24,8.5,25.7,7.9,27.6,7.9z
	 M9.3,25.2c-2.4,0-4.4-2-4.4-4.4s2-4.4,4.4-4.4c1.8,0,3.4,1.1,4.1,2.7c0.1,0.3,0.2,0.6,0.3,0.9c0.1,0.3,0.1,0.6,0.1,0.9
	C13.7,23.2,11.7,25.2,9.3,25.2z"/>
<path class="st1" d="M44.1,20.8c-1.2,0-2.3,0.4-3.2,1.3c-0.9,0.9-1.3,2-1.3,3.2c0,1.3,0.4,2.4,1.3,3.3c0.9,0.9,1.9,1.3,3.2,1.3
	c1.3,0,2.3-0.4,3.2-1.3c0.9-0.9,1.3-2,1.3-3.3c0-1.3-0.4-2.3-1.3-3.2C46.4,21.3,45.3,20.8,44.1,20.8z"/>
<path class="st0" d="M101.7,9.2c1,0,1.7-0.8,1.7-1.8c0-1-0.8-1.8-1.7-1.8c-1,0-1.7,0.8-1.7,1.8C100,8.5,100.8,9.2,101.7,9.2z"/>
<path class="st0" d="M126.2,17.5h12.1c1,0,1.7-0.8,1.7-1.7v-3.6c0-1-0.8-1.7-1.7-1.7h-12.1c-1,0-1.7,0.8-1.7,1.7v3.6
	C124.4,16.7,125.2,17.5,126.2,17.5z M126.6,13.4c0-0.5,0.4-0.9,0.9-0.9h9.6c0.5,0,0.9,0.4,0.9,0.9v1.1c0,0.5-0.4,0.9-0.9,0.9h-9.6
	c-0.5,0-0.9-0.4-0.9-0.9V13.4z"/>
<path class="st0" d="M74.2,14.8l-5.5,0c-0.5,0-0.8-0.5-0.6-0.9l2.5-5.6h4.3c0.5,0,1-0.3,1.1-0.9c0.1-0.7-0.4-1.3-1-1.3h-9.7
	c-0.5,0-1,0.3-1.1,0.9c-0.1,0.7,0.4,1.3,1,1.3h3.1l-0.1,0.3l-2.8,5.8c-0.6,1.2,0.3,2.5,1.6,2.5l6.1,0c0.5,0,0.9,0.4,0.9,0.9V23
	c0,0.3-0.2,0.5-0.5,0.5h-6.2c-0.1,0-0.1,0-0.1-0.1c0-0.6-0.6-1.1-1.2-1.1c-0.6,0.1-1,0.6-0.9,1.2v0.4c0,1,0.8,1.7,1.7,1.7h7.6
	c1,0,1.7-0.8,1.7-1.7v-7.4C75.9,15.5,75.1,14.8,74.2,14.8z"/>
<path class="st0" d="M139.7,6.9l-0.5,0l0.3-0.8c0.2-0.6-0.1-1.2-0.6-1.4c-0.6-0.2-1.2,0.1-1.4,0.7l-0.5,1.5l-3.7,0V5
	c0-0.5-0.3-1-0.8-1.1C131.7,3.8,131,4.3,131,5v1.9l-3.5,0l-0.5-1.5c-0.2-0.5-0.6-0.8-1.1-0.8c-0.7,0.1-1.1,0.8-0.9,1.4l0.3,0.9
	l-0.2,0c-1.6,0-2.8,1-2.9,2.5c0,0.6,0.3,1.1,0.9,1.2c0.7,0.1,1.2-0.4,1.2-1.1c0-0.3,0.2-0.5,0.4-0.5l7.5,0l7.7,0
	c0.2,0,0.4,0.2,0.4,0.5v0c0,0.4,0.2,0.8,0.6,1c0.8,0.3,1.5-0.2,1.5-1C142.6,8,141.3,6.9,139.7,6.9z"/>
<path class="st0" d="M117.1,5.7h-3c-0.6,0-1.1,0.2-1.5,0.5c-0.4-0.3-0.9-0.5-1.5-0.5h-2.9c-1.4,0-2.6,1.2-2.6,2.6l0,5.6
	c0,0.7,0.3,1.4,0.7,1.8c0.5,0.5,1.1,0.8,1.8,0.8c0,0,0,0,0.1,0c0,0,0,0,0.1,0h2.9c0.3,0,0.4,0.1,0.4,0.1c0,0,0,0,0,0.1v1h-5.1
	c-0.6,0-1.1,0.5-1.1,1.1c0,0.6,0.5,1.1,1.1,1.1h5.1V25c0,0.6,0.5,1.1,1.1,1.1c0.6,0,1.1-0.5,1.1-1.1v-5.3h4.7c0.6,0,1.1-0.5,1.1-1.1
	c0-0.6-0.5-1.1-1.1-1.1h-4.7v-1c0,0,0,0,0,0c0,0,0,0,0,0c0,0,0.2-0.1,0.4-0.1h3c0,0,0.1,0,0.1,0c1.3-0.1,2.4-1.2,2.4-2.6V8.3
	C119.7,6.9,118.5,5.7,117.1,5.7z M117.5,13.4c0,0.5-0.4,0.9-0.9,0.9l-2.5,0c-0.6,0-1.1,0.1-1.5,0.4c-0.4-0.2-0.9-0.4-1.5-0.4l-2.6,0
	c-0.5,0-0.9-0.4-0.9-0.9l0-4.7c0-0.5,0.4-0.9,0.9-0.9l2.1,0c0.5,0,0.9,0.4,0.9,0.9l0,1.1h-0.6c-0.5,0-1,0.3-1.1,0.9
	c-0.1,0.7,0.4,1.3,1,1.3h0.7l0,0c0,0.6,0.5,1.1,1.1,1.1h0c0.6,0,1.1-0.5,1.1-1.1l0,0h0.6c0.5,0,1-0.3,1.1-0.9c0.1-0.7-0.4-1.3-1-1.3
	h-0.6l0-1.1c0-0.5,0.4-0.9,0.9-0.9l2.1,0c0.5,0,0.9,0.4,0.9,0.9V13.4z"/>
<path class="st0" d="M118.9,23.6c-0.8-0.4-1.4-1.1-1.6-2l0-0.1c-0.1-0.6-0.7-0.9-1.3-0.8c-0.6,0.1-0.9,0.7-0.8,1.3l0,0.1
	c0.4,1.5,1.4,2.8,2.8,3.4c0.1,0.1,0.3,0.1,0.4,0.1c0.4,0,0.8-0.2,1-0.6C119.7,24.5,119.4,23.8,118.9,23.6z"/>
<path class="st0" d="M95.9,5.8H80.8c-1,0-1.7,0.8-1.7,1.7V24c0,1,0.8,1.7,1.7,1.7h14.9c0.5,0,1-0.3,1.1-0.9c0.1-0.7-0.4-1.3-1-1.3
	H82.1c-0.5,0-0.9-0.4-0.9-0.9V8.9c0-0.5,0.4-0.9,0.9-0.9H96c0.7,0,1.2-0.6,1-1.3C96.9,6.2,96.5,5.8,95.9,5.8z"/>
<path class="st0" d="M86.4,12h8.4c0.5,0,1-0.3,1.1-0.9c0.1-0.7-0.4-1.3-1-1.3h-9.7c-1,0-1.7,0.8-1.7,1.7v9.3c0,0.5,0.3,1,0.8,1.1
	c0.7,0.1,1.3-0.4,1.3-1.1V17h7.2c0.3,0,0.5,0.2,0.5,0.5V21c0,0.5,0.3,1,0.8,1.1c0.7,0.1,1.3-0.4,1.3-1.1v-4.4c0-1-0.8-1.7-1.7-1.7
	h-8v-2C85.5,12.4,85.9,12,86.4,12z"/>
<path class="st0" d="M108.5,20.6c-0.5-0.1-1,0.2-1.2,0.7c-0.8,1.9-1.7,2.4-2.8,2.4c0,0-0.3,0-0.5,0c-0.4,0-0.7-0.3-0.7-0.7v-0.2
	l0-8.8c0-0.6-0.1-1.1-0.4-1.6c-0.4-0.8-1-1.4-1.8-1.7l-0.7-0.3c-0.6-0.2-1.3,0.1-1.4,0.8c-0.1,0.5,0.2,1,0.7,1.2l0.7,0.3
	c0.3,0.1,0.5,0.3,0.7,0.6c0.1,0.2,0.1,0.4,0.1,0.7l0,10.7c0,0.7,0.5,1.2,1.2,1.2h1.8c2.4,0,4.2-1.3,5.2-3.8
	C109.6,21.5,109.2,20.8,108.5,20.6z"/>
</svg>
