<?xml version="1.0" encoding="utf-8"?>
<!-- Generator: Adobe Illustrator 19.0.0, SVG Export Plug-In . SVG Version: 6.00 Build 0)  -->
<svg version="1.1" id="图层_1" xmlns="http://www.w3.org/2000/svg" xmlns:xlink="http://www.w3.org/1999/xlink" x="0px" y="0px"
	 viewBox="0 0 19.7 19.7" style="enable-background:new 0 0 19.7 19.7;" xml:space="preserve">
<style type="text/css">
	.st0{fill:#FF6C00;}
	.st1{fill:#FFFFFF;}
</style>
<g id="XMLID_174_">
	<g id="XMLID_47_">
		<g id="XMLID_48_">
			<path id="XMLID_49_" class="st0" d="M19.4,3.4h-3.1v-2h-13v2c-1.8,0-3,0-3,0c0.1,4.7-0.7,7.9,4.5,8.8c0.9,1,2.2,1.8,3.5,2.1v2.1
				h-3v3h9v-3h-3v-2.1c1.4-0.4,2.7-1.2,3.6-2.2C19.4,10.9,19.4,7.5,19.4,3.4z M2.3,7.4v-2h1v3c0,0.3,0,0.7,0.1,1
				C2.5,8.5,2.3,7.4,2.3,7.4z M17.3,7.4c-0.1,1-0.5,1.7-1.1,2.2c0.1-0.5,0.1-0.9,0.1-1.2v-3h1V7.4z"/>
		</g>
	</g>
</g>
<path id="XMLID_159_" class="st1" d="M9.9,3L8.3,5.3L5.8,6.1l1.6,2.2v2.8l2.5-0.9l2.5,0.9V8.3L14,6.1l-2.5-0.8L9.9,3z"/>
</svg>
