<?xml version="1.0" standalone="no"?>
<!DOCTYPE svg PUBLIC "-//W3C//DTD SVG 1.1//EN" "http://www.w3.org/Graphics/SVG/1.1/DTD/svg11.dtd" >
<!--
2013-9-30: Created.
-->
<svg>
<metadata>
Created by iconfont
</metadata>
<defs>

<font id="qjfont" horiz-adv-x="1024" >
  <font-face
    font-family="qjfont"
    font-weight="500"
    font-stretch="normal"
    units-per-em="1024"
    ascent="896"
    descent="-128"
  />
    <missing-glyph />
    
    <glyph glyph-name="guanbi" unicode="&#58938;" d="M658.83339959 164.4599458l-149.48414147 149.48414146-149.48281714-149.48414146-70.05723705 70.05856267 149.48281715 149.48281714-149.48281715 149.48414146 70.05723705 70.05723705 149.48281714-149.48281715 149.48414147 149.48281715 70.05723705-70.05723705-149.48414146-149.48414146 149.48414146-149.48281714L658.83339959 164.4599458zM859.63941891 734.29016079c-192.6590589 192.6590589-507.91993965 192.6590589-700.57899855 0s-192.6590589-507.91861404 0-700.57767295 507.91993965-192.6590589 700.57899855 0C1052.2984778 226.37022243 1052.2984778 541.6311018900001 859.63941891 734.29016079z"  horiz-adv-x="1024" />

    
    <glyph glyph-name="qian" unicode="&#58891;" d="M604.16 604.1600000000001L512 471.04 419.84 604.1600000000001H363.52l133.12-179.2H373.76l5.12-40.96h117.76v-76.8H373.76v-40.96h122.88v-102.4h35.84v102.4h117.76v40.96h-117.76V384h117.76v40.96h-117.76L665.6 604.1600000000001zM512 864C248 864 32 648 32 384s216-480 480-480 480 216 480 480S776 864 512 864z m0-931.2C262.4-67.20000000000005 60.8 134.39999999999998 60.8 384S262.4 835.2 512 835.2s451.2-201.6 451.2-451.2-201.6-451.2-451.2-451.2z"  horiz-adv-x="1025" />

    
    <glyph glyph-name="weixin" unicode="&#58892;" d="M708.36363594 501.81818156c-159.27272719 0-285.81818156-109.09090875-285.81818157-242.1818175s124.36363594-242.18181844 285.81818157-242.18181843c30.54545437 0 63.27272719 6.54545437 93.8181825 15.27272718 4.36363594 0 8.72727281 0 10.90909031-2.18181844l52.36363687-28.36363593c13.09090875-6.54545437 28.36363594 4.36363594 24 19.63636312l-10.90909125 34.90909125c-2.18181844 6.54545437 0 13.09090875 6.54545438 17.45454563 63.27272719 50.18181844 109.09090875 113.45454562 109.09090969 185.45454562-2.18181844 133.09090875-135.27272719 242.18181844-285.8181825 242.1818175z m-93.81818157-200.72727281c-17.45454563 0-32.72727281 17.45454563-32.72727281 32.72727281 0 17.45454563 17.45454563 32.72727281 32.72727281 32.72727281 26.18181844 0 41.45454563-17.45454563 41.45454563-32.72727281 2.18181844-17.45454563-15.27272719-32.72727281-41.45454563-32.72727281z m185.45454563 0c-17.45454563 0-32.72727281 17.45454563-32.72727281 32.72727281 0 17.45454563 17.45454563 32.72727281 32.72727281 32.72727281 26.18181844 0 41.45454563-17.45454563 41.45454562-32.72727281 0-17.45454563-17.45454563-32.72727281-41.45454562-32.72727281zM680 530.1818184399999c10.90909125 0 21.81818156 0 32.72727281-2.18181844-30.54545437 137.45454562-174.54545437 240-342.54545437 240-187.63636406 0-338.18181844-126.54545438-338.18181844-288v-6.54545437c0-85.09090875 43.63636406-157.09090875 117.81818156-213.81818157 10.90909125-6.54545437 13.09090875-19.63636406 8.72727281-32.72727281l-24-72c-2.18181844-4.36363594 2.18181844-8.72727281 6.54545438-6.54545531l96 48c6.54545437 4.36363594 15.27272719 4.36363594 24 2.18181843 37.09090875-6.54545437 69.81818156-15.27272719 106.90909125-15.27272718 10.90909125 0 21.81818156 0 32.72727281 2.18181843-6.54545437 21.81818156-10.90909125 48-10.90909125 72.00000001 0 152.72727281 128.72727281 272.72727281 290.18181844 272.72727281z m-423.27272719 8.72727281c-26.18181844 0-52.36363594 17.45454563-52.36363687 43.63636313s26.18181844 43.63636406 52.36363687 43.63636406 43.63636406-17.45454563 43.63636313-43.63636406-17.45454563-43.63636406-43.63636313-43.63636313z m187.63636313 41.45454469c0 26.18181844 26.18181844 43.63636406 52.36363687 43.63636406s43.63636406-17.45454563 43.63636313-43.63636406-17.45454563-43.63636406-43.63636313-43.63636313c-26.18181844 2.18181844-52.36363594 17.45454563-52.36363687 43.63636313z"  horiz-adv-x="1026" />

    
    <glyph glyph-name="shouji" unicode="&#58880;" d="M890.0923072 888.12307733H133.9076928c-33.6082048 0-58.81435947-25.2061536-58.81435947-58.81435946v-882.21538454c0-33.6082048 25.2061536-58.81435947 58.81435947-58.81435946h756.1846144c33.6082048 0 58.81435947 25.2061536 58.81435947 58.81435946V820.90666667c8.4020512 42.010256-25.2061536 67.21641067-58.81435947 67.21641066zM579.21641067 39.51589760000002H453.18564053V165.54666667000004h126.03077014v-126.03076907z m184.84512746 310.8758976c0-33.6082048-25.2061536-58.81435947-58.8143584-58.81435947H327.15487147c-33.6082048 0-58.81435947 25.2061536-58.8143584 58.81435947V669.669744c0 33.6082048 25.2061536 58.81435947 58.8143584 58.8143584h378.09230826c33.6082048 0 58.81435947-25.2061536 58.8143584-58.8143584v-319.2779488z"  horiz-adv-x="1024" />

    
    <glyph glyph-name="app" unicode="&#58903;" d="M806.365123 586.288828h-27.901908v147.880109s2.790191 66.964578-69.754768 66.964578h-390.626703c-39.06267 0-69.754768-27.901907-69.754769-64.174387v-147.880109h-27.901907c-30.692098 0-55.803815-25.111717-55.803815-55.803815v-223.215258c0-30.692098 25.111717-55.803815 55.803815-55.803815h27.901907v-217.634878c0-39.06267 33.482289-69.754768 75.33515-69.754768H697.547684c44.643052 0 80.915531 33.482289 80.915531 78.125341v209.264305h27.901908c30.692098 0 55.803815 25.111717 55.803814 55.803815v223.215258c-2.790191 27.901907-25.111717 53.013624-55.803814 53.013624zM474.332425 764.861035h78.125341c11.160763 0 19.531335-8.370572 19.531335-19.531335 0-11.160763-8.370572-19.531335-19.531335-19.531335H474.332425c-11.160763 0-19.531335 8.370572-19.531335 19.531335 0 11.160763 8.370572 19.531335 19.531335 19.531335z m-184.152588-100.446866c0 13.950954 11.160763 25.111717 27.901907 25.111717h390.626703c13.950954 0 25.111717-11.160763 25.111716-22.321526v-80.915532H290.179837v78.125341z m220.425068-655.694823c-27.901907 0-50.223433 19.531335-50.223434 47.433243s22.321526 47.433243 50.223434 47.433242 50.223433-19.531335 50.223433-47.433242-22.321526-47.433243-50.223433-47.433243z m223.215258 161.831063c0-13.950954-11.160763-25.111717-27.901907-25.111717h-390.626703c-13.950954 0-25.111717 11.160763-25.111716 22.321526v80.915531h443.640326v-78.12534zM365.514986 365.86375999999996h-55.803814l-11.160763-41.852861h-44.643052l58.594005 186.942779h53.013624l58.594006-186.942779h-47.433243l-11.160763 41.852861z m-8.370572 36.27248l-2.790191 16.741144c-5.580381 19.531335-11.160763 41.852861-13.950953 61.384196-5.580381-19.531335-8.370572-41.852861-13.950954-61.384196l-2.790191-16.741144h33.482289zM454.80109 510.953678h64.174387c41.852861 0 75.33515-13.950954 75.33515-61.384196 0-44.643052-33.482289-64.174387-72.544959-64.174387h-22.321526v-61.384196h-44.643052v186.942779z m64.174387-89.286103c22.321526 0 33.482289 11.160763 33.482289 27.901907 0 19.531335-11.160763 25.111717-33.482289 25.111717h-19.531335v-53.013624h19.531335zM636.163488 510.953678h64.174387c41.852861 0 75.33515-13.950954 75.33515-61.384196 0-44.643052-33.482289-64.174387-72.54496-64.174387h-22.321525v-61.384196h-44.643052v186.942779z m64.174387-89.286103c22.321526 0 33.482289 11.160763 33.482288 27.901907 0 19.531335-11.160763 25.111717-33.482288 25.111717h-19.531335v-53.013624h19.531335z"  horiz-adv-x="1024" />

    
    <glyph glyph-name="fanhuidingbu" unicode="&#58904;" d="M929.740586 210.476987l-389.891214 377.037657c-8.569038 8.569038-21.422594 12.853556-34.27615 12.853557-12.853556 0-25.707113-4.284519-34.276151-12.853557l-381.322176-381.322175c-17.138075-17.138075-17.138075-47.129707 0-64.267783 17.138075-17.138075 47.129707-17.138075 64.267783 0l351.330544 351.330544 355.615063-347.046025c17.138075-17.138075 47.129707-17.138075 64.267782 0 21.422594 17.138075 21.422594 47.129707 4.284519 64.267782z"  horiz-adv-x="1024" />

    
    <glyph glyph-name="xuqiu" unicode="&#58905;" d="M998.292887 416.133891c0 205.656904-205.656904 372.753138-467.012552 372.753138-257.07113 0-467.012552-167.096234-467.012553-372.753138 0-175.665272 154.242678-321.338912 355.615063-359.899581v-107.112971c0-12.853556 21.422594-21.422594 34.276151-12.853557l141.389121 111.39749c227.079498 25.707113 402.74477 179.949791 402.74477 368.468619z m-454.158996 55.698745c29.991632 0 55.698745-21.422594 55.698745-51.414226s-25.707113-51.414226-55.698745-51.414226-55.698745 21.422594-55.698745 51.414226 25.707113 51.414226 55.698745 51.414226z m-162.811715-102.828452c-29.991632 0-55.698745 21.422594-55.698745 51.414226s25.707113 51.414226 55.698745 51.414226c29.991632 0 55.698745-21.422594 55.698745-51.414226s-25.707113-51.414226-55.698745-51.414226z m329.90795 0c-29.991632 0-55.698745 21.422594-55.698745 51.414226s25.707113 51.414226 55.698745 51.414226c29.991632 0 55.698745-21.422594 55.698744-51.414226s-25.707113-51.414226-55.698744-51.414226z"  horiz-adv-x="1024" />

    
    <glyph glyph-name="qqqun" unicode="&#58906;" d="M605.090909 170.666667c31.030303 27.151515 54.30303 62.060606 62.060606 100.848485 23.272727-34.909091 46.545455-54.30303 62.060606-46.545455 23.272727 11.636364 19.393939 77.575758-11.636363 147.393939-23.272727 54.30303-50.424242 93.090909-73.69697 100.848485v11.636364c0 19.393939-3.878788 38.787879-15.515152 54.30303v3.878788c0 7.757576-3.878788 19.393939-7.757575 27.151515-3.878788 139.636364-93.090909 252.121212-236.606061 252.121212-135.757576 0-221.090909-112.484848-228.848485-252.121212-3.878788-7.757576-3.878788-15.515152-3.878788-27.151515v-3.878788c-7.757576-15.515152-15.515152-34.909091-15.515151-54.30303v-11.636364c-23.272727-7.757576-54.30303-46.545455-73.69697-100.848485-27.151515-69.818182-31.030303-131.878788-11.636364-147.393939 15.515152-7.757576 38.787879 11.636364 62.060606 46.545455 7.757576-38.787879 31.030303-73.69697 62.060607-100.848485-34.909091-11.636364-54.30303-34.909091-54.303031-58.181819 0-38.787879 58.181818-69.818182 131.878788-69.818181 65.939394 0 120.242424 27.151515 131.878788 58.181818h15.515152c11.636364-34.909091 65.939394-58.181818 131.878787-58.181818 73.69697 0 131.878788 31.030303 131.878788 69.818181 0 27.151515-23.272727 46.545455-58.181818 58.181819z m0 0M950.30303 306.424242c-19.393939 42.666667-42.666667 73.69697-58.181818 81.454546v7.757576c0 15.515152-3.878788 31.030303-11.636364 42.666666v3.878788c0 7.757576 0 15.515152-3.878787 19.39394-3.878788 112.484848-73.69697 201.69697-190.060606 201.696969-11.636364 0-23.272727 0-34.909091-3.878788 3.878788-15.515152 7.757576-38.787879 7.757575-62.060606 3.878788-7.757576 7.757576-19.393939 7.757576-31.030303v-3.878788c11.636364-19.393939 19.393939-42.666667 19.39394-65.939394v-11.636363c27.151515-11.636364 62.060606-58.181818 89.212121-124.121212 11.636364-23.272727 15.515152-46.545455 23.272727-69.818182 0-3.878788 7.757576-34.909091 0-50.424243s0-7.757576-7.757576-15.515151-15.515152-19.393939-23.272727-23.272727c-7.757576-3.878788-42.666667-11.636364-46.545455-7.757576-3.878788 3.878788-7.757576 3.878788-15.515151 7.757576s-23.272727 15.515152-23.272727 15.515151l-15.515152-23.272727-11.636363-15.515152s27.151515-15.515152 31.030303-23.272727c3.878788-7.757576 7.757576-19.393939 7.757575-27.151515 0-7.757576-3.878788-27.151515-3.878788-27.151515-3.878788-3.878788-3.878788-7.757576 0-7.757576h7.757576c7.757576-27.151515 50.424242-46.545455 104.727273-46.545454 58.181818 0 104.727273 23.272727 104.727273 58.181818 0 19.393939-19.393939 34.909091-42.666667 46.545454 27.151515 23.272727 42.666667 50.424242 50.424242 81.454546 19.393939-27.151515 38.787879-42.666667 50.424243-34.909091 7.757576 3.878788 3.878788 54.30303-15.515152 108.60606z m0 0"  horiz-adv-x="1024" />

    
    <glyph glyph-name="kefu" unicode="&#58907;" d="M985.212121 352.969697c0 85.333333-58.181818 128-116.363636 147.393939-46.545455 166.787879-178.424242 287.030303-337.454546 287.030303s-290.909091-120.242424-337.454545-283.151515c-54.30303-23.272727-100.848485-62.060606-100.848485-143.515151-7.757576-139.636364 151.272727-170.666667 217.212121-178.424243 15.515152 0 31.030303 11.636364 31.030303 27.151515v290.909091c0 15.515152-11.636364 27.151515-27.151515 27.151516-19.393939 0-46.545455-3.878788-73.69697-7.757576 46.545455 135.757576 159.030303 228.848485 290.909091 228.848485 131.878788 0 248.242424-96.969697 290.909091-236.606061-23.272727 3.878788-42.666667 7.757576-58.181818 7.757576-15.515152 0-27.151515-11.636364-27.151515-27.151515v-290.909091c0-15.515152 15.515152-31.030303 31.030303-27.151515 7.757576 0 15.515152 3.878788 27.151515 3.878787-58.181818-100.848485-151.272727-166.787879-259.878788-166.787878-31.030303 0-62.060606 7.757576-93.090909 19.393939-11.636364 3.878788-19.393939 0-23.272727-11.636364s0-19.393939 11.636364-23.272727c34.909091-11.636364 73.69697-19.393939 108.60606-19.393939 135.757576 0 252.121212 85.333333 310.30303 213.333333 62.060606 19.393939 139.636364 62.060606 135.757576 162.909091z"  horiz-adv-x="1024" />

    
    <glyph glyph-name="dianzanmianxing" unicode="&#58914;" d="M907.00416254 571.4596028999999h-200.84957406V712.0543041c0 73.64484404-53.55988598 133.89971562-120.50974444 147.28968807-40.16991482 6.69498558-87.03481521-6.69498558-120.50974445-33.47492923s-53.55988598-66.94985845-53.55988727-113.81475884v-66.94985717c0-33.47492922-53.55988598-66.94985845-93.7298008-66.94985845H170.55572345c-46.86490041-6.69498558-87.03481521-20.08495806-120.50974445-53.55988598-26.77994364-26.77994364-46.86490041-73.64484404-46.8649004-120.50974444v-354.83424904c0-80.33982962 66.94985845-140.5947025 140.5947025-140.59470119h87.03481521c33.47492922 0 60.25487286 13.38997117 80.33982963 33.47492923 20.08495806-20.08495806 46.86490041-33.47492922 73.64484403-33.47492923h415.0891193c66.94985845 0 120.50974444 40.16991482 133.89971691 107.11977327l80.33982963 448.56404852c6.69498558 60.25487286-46.86490041 107.11977326-107.11977327 107.11977328z m-562.37880738-515.513907v-66.94985844c0-20.08495806-13.38997117-33.47492922-33.47492922-33.47492923s-33.47492922 20.08495806-33.47492923 40.16991481V176.45544035c0 20.08495806 13.38997117 33.47492922 33.47492923 33.47492923s33.47492922-13.38997117 33.47492922-33.47492923v-120.50974445z m127.20473002 548.98883622c0 6.69498558 0 6.69498558 0 0z"  horiz-adv-x="1024" />

    
    <glyph glyph-name="chakan" unicode="&#58915;" d="M505.72345102 666.44471413c251.06196799 0 445.63499266-219.67922183 445.63499265-288.72126311 0-75.31859027-194.57302467-276.16816515-445.63499265-276.16816515-219.67922183 0-382.86950036 144.36063156-433.08189469 244.78541899-6.27654898 18.82964818-6.27654898 43.93584413 0 56.48894332 50.21239311 106.70133643 219.67922183 263.61506596 433.08189469 263.61506595m0 62.76549109C267.214581 729.21020522 78.91810531 559.74337772 22.42916321 434.21239311c-18.82964818-37.65929514-18.82964818-75.31859027 0-112.97788541 56.48894331-125.53098339 244.785419-282.44471413 489.57083679-282.44471292 276.16816515 0 508.40048496 219.67922183 508.40048496 338.93365624-6.27654898 112.97788541-232.23231981 351.48675542-514.67703394 351.4867542zM524.55309797 327.51105669000003c-169.46682873 0-307.55091009 125.53098339-307.55091008 276.16816514h62.7654923c0-119.2544344 106.70133643-213.40267284 244.78541778-213.40267285 131.80753359 0 244.785419 94.14823845 244.785419 213.40267285h62.7654923c-6.27654898-150.63718055-144.36063156-276.16816515-307.5509113-276.16816514z"  horiz-adv-x="1024" />

    
    <glyph glyph-name="bianji" unicode="&#58916;" d="M744.727273-86.626263H284.444444C165.494949-86.626263 51.717172 21.979798 51.717172 146.10101V606.383838C51.717172 720.161616 155.151515 792.565657 284.444444 792.565657h87.919192c31.030303 0 51.717172-20.686869 51.717172-51.717172s-20.686869-51.717172-51.717172-51.717172H284.444444C243.070707 689.131313 155.151515 683.959596 155.151515 606.383838v-455.111111C155.151515 78.868687 222.383838 16.808081 284.444444 16.808081h455.111112c72.40404 0 82.747475 72.40404 82.747474 129.292929v82.747475c0 31.030303 20.686869 51.717172 51.717172 51.717172s51.717172-20.686869 51.717172-51.717172v-82.747475C930.909091 16.808081 858.505051-86.626263 744.727273-86.626263zM506.828283 120.242424c-51.717172 0-98.262626 10.343434-134.464647 20.686869-15.515152 5.171717-31.030303 15.515152-41.373737 25.858586-15.515152 15.515152-20.686869 31.030303-25.858586 46.545454-25.858586 72.40404-46.545455 201.69697 25.858586 274.10101l294.787879 294.787879C713.69697 870.141414 848.161616 875.313131 930.909091 792.565657l20.686869-20.686869c82.747475-82.747475 77.575758-222.383838-10.343435-305.131313L646.464646 171.959596c-41.373737-36.20202-93.090909-51.717172-139.636363-51.717172z m279.272727 625.777778c-31.030303 0-67.232323-15.515152-87.919192-41.373737L403.393939 415.030303c-25.858586-25.858586-25.858586-93.090909 0-170.666667 77.575758-25.858586 149.979798-20.686869 170.666667 0l294.787879 294.787879c46.545455 46.545455 51.717172 118.949495 10.343434 160.323232l-20.686868 20.686869c-20.686869 20.686869-41.373737 25.858586-72.404041 25.858586z"  horiz-adv-x="1024" />

    
    <glyph glyph-name="banquan" unicode="&#58917;" d="M519.23112921-116.62824701c-274.99298103 0-500.62824701 225.63526595-500.62824701 500.62824701 0 274.99298103 225.63526595 500.62824701 500.62824701 500.62824701s500.62824701-225.63526595 500.62824699-500.62824701c-7.05110271-274.99298103-225.63526595-500.62824701-500.62824699-500.62824701z m0 930.7454734C279.49365912 814.11722639 89.11390281 623.73747009 89.11390281 384s190.37975631-430.11722639 430.1172264-430.11722639 430.11722639 190.37975631 430.11722639 430.11722639-197.43085772 430.11722639-430.11722639 430.11722639zM709.61088551 271.18236702c-35.25551097-63.4599192-98.71542885-112.81763298-176.27755218-112.81763297-119.86873569 0-204.48196043 98.71542885-204.48196043 225.63526595 0 119.86873569 84.61322474 218.58416454 204.48196043 218.58416454 84.61322474 0 148.07314394-42.30661237 183.3286536-105.76653156l-77.56212204-49.35771378c-28.20440826 42.30661237-63.4599192 63.4599192-105.76653156 63.45991791-70.51102061 0-112.81763298-56.40881649-112.81763298-126.91983711s49.35771508-126.91983711 112.81763298-126.91983711c49.35771508 0 84.61322474 28.20440826 98.71542885 63.45991791l77.56212333-49.35771378z"  horiz-adv-x="1024" />

    
    <glyph glyph-name="dianzanxianxing" unicode="&#58918;" d="M230.81059631-91.34399216999998H143.7757811c-80.33982962 0-140.5947025 66.94985845-140.5947025 140.59470119V404.08495806c0 93.7298008 73.64484404 167.37464484 167.37464485 167.37464484h153.98467365c20.08495806 0 33.47492922-13.38997117 33.47492924-33.47492924s-13.38997117-33.47492922-33.47492924-33.47492922H170.55572345c-53.55988598 0-100.42478768-40.16991482-100.42478639-100.42478638v-354.83424904c0-40.16991482 33.47492922-73.64484404 73.64484404-73.64484274h87.03481521c26.77994364 0 46.86490041 20.08495806 46.8649004 46.86490041 0 20.08495806 13.38997117 33.47492922 33.47492923 33.47492921s33.47492922-13.38997117 33.47492922-33.47492921c-6.69498558-66.94985845-53.55988598-113.81475886-113.81475885-113.81475886zM806.57937616-91.34399216999998H384.79526997c-60.25487286 0-113.81475886 53.55988598-113.81475886 113.81475886V176.45544035c0 20.08495806 13.38997117 33.47492922 33.47492924 33.47492923s33.47492922-13.38997117 33.47492923-33.47492923v-153.98467366c6.69498558-26.77994364 26.77994364-46.86490041 46.86490039-46.86490041h415.0891193c33.47492922 0 60.25487286 20.08495806 66.94985846 53.55988599l80.33982964 441.86906294c0 20.08495806-20.08495806 40.16991482-46.86490041 40.16991482h-214.23954654c-33.47492922 0-53.55988598 26.77994364-53.55988598 53.55988728V712.0543041c0 40.16991482-26.77994364 80.33982962-66.94985846 87.0348165-20.08495806 6.69498558-46.86490041 0-66.94985715-20.08495806-6.69498558-20.08495806-20.08495806-40.16991482-20.08495805-60.25487156V645.10444693c0-73.64484404-87.03481521-133.89971562-160.67965926-133.8997169-20.08495806 0-33.47492922 13.38997117-33.47492922 33.47492922S297.76045476 578.15458848 317.84541152 578.15458848c40.16991482 0 93.7298008 33.47492922 93.7298008 66.94985845V718.7492909800001c0 40.16991482 20.08495806 80.33982962 53.55988727 113.81475883 33.47492922 26.77994364 73.64484404 40.16991482 120.50974445 33.47492794 66.94985845-20.08495806 120.50974444-80.33982962 120.50974444-153.98467365v-133.89971562h200.84957406c60.25487286 0 113.81475886-53.55988598 113.81475886-113.81475886l-80.33982963-448.56404852c-13.38997117-66.94985845-66.94985845-107.11977326-133.89971561-107.11977327z"  horiz-adv-x="1024" />

    
    <glyph glyph-name="fanyeyoubianjiantou" unicode="&#58919;" d="M403.393939 109.89899l-56.888888 56.888889 217.212121 217.212121-217.212121 222.383838 56.888888 51.717172 274.10101-274.10101z"  horiz-adv-x="1024" />

    
    <glyph glyph-name="fanyezuobianjiantou" unicode="&#58920;" d="M620.606061 109.89899l56.888888 56.888889-222.383838 217.212121 222.383838 222.383838-56.888888 51.717172-274.10101-274.10101z"  horiz-adv-x="1024" />

    
    <glyph glyph-name="fangdajing" unicode="&#58921;" d="M437.63290795 67.93985821000001c-216.90401906 0-396.62449209 179.72047303-396.62449209 396.62449208s179.72047303 396.62449209 396.62449209 396.62449096c216.90401906 0 396.62449209-179.72047303 396.62449208-396.62449096s-173.52321479-396.62449209-396.62449208-396.62449208z m0 675.50108785c-148.73418411 0-272.67933753-123.94515342-272.67933867-272.67933867s123.94515342-272.67933753 272.67933867-272.67933752c148.73418411 0 272.67933753 123.94515342 272.67933752 272.67933752s-117.74789632 272.67933753-272.67933752 272.67933867zM921.01900743-99.38609948999999c-18.59177358 0-30.98628893 6.19725824-43.38080426 18.59177359L635.94515342 160.89872384c-24.78903069 24.78903069-24.78903069 61.97257671 0 86.76160739s61.97257671 24.78903069 86.7616074 0l235.49579264-235.49579264c24.78903069-24.78903069 24.78903069-61.97257671 0-86.76160739-6.19725824-18.59177358-24.78903069-24.78903069-37.18354603-24.78903069z"  horiz-adv-x="1024" />

    
    <glyph glyph-name="jiantou" unicode="&#58922;" d="M999.35665173 450.1237664h-979.61136c-7.3470848 0-12.2451424 4.89805653-12.2451424 12.2451424s4.89805653 12.2451424 12.2451424 12.2451424h979.61136c7.3470848 0 12.2451424-4.89805653 12.2451424-12.2451424s-4.89805653-12.2451424-12.2451424-12.2451424zM842.61883413 288.48789227c-2.44902827 0-7.3470848 0-9.79611413 2.44902826-4.89805653 4.89805653-4.89805653 12.2451424 0 17.14319894L994.4585952 469.7159936c4.89805653 4.89805653 12.2451424 4.89805653 17.14319893 0s4.89805653-12.2451424 0-17.14319787l-161.6358752-161.6358752c-2.44902827-2.44902827-4.89805653-2.44902827-7.3470848-2.44902826z"  horiz-adv-x="1024" />

    
    <glyph glyph-name="kongjianhuise" unicode="&#58923;" d="M512 881.22038158c-273.61831595 0-497.22038158-223.60206563-497.22038158-497.22038158s223.60206563-497.22038158 497.22038158-497.22038158 497.22038158 223.60206563 497.22038158 497.22038158-223.60206563 497.22038158-497.22038158 497.22038158z m135.33809209-556.06303061s0-11.76852935 2.9421329-20.59492694c0 0-70.61117838-2.94213291-126.51169564 0-29.42132451 0-64.72691371 5.88426467-64.7269137 5.88426468l164.7594166 117.68529806s-58.84264903 8.82639758-120.62742983 11.76852936c-67.66904547 2.94213291-135.33809209-2.94213291-144.16448853-5.88426468-5.88426467 0 44.13198677 0 100.03250176-5.88426468 41.18985387-2.94213291 91.20610531-11.76852935 91.20610645-11.76853048l-164.75941661-123.5695616s70.61117838-2.94213291 135.33809209-2.94213291c70.61117838 2.94213291 135.33809209 11.76852935 135.33809209 8.82639758 11.76852935-52.95838435 35.30558919-158.87515193 26.47919161-167.70154837-11.76852935-11.76852935-176.52794595 94.14823822-176.52794595 94.14823708s-164.75941661-102.97463581-176.52794596-94.14823708c-8.82639758 8.82639758 35.30558919 197.12287289 35.30558919 197.12287288s-150.04875435 126.51169451-144.16448967 141.22235677c8.82639758 14.71066226 200.06500579 29.42132451 200.0650058 29.42132451s70.61117838 179.47007886 88.2639724 179.47007887c17.65279517 0 88.26397355-179.47007886 88.26397355-179.47007887s194.18074112-14.71066226 200.06500579-29.42132451-150.04875435-144.16448967-150.04875434-144.16448967z"  horiz-adv-x="1024" />

    
    <glyph glyph-name="pinglunxianxing" unicode="&#58924;" d="M861.92459104 733.92459104c42.84790914 0 78.55450031-35.70659117 78.5545003-78.55449894v-399.9138195c0-42.84790914-35.70659117-78.55450031-78.5545003-78.55450031H733.38086363c-28.56527322 0-57.13054505-14.28263591-78.5545003-28.56527322l-99.97845419-99.97845418c-7.14131795-7.14131795-21.42395526-14.28263591-35.70659119-14.28263593s-21.42395526 7.14131795-35.70659117 14.28263593l-99.97845418 99.97845418c-21.42395526 21.42395526-49.9892271 28.56527322-78.55450031 28.56527322H162.07540896c-42.84790914 0-78.55450031 35.70659117-78.5545003 78.55450031V655.3700921C83.52090866 698.21800124 119.22749984 733.92459104 162.07540896 733.92459104h699.84918208m0 71.41318234H162.07540896c-85.69581826 0-149.96768267-64.27186438-149.96768265-149.96768128v-399.9138195c0-78.55450031 64.27186438-149.96768267 149.96768265-149.96768266h157.10899924c7.14131795 0 21.42395526-7.14131795 28.56527323-14.28263591L447.72813562-8.77250016000005c21.42395526-21.42395526 49.9892271-35.70659117 85.69581964-35.70659118s57.13054505 14.28263591 85.69581827 35.70659118l99.97845418 99.97845419c7.14131795 7.14131795 14.28263591 14.28263591 28.56527322 14.28263591H876.20722832c78.55450031 0 149.96768267 64.27186438 149.96768128 149.96768266V655.3700921C1011.89227369 741.06591038 940.47909134 805.33777338 861.92459104 805.33777338zM676.25031857 533.9676826699999v-142.82636472h142.82636332v142.82636472h-142.82636332z m-214.23954567-142.82636472h142.82636332v142.82636472h-142.82636332v-142.82636472z m-214.23954566 0h142.82636331v142.82636472h-142.82636331v-142.82636472z"  horiz-adv-x="1024" />

    
    <glyph glyph-name="pinglunmianxing" unicode="&#58925;" d="M861.92459104 805.33777338H162.07540896c-85.69581826 0-149.96768267-64.27186438-149.96768265-149.96768128v-399.9138195c0-78.55450031 64.27186438-149.96768267 149.96768265-149.96768266h157.10899924c7.14131795 0 21.42395526-7.14131795 28.56527323-14.28263591L447.72813562-8.77250016000005c42.84790914-42.84790914 121.40240945-42.84790914 164.25031857 0l99.97845557 99.97845419c7.14131795 7.14131795 14.28263591 14.28263591 28.56527183 14.28263591h128.54372879c78.55450031 0 149.96768267 64.27186438 149.96768127 149.96768266V655.3700921C1011.89227369 741.06591038 940.47909134 805.33777338 861.92459104 805.33777338zM383.4562726 391.14131795h-142.8263647v142.82636472h142.8263647v-142.82636472z m214.23954566 0h-142.82636331v142.82636472h142.82636331v-142.82636472z m214.23954568 0h-142.82636333v142.82636472h142.82636333v-142.82636472z"  horiz-adv-x="1024" />

    
    <glyph glyph-name="qie" unicode="&#58926;" d="M976.66176992 214.89818186000002c0 121.87849758-106.64368447 205.66996459-106.64368447 205.66996311 15.23481164 114.26109177-30.46962477 129.49590341-30.46962477 129.49590342-7.61740581 350.40067964-304.69624322 342.7832738-312.31364904 342.78327379-7.61740581 0-304.69624322 7.61740581-312.31364904-342.78327379 0 0-45.70443642-22.85221894-30.46962328-129.49590342 0 0-91.40887281-83.791467-106.64368595-205.66996311 0 0-7.61740581-205.66996459 99.02627864-22.85221894 0 0 22.85221894-68.55665534 68.55665536-129.49590339 0 0-83.791467-30.46962477-76.17406117-99.02627865 0 0 0-76.17406117 175.20033982-68.55665534 0 0 129.49590341-7.61740581 167.58293398 68.55665534h30.46962477c38.08703058-76.17406117 167.58293398-68.55665534 167.58293251-68.55665534 182.81774563-7.61740581 175.20033981 76.17406117 175.20033983 76.17406116 7.61740581 76.17406117-76.17406117 99.02627863-76.17405971 99.02627864 45.70443642 60.93924805 60.93924805 129.49590341 60.93924805 129.4959034 121.87849758-190.43515147 106.64368447 15.23481164 106.64368447 15.23481312z m15.23481311 0"  horiz-adv-x="1024" />

    
    <glyph glyph-name="shanchu" unicode="&#58927;" d="M735.319149-84.425532H288.680851C201.531915-84.425532 108.93617-57.191489 108.93617 29.957447V460.255319h108.93617v-430.297872c0-27.234043 43.574468-5.446809 70.808511-5.446809h452.085106c21.787234 0 27.234043-21.787234 27.234043 5.446809V460.255319h108.93617v-430.297872c-5.446809-87.148936-54.468085-114.382979-141.617021-114.382979zM762.553191 678.12766h-108.93617V743.489362s10.893617 5.446809 5.446809 5.446808H348.595745c-5.446809 0-21.787234-10.893617-21.787234-21.787234V678.12766H217.87234v49.021276C217.87234 797.957447 299.574468 896 364.93617 896h310.468085C735.319149 896 762.553191 808.851064 762.553191 743.489362V678.12766zM326.808511 460.255319h108.93617v-326.80851H326.808511zM54.468085 678.12766h871.489362v-108.936171H54.468085zM544.680851 460.255319h108.93617v-326.80851h-108.93617z"  horiz-adv-x="1024" />

    
    <glyph glyph-name="shoucangmianxing" unicode="&#58928;" d="M562.48844074 832.78614534l106.58670918-213.17341829c11.21965324-22.43930651 33.65896193-39.26878748 56.09826844-39.2687875l241.22255252-33.65896193c44.87861519-5.60982772 67.31792172-61.70809399 33.65896195-95.3670559l-173.90463085-168.29480533c-16.82948096-16.82948096-28.04913423-39.26878748-22.4393087-67.31792173l39.26878965-235.61272485c5.60982772-44.87861519-39.26878748-84.14740265-84.14740267-61.7080961l-213.17341833 112.19653684c-22.43930651 11.21965324-50.48844074 11.21965324-67.31792386 0l-213.17341833-112.19653684c-44.87861519-22.43930651-89.7572282 11.21965324-84.14740267 61.7080961l39.26878965 235.61272485c5.60982772 22.43930651-5.60982772 50.48844074-22.4393087 67.31792173l-173.90463085 168.29480533c-33.65896193 33.65896193-16.82948096 89.7572282 33.65896195 95.3670559l241.22255252 33.65896193c22.43930651 5.60982772 44.87861519 16.82948096 56.09826844 39.2687875l106.58670918 213.17341829c16.82948096 39.26878748 78.53757495 39.26878748 100.97688148 0z"  horiz-adv-x="1024" />

    
    <glyph glyph-name="shoucang" unicode="&#58929;" d="M512 762.48986425l92.83713622-185.67427245c21.42395526-42.84790914 64.27186438-71.41318235 107.11977354-78.55450032l207.09822771-28.56527322-149.96768265-142.82636331c-35.70659117-35.70659117-49.9892271-78.55450031-42.84790916-128.5437274l35.70659118-199.95690975-185.67427246 92.83713623c-21.42395526 7.14131795-42.84790914 14.28263591-64.27186438 14.28263591s-49.9892271-7.14131795-64.27186438-14.28263591l-185.67427246-92.83713623 35.70659118 199.95690975c7.14131795 49.9892271-7.14131795 92.83713622-42.84790916 128.5437274l-149.96768265 142.82636331L304.90177229 498.26109148c49.9892271 7.14131795 85.69581826 35.70659117 107.11977352 78.55450032l99.97845419 185.67427245m0 85.69581828c-21.42395526 0-42.84790914-7.14131795-49.9892271-28.56527323L354.89099939 612.52218159c-14.28263591-21.42395526-35.70659117-35.70659117-57.13054505-42.84790914l-235.66350093-35.70658978c-49.9892271-7.14131795-64.27186438-57.13054505-35.70659118-92.83713762l171.39163653-164.25031858c14.28263591-14.28263591 28.56527322-42.84790914 21.42395527-64.271863l-42.84790914-228.52218297c-7.14131795-35.70659117 21.42395526-64.27186438 57.13054505-64.27186303 7.14131795 0 21.42395526 0 28.56527322 7.14131798l214.23954567 107.11977351c14.28263591 7.14131795 21.42395526 7.14131795 35.70659117 7.14131796s21.42395526 0 35.70659117-7.14131796l214.23954567-107.11977351c7.14131795-7.14131795 14.28263591-7.14131795 28.56527322-7.14131798 35.70659117 0 64.27186438 28.56527322 57.13054505 64.27186303l-42.84790914 228.52218297c-7.14131795 21.42395526 7.14131795 49.9892271 21.42395527 64.271863l171.39163653 164.25031858c35.70659117 35.70659117 14.28263591 85.69581826-28.56527322 92.83713762L733.38086363 569.67427245c-21.42395526 0-42.84790914 21.42395526-57.13054506 42.84790914l-107.11977352 207.09822771c-14.28263591 21.42395526-35.70659117 28.56527322-57.13054505 28.56527323z"  horiz-adv-x="1024" />

    
    <glyph glyph-name="weibohuise" unicode="&#58930;" d="M429.62029227 304.56242403c-2.94213291 0-5.88426467 2.94213291-8.82639758 2.94213291h-8.82639759c-5.88426467 0-11.76852935-2.94213291-14.71066225-5.88426467-2.94213291-2.94213291-5.88426467-8.82639758-8.82639759-11.76853049-2.94213291-2.94213291-2.94213291-8.82639758-2.94213177-11.76852935v-5.88426468c0-2.94213291 2.94213291-5.88426467 2.94213177-5.88426468l2.94213291-2.9421329s0-2.94213291 2.9421329-2.94213291c2.94213291-2.94213291 2.94213291-2.94213291 5.88426468-2.94213177h11.76852935c2.94213291 0 8.82639758 0 14.71066226 5.88426468l8.82639758 8.82639758c2.94213291 2.94213291 2.94213291 8.82639758 2.94213177 11.76852935v8.82639759c0 2.94213291 0 2.94213291-2.94213177 5.88426467s-2.94213291 5.88426467-5.88426467 5.88426467zM559.07411854 381.05786708999995c-29.42132451 14.71066226-67.66904547 23.53705984-108.85889934 20.59492808-44.13198677 0-79.43757597-11.76852935-108.85890048-32.36345743-29.42132451-17.65279517-44.13198677-44.13198677-44.13198677-70.61117838 0-29.42132451 14.71066226-52.95838435 44.13198677-70.61117838 29.42132451-17.65279517 67.66904547-26.47919161 108.85890048-23.53705984 41.18985387 2.94213291 76.49544306 14.71066226 108.85889934 35.30558919 29.42132451 23.53705984 44.13198677 47.07411854 44.13198677 76.4954442 0 26.47919161-14.71066226 50.01625145-44.13198677 64.72691256z m-35.30558919-94.14823708c-2.94213291-8.82639758-5.88426467-17.65279517-11.76852935-23.53705984-11.76852935-17.65279517-29.42132451-26.47919161-52.95838435-32.36345628-20.59492693-5.88426467-44.13198677 0-70.61117839 11.76852934l-8.82639644 8.82639759c-2.94213291 2.94213291-5.88426467 5.88426467-5.88426581 8.82639644-2.94213291 2.94213291 0 5.88426467 0 8.82639759-2.94213291 2.94213291 5.88426467 5.88426467 5.88426581 5.88426467l-8.82639759 5.88426467c0 2.94213291-8.82639758 5.88426467-8.82639758 11.7685305 0 2.94213291 2.94213291 8.82639758 2.94213291 14.71066225s2.94213291 11.76852935 5.88426467 17.65279403c2.94213291 5.88426467 5.88426467 11.76852935 11.76852936 17.65279516 5.88426467 5.88426467 11.76852935 11.76852935 20.59492693 14.71066226 8.82639758 5.88426467 17.65279517 8.82639758 29.42132451 8.82639644 14.71066226 2.94213291 29.42132451 2.94213291 52.95838436-5.88426467 11.76852935-2.94213291 20.59492693-8.82639758 26.47919161-17.65279403s8.82639758-17.65279517 11.76852935-26.4791916c0-8.82639758 2.94213291-20.59492693 0-29.42132452zM459.04161565 322.2152192c-2.94213291 0-5.88426467 0-8.82639645-2.94213291l-2.94213291-2.94213176-2.94213176-2.94213291v-14.71066226c0-2.94213291 2.94213291-2.94213291 5.88426467-2.94213291s5.88426467 0 8.82639645 2.94213291c2.94213291 0 2.94213291 2.94213291 2.9421329 5.88426467 2.94213291 2.94213291 2.94213291 2.94213291 2.94213291 5.88426468 2.94213291 2.94213291 0 2.94213291 0 5.88426582s-2.94213291 5.88426467-5.88426581 5.88426467zM512 884.16251449c-276.56044885 0-500.16251449-223.60206563-500.16251449-500.16251449s223.60206563-500.16251449 500.16251449-500.16251449 500.16251449 223.60206563 500.16251449 500.16251449-223.60206563 500.16251449-500.16251449 500.16251449z m161.8172837-603.1371503c-8.82639758-23.53705984-29.42132451-44.13198677-55.90051613-61.7847808-26.47919161-17.65279517-52.95838435-29.42132451-85.32184064-35.30558918-32.36345629-5.88426467-61.7847808-8.82639758-91.20610531-5.88426468-17.65279517 0-35.30558919 2.94213291-50.01625145 5.88426468-17.65279517 2.94213291-32.36345629 8.82639758-50.01625145 14.71066225-17.65279517 5.88426467-32.36345629 14.71066226-44.13198677 23.53705984-11.76852935 8.82639758-20.59492693 20.59492693-29.42132452 35.30558919s-11.76852935 32.36345629-11.76852935 50.01625145v11.76852935c0 8.82639758 0 20.59492693 5.88426467 38.2477221s11.76852935 32.36345629 23.53705984 50.01625145l11.76852936 17.65279403c5.88426467 5.88426467 11.76852935 14.71066226 20.59492693 23.53705984 8.82639758 8.82639758 17.65279517 20.59492693 29.42132451 29.42132451 8.82639758 11.76852935 20.59492693 20.59492693 35.3055892 29.42132452 14.71066226 8.82639758 26.47919161 14.71066226 41.18985386 20.59492693 8.82639758 2.94213291 20.59492693 5.88426467 29.42132452 5.88426468s14.71066226 0 20.59492693-2.94213291c5.88426467-2.94213291 11.76852935-5.88426467 14.71066226-8.82639645 2.94213291-2.94213291 5.88426467-5.88426467 8.82639758-11.76853048 0-5.88426467 2.94213291-11.76852935 2.94213291-14.71066226v-11.76852935c-2.94213291-2.94213291-2.94213291-5.88426467-2.94213291-8.82639759v-14.71066225c0-2.94213291 2.94213291-2.94213291 2.94213291-2.94213177h5.88426468c2.94213291 0 5.88426467 2.94213291 8.82639758 2.94213177l8.82639644 2.94213291c5.88426467 2.94213291 11.76852935 2.94213291 20.59492694 5.88426467 5.88426467 2.94213291 14.71066226 5.88426467 23.53705984 5.88426467 8.82639758 2.94213291 17.65279517 2.94213291 26.4791916 0 8.82639758-2.94213291 14.71066226-5.88426467 20.59492808-11.76852934 2.94213291-2.94213291 2.94213291-8.82639758 5.88426467-11.7685305 0-5.88426467 2.94213291-8.82639758 2.94213177-11.76852934v-11.76852936c-2.94213291-2.94213291-2.94213291-5.88426467-2.94213177-8.82639758 0-2.94213291-2.94213291-5.88426467-2.94213291-8.82639758 0-2.94213291-2.94213291-5.88426467-2.94213176-5.88426468 0-2.94213291-2.94213291-2.94213291-2.94213291-2.94213176l-2.94213291-2.94213291s-5.88426467-2.94213291-2.94213177-5.88426468 2.94213291-5.88426467 2.94213177-5.88426467 20.59492693-2.94213291 20.59492694-5.88426582c5.88426467-2.94213291 23.53705984-5.88426467 29.42132451-11.76852935 8.82639758-5.88426467 14.71066226-11.76852935 17.65279517-20.59492693 2.94213291-8.82639758 5.88426467-17.65279517 5.88426467-29.42132452s-2.94213291-23.53705984-8.82639758-38.2477221z m8.82639758 155.93302016v-2.9421329c0-2.94213291-2.94213291-2.94213291-2.94213291-5.88426468-2.94213291 0-2.94213291-2.94213291-5.88426467-2.9421329 0-2.94213291-2.94213291-2.94213291-5.88426468-2.94213177s-5.88426467 0-11.76852935 8.82639644c-2.94213291 2.94213291-2.94213291 5.88426467-2.9421329 8.82639759v17.65279516c-2.94213291 26.47919161-20.59492693 35.30558919-50.01625146 29.42132452-2.94213291 0-5.88426467 0-8.82639758 2.94213176-2.94213291 2.94213291-2.94213291 5.88426467-2.94213176 8.82639758 0 2.94213291 2.94213291 2.94213291 2.94213176 5.88426468 2.94213291 2.94213291 2.94213291 5.88426467 5.88426582 5.88426468 0 2.94213291 2.94213291 2.94213291 5.88426467 2.9421329 8.82639758 2.94213291 17.65279517 2.94213291 29.42132452 0 35.30558919-5.88426467 52.95838435-32.36345629 47.07411854-76.49544306z m76.49544306-11.76853048c-2.94213291-14.71066226-8.82639758-20.59492693-20.59492693-20.59492694h-8.82639759l-5.88426467 5.88426468c-2.94213291 2.94213291-2.94213291 5.88426467-2.94213177 8.82639758v5.88426468 5.88426467 2.94213291 2.9421329c5.88426467 23.53705984 2.94213291 44.13198677-5.88426581 67.66904548-5.88426467 5.88426467-11.76852935 14.71066226-17.65279403 20.59492694-5.88426467 5.88426467-14.71066226 11.76852935-20.59492693 14.71066225-5.88426467 2.94213291-14.71066226 5.88426467-20.59492694 8.82639759-5.88426467 0-11.76852935 2.94213291-17.65279516 2.94213176h-23.5370587c-2.94213291 0-2.94213291-2.94213291-5.88426582-2.94213176-2.94213291-2.94213291-2.94213291-2.94213291-5.88426468-2.94213291l-2.94213176-2.94213177c-2.94213291 0-2.94213291-2.94213291-2.94213291-2.94213291h-2.94213291c-5.88426467 0-11.76852935 5.88426467-14.71066226 8.82639759-2.94213291 2.94213291-5.88426467 11.76852935-5.88426467 17.65279402 0 2.94213291 0 8.82639758 2.94213291 11.76853049s8.82639758 5.88426467 11.76852935 5.88426467c29.42132451 5.88426467 52.95838435 5.88426467 70.61117838 2.94213178 8.82639758-2.94213291 14.71066226-5.88426467 29.42132451 0 8.82639758-2.94213291 14.71066226-5.88426467 23.53705984-11.76852936 8.82639758-5.88426467 17.65279517-11.76852935 23.53705984-17.65279402 5.88426467-5.88426467 11.76852935-14.71066226 17.65279403-23.53705984s8.82639758-17.65279517 11.76852935-29.42132452c2.94213291-8.82639758 2.94213291-20.59492693 2.94213291-35.30558919-2.94213291-14.71066226-2.94213291-29.42132451-8.82639758-44.13198677z"  horiz-adv-x="1024" />

    
    <glyph glyph-name="weixinhuise" unicode="&#58931;" d="M514.94213291 481.09036999c14.71066226 0 23.53705984 8.82639758 23.5370587 26.47919275 0 14.71066226-8.82639758 26.47919161-23.5370587 26.47919161s-29.42132451-8.82639758-29.42132452-26.47919161c0-14.71066226 14.71066226-26.47919161 29.42132452-26.47919275z m58.84264789-97.09036999c-8.82639758 0-17.65279517-8.82639758-17.65279403-20.59492693 0-11.76852935 8.82639758-20.59492693 17.65279403-20.59492694 14.71066226 0 23.53705984 8.82639758 23.53705984 20.59492694 0 11.76852935-8.82639758 20.59492693-23.53705984 20.59492693z m-191.23860821 150.04875435c-14.71066226 0-29.42132451-8.82639758-29.42132452-26.47919161 0-14.71066226 14.71066226-26.47919161 29.42132452-26.47919275s23.53705984 8.82639758 23.53705984 26.47919275c0 14.71066226-8.82639758 26.47919161-23.53705984 26.47919161z m294.21324402-150.04875435c-8.82639758 0-17.65279517-8.82639758-17.65279517-20.59492693 0-11.76852935 8.82639758-20.59492693 17.65279517-20.59492694 14.71066226 0 23.53705984 8.82639758 23.5370587 20.59492694 0 11.76852935-8.82639758 20.59492693-23.5370587 20.59492693zM512 884.16251449c-276.56044885 0-500.16251449-223.60206563-500.16251449-500.16251449s223.60206563-500.16251449 500.16251449-500.16251449 500.16251449 223.60206563 500.16251449 500.16251449-223.60206563 500.16251449-500.16251449 500.16251449zM444.33095453 272.19896774999995c-23.53705984 0-41.18985387 5.88426467-64.72691371 8.82639644L311.93499421 245.71977501000003l17.65279516 61.78478193c-47.07411854 35.30558919-73.55331129 82.37970773-73.55331129 138.28022386 0 97.09036999 85.32184064 173.58581419 188.29647645 173.58581419 91.20610531 0 173.58581419-61.7847808 188.2964753-144.16448968h-17.65279402c-88.26397355 0-158.87515193-73.55331129-158.87515194-161.81728369 0-14.71066226 2.94213291-29.42132451 5.88426468-44.13198677-5.88426467 2.94213291-11.76852935 2.94213291-17.65279402 2.9421329z m291.2711111-123.56956274l-50.01625144 29.42132452c-17.65279517-5.88426467-38.2477221-11.76852935-55.90051726-11.76852935-88.26397355 0-158.87515193 67.66904547-158.8751508 147.10662144 0 82.37970773 70.61117838 147.10662144 158.8751508 147.10662144 85.32184064 0 158.87515193-67.66904547 158.87515192-147.10662144 0-47.07411854-26.47919161-88.26397355-64.7269137-117.68529693l11.76853048-47.07411968z"  horiz-adv-x="1024" />

    
    <glyph glyph-name="xiangshangjiantou" unicode="&#58932;" d="M751.659574 204.255319l-239.659574 217.872341-245.106383-217.872341-70.808511 65.361702L435.744681 492.93617 512 569.191489l315.914894-294.127659z"  horiz-adv-x="1024" />

    
    <glyph glyph-name="xiangxiajiantou" unicode="&#58933;" d="M751.659574 569.191489l-239.659574-223.319149L266.893617 569.191489 196.085106 498.382979 435.744681 275.06383l76.255319-70.808511 315.914894 288.680851z"  horiz-adv-x="1024" />

    
    <glyph glyph-name="youjiantou" unicode="&#58934;" d="M320.2981621-98.55979792999995l482.55979793 482.55979793-489.1702055 482.55979793L221.14203997 774.01408338l390.01408337-390.01408338-383.4036758-390.01408338z"  horiz-adv-x="1024" />

    
    <glyph glyph-name="zuojiantou" unicode="&#58935;" d="M703.7018379-98.55979792999995L221.14203997 384l482.55979793 482.55979793 99.15612213-92.54571455-390.01408337-390.01408338 383.4036758-390.01408338z"  horiz-adv-x="1024" />

    
    <glyph glyph-name="qqhuise" unicode="&#58936;" d="M512 884.16251449c-276.56044885 0-500.16251449-223.60206563-500.16251449-500.16251449s223.60206563-500.16251449 500.16251449-500.16251449 500.16251449 223.60206563 500.16251449 500.16251449-223.60206563 500.16251449-500.16251449 500.16251449z m135.33809209-567.83155996s-11.76852935-26.47919161-29.42132452-50.01625146c0 0 32.36345629-11.76852935 29.42132452-41.189855 0 0 2.94213291-35.30558919-67.66904662-32.36345628 0 0-50.01625145 20.59492693-64.72691256 20.59492693h-11.76853049c-14.71066226 0-64.72691371-20.59492693-64.72691371-20.59492693-67.66904547-2.94213291-67.66904547 32.36345629-67.66904548 32.36345628-2.94213291 26.47919161 29.42132451 38.2477221 29.42132452 38.2477221-17.65279517 23.53705984-26.47919161 50.01625145-26.47919274 50.01625145-41.18985387-70.61117838-38.2477221 8.82639758-38.24772096 8.82639758 8.82639758 47.07411854 44.13198677 79.43757597 44.13198677 79.43757597-2.94213291 41.18985387 14.71066226 50.01625145 14.71066225 50.0162503 2.94213291 135.33809209 117.68529693 132.39595918 120.62742984 132.39596032 0 0 117.68529693 2.94213291 120.62742983-132.39596032 0 0 20.59492693-5.88426467 14.71066225-50.0162503 0 0 44.13198677-32.36345629 44.13198564-79.43757597 0-2.94213291 2.94213291-82.37970773-47.07411854-5.88426467z"  horiz-adv-x="1024" />

    
    <glyph glyph-name="zuopinfengmian" unicode="&#58937;" d="M832.10400927-55.35844367000004H97.74775349c-47.07411922 0-81.59513926 50.21239311-81.59514048 94.14823845V631.92369289c0 47.07411922 34.52102004 100.42478743 81.59514048 100.42478743H675.19027852v-62.7654923H97.74775349c-15.69137308-3.1382751-18.82964818-21.96792206-18.82964818-37.65929513v-589.99562423c0-15.69137308 3.1382751-31.38274614 18.82964818-31.38274614h743.77107986c15.69137308 0 21.96792206 15.69137308 21.96792207 31.38274614v439.35844367h62.76549109v-439.35844367c0-47.07411922-31.38274614-97.28651233-78.45686416-97.28651233M769.33851697 729.21020522h251.06196799v-62.76549109h-251.06196799zM863.48675542 823.35844367h62.76549109v-282.44471413h-62.76549109zM311.15042634 478.14823845c0-37.65929514-31.38274614-69.04204129-69.04204128-69.04204129s-69.04204129 31.38274614-69.04204129 69.04204129c0 37.65929514 31.38274614 69.04204129 69.04204129 69.04204007s69.04204129-31.38274614 69.04204128-69.04204007M38.12053629 70.17253971000002s53.35066821 241.6471439 203.98784877 203.98784876c119.2544344-28.24447105 238.50887001-197.71129978 316.96573416-40.79756902 62.7654923 125.53098339 210.26439775 316.96573418 335.79538114 15.69137307V45.06634377l-15.69137186-50.21239433-781.43037501-9.41482288-56.48894331 43.93584413-3.13827389 40.79756902z"  horiz-adv-x="1024" />

    
    <glyph glyph-name="baocuncaogao" unicode="&#58939;" d="M160.94950485 894.61890315c-70.21009805 0-127.65472638-57.44462591-127.65472643-127.6547264v-893.5830799h829.75571673c70.21009805 0 127.65472638 57.44462591 127.65472643 127.6547264v893.5830799h-829.75571673z m574.44626637-829.75571672h-446.79154244c-38.29641891 0-63.82736319 25.5309443-63.82736072 63.82736319s25.5309443 63.82736319 63.82736072 63.82736075h446.79154244c38.29641891 0 63.82736319-25.5309443 63.82736072-63.82736075s-31.91368161-63.82736319-63.82736072-63.82736319z m0 255.30945038h-446.79154244c-38.29641891 0-63.82736319 25.5309443-63.82736072 63.82736319s25.5309443 63.82736319 63.82736072 63.82736319h446.79154244c38.29641891 0 63.82736319-25.5309443 63.82736072-63.82736319 0-31.91368161-31.91368161-63.82736319-63.82736072-63.82736319z m0 255.30945282h-446.79154244c-38.29641891 0-63.82736319 25.5309443-63.82736072 63.82736075s25.5309443 63.82736319 63.82736072 63.82736319h446.79154244c38.29641891 0 63.82736319-25.5309443 63.82736072-63.82736319 0-31.91368161-31.91368161-63.82736319-63.82736072-63.82736075z"  horiz-adv-x="1024" />

    
    <glyph glyph-name="bofangtubiao" unicode="&#58949;" d="M115.65684017 694.64734157c0 149.96768267 128.5437274 214.23954566 278.51141006 139.25570502l407.05513607-310.64734157c149.96768267-74.98384064 149.96768267-203.52756803 0-278.51141004l-407.05513607-310.64734157c-160.6796589-74.98384064-278.51141006-10.71197763-278.51141006 139.25570502V694.64734157z"  horiz-adv-x="1024" />

    
    <glyph glyph-name="shanchutubiao" unicode="&#58950;" d="M295.45905326 459.31859027H154.23669558v-367.17812728c0-112.97788541 94.14823845-197.71129978 197.71129978-197.71129978h301.2743611c112.97788541 0 197.71129978 84.73341437 197.71129977 197.71129978V459.31859027H295.45905326z m141.22235647-423.66707059h-65.90376619v282.44471413h65.90376619v-282.44471413z m216.54094673 0h-75.31859027v282.44471413H643.80753359v-282.44471413z m141.22235767 630.79319445v65.90376619c0 75.31859027-65.90376619 150.63718055-141.22235767 150.63718055H389.60729051c-94.14823845 0-160.05200464-84.73341437-160.05200464-169.46682752v-37.65929634H88.3329294V534.63718055h847.3341412V666.44471413H794.44471413z m-141.22235767 0h-282.44471292v37.65929514c0 9.41482409 9.41482409 18.82964818 18.82964697 18.82964696h263.61506595v-56.4889421z"  horiz-adv-x="1024" />

    
    <glyph glyph-name="cha" unicode="&#58951;" d="M771.084337 569.060241l-80.192771 74.024096L512 464.192771l-185.060241 178.891566-74.024096-74.024096 178.891566-185.060241-178.891566-178.891566 74.024096-80.192771 185.060241 178.891566 178.891566-178.891566 80.192771 80.192771-178.891566 178.891566z"  horiz-adv-x="1024" />

    
    <glyph glyph-name="paiming" unicode="&#58952;" d="M507.44888853 857.3155552c-200.24888853 0-364.08888853-163.84-364.08888853-364.08888853s163.84-364.08888853 364.08888853-364.08888854 364.08888853 163.84 364.0888896 364.08888854-163.84 364.08888853-364.0888896 364.08888853z m-227.5555552-728.17777707v-227.55555626l227.5555552 159.2888896 227.55555627-159.2888896v227.55555626l-227.55555627-68.26666666-227.5555552 68.26666666z"  horiz-adv-x="1024" />

    
    <glyph glyph-name="huisedaxingxing" unicode="&#58953;" d="M560.188235 835.764706L662.588235 618.917647c12.047059-24.094118 30.117647-36.141176 54.211765-42.164706l222.870588-36.141176c42.164706-6.023529 60.235294-66.258824 30.117647-96.376471l-162.635294-168.658823c-18.070588-18.070588-24.094118-42.164706-18.070588-66.258824l36.141176-240.941176c6.023529-48.188235-36.141176-84.329412-78.305882-60.235295L542.117647 22.588235000000054c-18.070588 12.047059-42.164706 12.047059-66.258823 0l-198.776471-114.447059c-42.164706-24.094118-84.329412 12.047059-78.305882 60.235295l36.141176 240.941176c6.023529 24.094118-6.023529 48.188235-18.070588 66.258824L54.211765 444.235294C18.070588 480.376471 36.141176 534.5882349999999 84.329412 540.611765l222.870588 36.141176c24.094118 6.023529 42.164706 18.070588 54.211765 42.164706L457.788235 835.764706C481.882353 877.929412 536.094118 877.929412 560.188235 835.764706z"  horiz-adv-x="1024" />

    
    <glyph glyph-name="shangchuan" unicode="&#58954;" d="M195.047619 485.006803h146.285714c13.931973 0 27.863946-13.931973 27.863946-27.863946v-222.911564c0-20.897959 20.897959-41.795918 41.795918-41.795919H557.278912c27.863946 0 48.761905 20.897959 48.761904 48.761905V471.07483c13.931973 6.965986 20.897959 13.931973 27.863946 13.931973h153.251701c55.727891 0 76.62585 27.863946 76.62585 69.659864 0 20.897959-6.965986 34.829932-20.897959 41.795918l-13.931973 13.931973-278.639456 236.843537C536.380952 861.170068 522.44898 868.136054 494.585034 868.136054c-20.897959 0-41.795918-6.965986-55.727891-20.897959L139.319728 596.462585c-6.965986-13.931973-13.931973-27.863946-13.931973-48.761905 0-34.829932 34.829932-62.693878 69.659864-62.693877z m661.768708-417.959184H132.353741c-48.761905 0-90.557823-41.795918-90.557823-83.591837 0-48.761905 41.795918-83.591837 90.557823-83.591836h724.462586c48.761905 0 90.557823 41.795918 90.557823 83.591836s-41.795918 83.591837-90.557823 83.591837z"  horiz-adv-x="1024" />

    
    <glyph glyph-name="icon-test" unicode="&#58955;" d="M643.58600735 376.68966673l358.20635568 358.20635446-73.10333876 65.79300308-65.79300308 65.79300427-358.20635446-350.89602119-358.20635568 350.89602119-65.79300307-65.79300427-65.79300428-65.79300308 358.20635448-358.20635446-358.20635448-358.20635568 65.79300428-65.79300307 65.79300307-65.79300428 358.20635568 358.20635448 358.20635446-358.20635448 65.79300308 65.79300428 73.10333876 65.79300307z"  horiz-adv-x="1024" />

    
    <glyph glyph-name="yi" unicode="&#58956;" d="M513.37068771 873.33546667c-235.75826432 0-424.91315086-189.15488654-424.91315086-424.91315086 0-123.36188189 52.08612864-235.75826432 137.06875904-312.51676843l208.34451229-211.08588772c43.86200235-43.86200235 117.87913216-41.12062691 161.74113451 2.74137543l219.31001286 219.31001288 2.74137544 2.74137542 5.48274972 5.48275087c74.01712981 76.75850411 117.87913216 178.18938595 117.87913216 293.32714155-2.74137543 235.75826432-194.63763627 424.91315086-427.65452516 424.91315086z m106.91363158-605.84391112h-208.34451228c-8.22412515 0-13.70687602 5.48275086-13.70687602 13.70687602v35.6378772c0 13.70687602 10.96550059 27.41375203 27.4137509 27.41375089h35.63787718c8.22412515 0 16.44825145 8.22412515 16.44825146 16.44825145v161.74113451c0 16.44825145-13.70687602 27.41375203-27.41375204 27.41375203h-24.6723766c-10.96550059 0-24.67237661 2.74137543-24.67237547 13.70687602v21.93100118c0 5.48275086 8.22412515 13.70687602 13.70687488 16.4482503l71.27575438 24.67237661c5.48275086 2.74137543 16.44825145 2.74137543 24.67237661 2.74137543h32.89650176c8.22412515 0 16.44825145-8.22412515 16.44825144-16.44825145v-257.68926549c0-5.48275086 5.48275086-10.96550059 10.96550059-10.96550059h41.12062691c13.70687602 0 24.67237661-10.96550059 24.67237661-24.67237547v-43.86200348c-8.22412515-2.74137543-10.96550059-8.22412515-16.44825031-8.22412516z"  horiz-adv-x="1024" />

    
    <glyph glyph-name="shipin1" unicode="&#58957;" d="M1001.79236303 759.75115602C1001.79236303 815.30969202 957.93035978 859.17169527 902.37182377 859.17169527H107.0075097C51.44897248 859.17169527 7.58697043 815.30969202 7.58697043 759.75115602v-535.11643198C7.58697043 172.00032063000003 51.44897248 128.13831858000003 107.0075097 128.13831858000003h798.28844664c55.55853722 0 99.42053925 43.86200204 99.42053927 99.42053927V759.75115602zM636.27567408 435.17233652l-111.11707323-90.64813909c-17.54480155-17.54480155-52.63440342-23.39306791-76.02747134-23.39306792-29.2413355 2.92413379-61.40680359 26.31720172-61.40680359 55.55853722v228.08241281c0 29.2413355 32.16546809 52.63440342 61.40680359 55.55853722 23.39306791 2.92413379 52.63440342-5.84826758 67.25507118-23.39306793l114.0412058-90.64813909c32.16546809-29.2413355 35.08960188-78.95160513 5.84826759-111.11707322zM767.86168142-15.14422393999996c0 29.2413355-23.39306791 55.55853722-55.558536 55.55853722H297.07618683c-29.2413355 0-55.55853722-23.39306791-55.558536-55.55853722v-5.84826636c0-29.2413355 23.39306791-55.55853722 55.558536-55.55853722h415.22695859c29.2413355 0 55.55853722 23.39306791 55.558536 55.55853722v5.84826636z"  horiz-adv-x="1024" />

    
    <glyph glyph-name="ren" unicode="&#58958;" d="M214.56079531 724.70354034c-5.48275086-98.68950642 21.93100117-180.93076025 27.4137509-200.12038714 5.48275086 5.48275086 10.96550059 8.22412515 16.44825144 8.22412516V604.08303274c0 164.48250994 493.44752981 164.48250994 493.44752868 8.22412516v-82.24125497s5.48275086 0 10.96550058-2.74137429c8.22412515-2.74137543 10.96550059-8.22412515 10.96550173-8.2241263v8.2241263l10.96550059 142.55150762s32.89650176 98.68950642-82.24125497 131.58600818C642.21532046 823.39304562 686.07732281 878.22054855 570.93956608 878.22054855c0 0-60.31025379 27.41375203-167.22388537 27.41375203-84.9826304 0-194.63763627-27.41375203-194.63763626-27.41375203-16.44825145 0-27.41375203-16.44825145-21.93100118-32.89650176 13.70687602-24.67237661 30.15512633-60.31025379 27.41375204-120.62050645zM905.38733568 36.618374259999996s-10.96550059 5.48275086-10.96550059 8.22412515c-8.22412515 10.96550059-19.18962574 19.18962574-32.89650176 27.41375203l-2.74137543 2.7413743c-32.89650176 21.93100117-74.01712981 38.37925262-106.91363157 38.37925262-54.82750293 0-90.46538013 10.96550059-101.43088071 43.86200235-10.96550059 32.89650176-35.63787719 19.18962574-35.63787719 19.18962688l-5.48274973-2.74137543c-5.48275086 8.22412515-19.18962574 21.93100117-21.93100117 57.56887836 82.24125497 30.15512633 139.81013333 68.53437895 148.03425849 150.77563392h8.22412515c32.89650176 0 60.31025379 35.63787719 60.3102538 68.53437895s-27.41375203 68.53437895-60.3102538 68.53437895H724.45657543v82.24125497c0 137.0687579-438.62002574 137.0687579-438.62002688 0v-82.24125497h-13.70687488c-32.89650176 0-60.31025379-35.63787719-60.3102538-68.53437895s27.41375203-68.53437895 60.3102538-68.53437895h8.22412516c8.22412515-82.24125497 68.53437895-120.62050759 150.77563392-150.77563392 5.48275086-24.67237661 0-43.86200235-10.96550059-60.3102538-2.74137543 2.74137543-8.22412515 5.48275086-10.96550059 8.22412516-27.41375203 13.70687602-30.15512633-10.96550059-30.15512746-10.96550058-2.74137543-41.12062691-35.63787719-46.60337778-98.68950528-49.34475208s-106.91363157-27.41375203-106.91363158-27.41375203c-54.82750293-27.41375203-109.65500701-60.31025379-109.655007-131.58600818v-35.63787719c2.74137543-16.44825145 10.96550059-32.89650176 30.15512746-32.89650176h808.70567254c19.18962574 0 41.12062691 16.44825145 41.12062805 35.63787719v35.63787719c0 38.37925262-13.70687602 46.60337778-38.37925262 74.01712982z m-411.20627371 263.17201521c-27.41375203 0-49.34475321 8.22412515-49.3447532 49.34475321 27.41375203-2.74137543 60.31025379-5.48275086 98.68950528 0 0-41.12062691-21.93100117-49.34475321-49.34475208-49.34475321zM532.56031346 521.84177778v10.96550058c-8.22412515 5.48275086-16.44825145 8.22412515-24.67237661 8.22412516-10.96550059 0-19.18962574-2.74137543-27.4137509-10.96550059v-10.96550059c0-38.37925262-32.89650176-71.27575438-71.27575438-71.27575438S340.66405262 480.72115086 340.66405262 521.84177778s32.89650176 71.27575438 71.27575439 71.27575438c27.41375203 0 52.08612864-16.44825145 63.05162808-41.12062806 8.22412515 5.48275086 21.93100117 8.22412515 32.89650176 8.2241263 10.96550059 0 21.93100117-2.74137543 32.8965029-8.2241263 10.96550059 24.67237661 35.63787719 41.12062691 63.05162809 41.12062806 38.37925262 0 71.27575438-32.89650176 71.27575438-71.27575438s-32.89650176-71.27575438-71.27575438-71.27575439S532.56031346 480.72115086 532.56031346 521.84177778z"  horiz-adv-x="1024" />

    
    <glyph glyph-name="shijian" unicode="&#58959;" d="M513.46206689 894.26129715c-280.71681623 0-508.79923026-228.08241403-508.79923025-508.79923026s228.08241403-508.79923026 508.79923025-508.79923025 508.79923026 228.08241403 508.79923026 508.79923025S794.17888313 894.26129715 513.46206689 894.26129715z m-38.01373566-116.96534081c0 17.54480155 11.69653396 29.2413355 29.2413355 29.24133551s29.2413355-11.69653396 29.24133429-29.24133551v-52.6344022c0-17.54480155-11.69653396-29.2413355-29.24133429-29.24133551s-29.2413355 11.69653396-29.2413355 29.24133551V777.29595634zM183.03497982 362.06899897999995H124.55231003c-17.54480155 0-29.2413355 11.69653396-29.2413343 29.24133429s11.69653396 29.2413355 29.2413343 29.2413355h58.48266979c17.54480155 0 29.2413355-11.69653396 29.24133551-29.2413355s-14.62066775-29.2413355-29.24133551-29.24133429z m350.8960212-374.28908912c0-17.54480155-11.69653396-29.2413355-29.24133429-29.2413355s-29.2413355 11.69653396-29.2413355 29.2413355v40.93786946c0 17.54480155 11.69653396 29.2413355 29.2413355 29.24133429s29.2413355-11.69653396 29.24133429-29.24133429v-40.93786946z m114.04120701 576.05430144l-64.33093738-175.44801061c5.84826758-11.69653396 11.69653396-23.39306791 11.69653396-38.01373568 0-38.01373567-32.16546809-70.17920375-70.17920376-70.17920496-32.16546809 0-58.48266979 20.46893412-67.25507118 49.71026962L387.72432592 464.41367203c-11.69653396 20.46893412-2.92413379 46.78613584 17.54480156 58.48266979 20.46893412 11.69653396 46.78613584 2.92413379 58.48266979-17.54480154l46.78613584-87.72400529h26.31720171l61.40680358 163.75147663c5.84826758 14.62066775 20.46893412 20.46893412 35.08960188 14.62066775 14.62066775-2.92413379 20.46893412-17.54480155 14.62066775-32.16546807zM914.06835773 362.06899897999995h-52.63440343c-17.54480155 0-29.2413355 11.69653396-29.24133549 29.24133429s11.69653396 29.2413355 29.24133549 29.2413355H914.06835773c17.54480155 0 29.2413355-11.69653396 29.24133429-29.2413355s-14.62066775-29.2413355-29.24133429-29.24133429z"  horiz-adv-x="1024" />

    
    <glyph glyph-name="praise" unicode="&#58960;" d="M259.296 424.96c0 47.776-27.296 75.104-68.256 75.104H156.896c-34.144 0-61.44-27.296-61.44-75.104v-354.976c0-34.144 27.296-68.256 61.44-68.256h40.96c34.144 0 61.44 34.144 61.44 75.104v348.16z m593.92 75.104h-170.656c-13.664 0-40.96-13.664-40.96 0V636.608c0 54.624-20.48 102.4-61.44 109.216-68.256 20.48-109.216-40.96-109.216-102.4v-68.256c0-47.776-54.624-95.584-102.4-95.584-34.144 0-61.44-34.144-61.44-75.104v-348.16c0-34.144 34.144-54.624 61.44-54.624h402.784c40.96 0 75.104 27.296 81.92 61.44l54.624 354.976c6.816 47.776-20.48 81.92-54.624 81.92z"  horiz-adv-x="1024" />

    
    <glyph glyph-name="view" unicode="&#58968;" d="M1011.2 409.6C915.2 601.6 710.4 736 512 736 300.8 736 102.4 608 12.8 416c0 0-12.8-32 0-57.6C108.8 166.4 313.6 32 512 32c211.2 0 409.6 128 499.2 320 6.4 12.8 12.8 38.4 0 57.6z m-499.2-256c-121.6 0-224 102.4-224 230.4s102.4 230.4 224 230.4 224-102.4 224-230.4-102.4-230.4-224-230.4z m96 230.4c0-56.544-42.976-102.4-96-102.4s-96 45.856-96 102.4c0 56.544 42.976 102.4 96 102.4s96-45.856 96-102.4z"  horiz-adv-x="1024" />

    
    <glyph glyph-name="comment" unicode="&#58979;" d="M878.944 793.6H153.6C76.8 793.6 0 725.344 0 648.544V256c0-76.8 102.4-119.456 179.2-119.456h153.6c8.544 0 25.6-25.6 25.6-25.6l93.856-102.4c42.656-42.656 119.456-51.2 170.656-8.544l93.856 110.944c8.544 8.544 17.056 25.6 25.6 25.6h128c76.8 0 145.056 34.144 145.056 119.456V648.544c8.544 76.8-59.744 145.056-136.544 145.056z"  horiz-adv-x="1024" />

    
    <glyph glyph-name="xiugai" unicode="&#58901;" d="M65.5-61.2h241l-241 241v-241zM149.3 261l238.5-238.5 390.6 388.1-263.9 230.9L149.3 261z m553 568.2l-109.1-104 256.2-246.1 109.1 101.5L702.3 829.2z"  horiz-adv-x="1024" />

    
    <glyph glyph-name="zhifubao" unicode="&#58978;" d="M512 864C247.04 864 32 648.96 32 384s215.04-480 480-480 480 215.04 480 480S776.96 864 512 864z m261.12-631.68c-9.6-17.28-21.12-36.48-21.12-36.48l-193.92 94.08s-36.48-42.24-74.88-59.52c-38.4-19.2-80.64-28.8-126.72-19.2-46.08 11.52-80.64 42.24-74.88 97.92 5.76 55.68 65.28 76.8 113.28 76.8 48 0 140.16-32.64 140.16-32.64s7.68 17.28 15.36 38.4 9.6 36.48 9.6 36.48H364.16v21.12h94.08v38.4H339.2v24.96h120.96v57.6h63.36v-57.6h126.72v-24.96h-126.72v-36.48h105.6s-1.92-21.12-15.36-57.6c-13.44-36.48-24.96-55.68-24.96-55.68L788.48 268.79999999999995s-7.68-19.2-15.36-36.48zM375.68 357.12c-57.6-3.84-72.96-30.72-72.96-53.76 0-23.04 13.44-57.6 82.56-57.6 69.12 0 126.72 71.04 126.72 71.04s-78.72 44.16-136.32 40.32z"  horiz-adv-x="1024" />

    
    <glyph glyph-name="gou" unicode="&#58983;" d="M509.724444 886.897778C232.106667 886.897778 9.102222 663.893333 9.102222 386.275556s223.004444-500.622222 500.622222-500.622223 500.622222 223.004444 500.622223 500.622223c0 273.066667-223.004444 500.622222-500.622223 500.622222z m-4.551111-641.706667l-68.266666-63.715555-200.248889 195.697777L304.924444 440.888889l131.982223-131.982222 232.106666 232.106666 68.266667-63.715555-232.106667-232.106667z"  horiz-adv-x="1024" />

    
    <glyph glyph-name="guanbi1" unicode="&#58984;" d="M626.86747989 556.3012209799999l-114.86747989-114.86748103-114.86747989 114.86748103-57.43374109-57.43374109 114.86748103-114.86747989-114.86748103-110.76507079 57.43374109-57.43373995 114.86747989 110.76507079 114.86747989-110.76507079 57.43374109 57.43373995-114.86748103 110.76507079 114.86748103 114.86747989zM512 859.87956167C249.44575943 859.87956167 36.12043833 646.55424057 36.12043833 384s213.3253211-475.87956167 475.87956167-475.87956167 475.87956167 213.3253211 475.87956167 475.87956167S774.55424057 859.87956167 512 859.87956167z m0-869.71092309c-217.42773134 0-393.83136142 176.40363122-393.83136142 393.83136142s176.40363122 393.83136142 393.83136142 393.83136142 393.83136142-176.40363122 393.83136142-393.83136142-176.40363122-393.83136142-393.83136142-393.83136142z"  horiz-adv-x="1024" />

    
    <glyph glyph-name="zhong" unicode="&#58985;" d="M870.25791787 180.48114347V439.0988192c0 171.38429973-108.50229013 316.7218848-259.54241067 362.49628907-10.78858027 47.46975253-50.2439584 82.91794347-99.25493653 82.91794346-49.01097813 0-88.00398827-35.448192-98.9466912-82.91794346-151.1942432-45.77440427-260.775392-191.11198933-260.77539094-362.49628907v-258.61767573c-31.28688213-4.16130987-77.98602133-38.5306432-77.98602133-84.15092374 0-48.39448747 36.9894176-84.92153707 83.38031147-84.92153706h187.10480213c22.8101408-95.86424 89.54521387-127.9217344 168.4559712-127.9217344s145.6458304 31.9033728 168.45597013 127.9217344h187.1048032c46.54501653 0 81.6849632 36.5270496 81.68496214 84.92153706 0.15412267 45.6202816-17.10760533 79.98961493-79.6813696 84.15092374z"  horiz-adv-x="1024" />

    
    <glyph glyph-name="shou" unicode="&#58986;" d="M264.48325898 458.7898616c0 36.29894861-26.12822866 28.40787293-26.12822745 28.40787294H53.52850258c-39.28002105 0-39.28002105-38.05252084-39.28002105-38.05252085l39.28002105-531.68314293c0-39.98145043 39.28002105-37.70180615 39.28002225-37.70180615h148.70293649c31.38894538 0 22.97179765 21.21822542 22.97179766 21.21822542V458.7898616z m674.59929186 28.40787294H693.05634725c-14.20393646 0-24.72536989 15.43143666-21.56894011 29.63537312 87.67861919 386.13663622-77.15718454 371.75734363-77.15718455 371.75734242-78.03397006 0-62.6025334-63.30396277-62.6025334-71.3703958 0-159.04901378-134.14828654-267.06907287-186.58009997-304.24480578-13.50250708-9.64464791-26.30358599-25.07608459-26.30358601-41.91038001v-506.95777303c0-55.58824445 42.61180818-84.34683085 111.35184501-84.34683085h406.82879083c33.66858964 0 70.66896642 106.79255769 70.66896642 106.79255647 102.05791179 366.4966257 102.05791179 437.8670215 102.057913 437.86702271-0.52607203 71.19503845-70.66896642 62.77789074-70.66896763 62.77789075z"  horiz-adv-x="1024" />

    
    <glyph glyph-name="dbyoujiantou" unicode="&#58940;" d="M642.52132345 14.18958335000002L566.38388418 101.20379943l282.79620057 282.79620057L566.38388418 666.79620057l76.13743927 87.01421608L1001.45496187 384zM98.682476 14.18958335000002L22.54503813 101.20379943l282.79620055 282.79620057L22.54503813 666.79620057l76.13743787 87.01421608L457.61611582 384z"  horiz-adv-x="1024" />

    
    <glyph glyph-name="gengduo" unicode="&#58882;" d="M895.44075381 479.86018779c-52.72310285 0-95.86018779-43.13708489-95.86018772-95.86018779s43.13708489-95.86018779 95.86018772-95.86018779 95.86018779 43.13708489 95.86019058 95.86018779-43.13708489 95.86018779-95.86019058 95.86018779z m-383.44075381 0c-52.72310285 0-95.86018779-43.13708489-95.86018779-95.86018779s43.13708489-95.86018779 95.86018779-95.86018779 95.86018779 43.13708489 95.86018779 95.86018779-43.13708489 95.86018779-95.86018779 95.86018779z m-383.44075381 0c-52.72310285 0-95.86018779-43.13708489-95.86019058-95.86018779s43.13708489-95.86018779 95.86019058-95.86018779 95.86018779 43.13708489 95.86018772 95.86018779-43.13708489 95.86018779-95.86018772 95.86018779z"  horiz-adv-x="1024" />

    
    <glyph glyph-name="huiyuan" unicode="&#58883;" d="M1015.26599062 537.37630095c0 52.72310285-38.34407454 91.0671802-86.27416982 91.06718024s-86.27416983-43.13708489-86.27416981-91.06718024c0-14.37902829 4.79301037-23.96504623 4.79301036-38.3440745-28.75805662-43.13708489-81.48115946-86.27416983-134.20426512-86.27416983-52.72310285 0-91.0671802 62.30912356-110.23921603 110.23921602-9.58601793 19.17203868-19.17203868 38.34407454-28.75805664 52.72310566 23.96504623 19.17203868 38.34407454 47.93009531 38.34407457 81.48115946 0 57.51611319-43.13708489 105.44620849-100.65319813 105.44620851-57.51611319 0-100.65319813-47.93009531-100.65319813-105.44620851 0-33.55106698 14.37902829-62.30912356 38.34407457-81.48115946-9.58601793-14.37902829-19.17203868-33.55106698-28.75805664-52.72310566-23.96504623-52.72310285-62.30912356-110.23921607-110.23921603-110.23921602-52.72310285 0-100.65319813 47.93009531-134.20426512 86.27416983 4.79301037 9.58601793 4.79301037 23.96504623 4.79301036 33.55106697 0 52.72310285-38.34407454 91.0671802-86.27416981 91.06717737s-86.27416983-43.13708489-86.27416982-91.06717737c0-43.13708489 28.75805662-81.48115946 67.10213112-91.06718023 23.96504623-138.99727264 81.48115946-335.51066135 110.23921887-383.44075382 33.55106698-57.51611319 91.0671802-67.10213117 138.99727268-52.72310564 95.86018779 28.75805662 115.03222645 33.55106698 182.13435758 33.55106696 71.89514153 0 95.86018779-9.58601793 186.92736797-38.3440745 43.13708489-14.37902829 100.65319813-4.79301037 134.20426506 57.51611318 28.75805662 52.72310285 91.0671802 263.61551984 115.03222645 388.23376419 43.13708489 14.37902829 71.89514153 47.93009531 71.89514151 91.06717739z"  horiz-adv-x="1024" />

    
    <glyph glyph-name="gaigao" unicode="&#58884;" d="M554.666667 496.64l-107.52 66.56c-22.186667 15.36-52.906667 5.12-52.906667-23.893333v-170.666667c0-30.72 30.72-39.253333 54.613333-23.893333l105.813334 64.853333c35.84 25.6 37.546667 59.733333 0 87.04z m-100.693334-426.666667h-98.986666c-23.893333 0-42.666667-18.773333-42.666667-42.666666s18.773333-42.666667 42.666667-42.666667h98.986666c23.893333 0 42.666667 18.773333 42.666667 42.666667 0 22.186667-18.773333 42.666667-42.666667 42.666666z m529.066667 334.506667c-18.773333 18.773333-42.666667 27.306667-66.56 27.306667s-47.786667-8.533333-66.56-27.306667L624.64 180.90666699999997c-11.946667-11.946667-20.48-27.306667-23.893333-42.666667l-25.6-100.693333c-5.12-20.48 10.24-39.253333 30.72-39.253334 3.413333 0 5.12 0 8.533333 1.706667l102.4 25.6c17.066667 3.413333 30.72 11.946667 42.666667 23.893333l225.28 223.573334c35.84 35.84 35.84 95.573333-1.706667 131.413333zM699.733333 83.626667l-54.613333-13.653334 13.653333 52.906667c1.706667 5.12 5.12 11.946667 8.533334 15.36l47.786666-46.08c-5.12-5.12-10.24-6.826667-15.36-8.533333z m51.2 44.373333l-47.786666 46.08 129.706666 128 47.786667-46.08L750.933333 128z m189.44 187.733333l-20.48-20.48-47.786666 46.08 20.48 20.48c6.826667 6.826667 15.36 10.24 23.893333 10.24 8.533333 0 17.066667-3.413333 23.893333-10.24 6.826667-6.826667 10.24-13.653333 10.24-23.893333 0-6.826667-3.413333-15.36-10.24-22.186667z m-474.453333-109.226666H182.613333c-46.08 0-81.92 37.546667-81.92 81.92V616.106667c0 46.08 37.546667 81.92 81.92 81.92h549.546667c46.08 0 81.92-37.546667 81.92-81.92v-69.973334c0-23.893333 18.773333-42.666667 42.666667-42.666666s42.666667 18.773333 42.666666 42.666666v69.973334c0 92.16-75.093333 168.96-168.96 168.96H182.613333C90.453333 785.066667 13.653333 709.973333 13.653333 616.106667v-327.68c0-92.16 75.093333-168.96 168.96-168.96h285.013334c23.893333 0 42.666667 18.773333 42.666666 42.666666s-20.48 44.373333-44.373333 44.373334z"  horiz-adv-x="1024" />

    
    <glyph glyph-name="lilun" unicode="&#58885;" d="M764.69387022 381.92873836l169.84342163 169.84342164c70.42288238 70.42288238 70.42288238 184.34224947 0 254.76513185C899.32585127 841.74873244 853.7581037 860.39008355 808.19035614 860.39008355c-45.56774756 0-93.20675555-16.57008947-128.41819614-51.78153006l-169.84342164-169.84342164-178.12846577 178.12846577c-45.56774756 45.56774756-118.06189037 45.56774756-163.62963793 0L70.82135703 715.40179794C48.03748386 692.61792355 35.60991645 663.62026667 35.60991645 632.55134815s12.42756741-60.06657539 33.14017894-82.85044979l176.05720536-176.05720413-109.77684504-109.77684624c-24.85513482-24.85513482-41.42522429-55.92405333-45.56774756-91.13549391l-26.92639646-192.62729483c-4.14252206-24.85513482 16.57008947-45.56774756 39.35396386-45.56774756h6.2137837l192.62729483 26.92639646c35.21144059 4.14252206 66.2803591 20.71261275 91.13549391 45.56774756l109.77684624 109.77684504 178.12846577-178.12846577c22.78387317-22.78387317 51.78153127-33.14018016 82.85044978-33.14018016 28.99765689 0 60.06657539 10.35630577 82.85044858 33.14018016l99.42053926 99.42053925c22.78387317 22.78387317 33.14018016 51.78153127 33.14018016 82.85044858s-12.42756741 60.06657539-33.14018016 82.85044978l-180.1997274 178.12846577z m43.49648592 405.96720239c28.99765689 0 55.92405333-10.35630577 76.63666608-31.06891853s31.06891852-47.63900799 31.06891853-76.63666608c0-28.99765689-10.35630577-55.92405333-31.06891853-76.63666487l-12.4275674-12.42756741-153.27333096 153.27333096 12.42756741 12.4275674c20.71261275 20.71261275 47.63900799 31.06891852 76.63666487 31.06891853zM259.30612978 462.70792651l47.639008 47.6390092c14.49882905 14.49882905 14.49882905 37.28270222 0 51.78153006s-37.28270222 14.49882905-49.71026963 0l-47.63900799-47.63900799-35.2114418 35.21144058 47.6390092 47.6390092c14.49882905 14.49882905 14.49882905 37.28270222 0 51.78153006s-37.28270222 14.49882905-49.71026962 0l-47.63900921-47.63900799-4.14252206 4.14252206c-8.28504534 8.28504534-12.42756741 18.64135111-12.42756742 31.06891853s4.14252206 22.78387317 12.42756742 31.06891851l99.42053925 99.42053926c16.57008947 16.57008947 45.56774756 16.57008947 62.13783705 0l176.05720534-176.05720413-161.5583763-165.70089957-37.28270223 37.28270222z m33.14017895-426.67981392l-149.13080889-20.71261275 20.71261275 149.13080889c0 4.14252206 2.07126164 8.28504534 2.07126164 12.42756741l138.77450191-138.77450191c-4.14252206-2.07126164-8.28504534-2.07126164-12.42756741-2.07126164z m70.42288238 45.56774757l-153.27333095 153.27333095L667.34459259 694.68918518l153.27333096-153.27333095-457.74873244-459.81999407z m528.17161481 10.35630576l-99.42053925-99.42053925c-16.57008947-16.57008947-45.56774756-16.57008947-62.13783704 0l-2.07126164 2.07126164 47.6390092 47.63900799c14.49882905 14.49882905 14.49882905 37.28270222 0 51.78153126s-37.28270222 14.49882905-49.71026963 0L677.70089836 46.38441836000004l-35.21144058 35.2114418 47.63900799 47.63900799c14.49882905 14.49882905 14.49882905 37.28270222 0 51.78153126s-37.28270222 14.49882905-49.71026963 0l-47.63900799-47.63900919-39.35396386 39.35396386 161.5583763 161.55837629 178.12846697-178.12846576c8.28504534-8.28504534 12.42756741-18.64135111 12.42756742-31.06891853-2.07126164-14.49882905-6.2137837-24.85513482-14.49882906-33.14018016z"  horiz-adv-x="1024" />

    
    <glyph glyph-name="zuofanye" unicode="&#58886;" d="M327.75135689 509.92385181l372.2840501 372.28405007 122.15570355-122.15570354-372.28405011-372.28405013 372.28405011-372.28405007-122.15570355-122.15570355-494.43975364 494.43975362z"  horiz-adv-x="1024" />

    
    <glyph glyph-name="youfanye" unicode="&#58887;" d="M700.7939255 515.9919999599999L328.5098754 888.27605003l-122.15570353-122.15570354 366.46711063-372.28405013-366.46711063-372.28405007 122.15570353-122.15570355 494.43975366 494.43975362z"  horiz-adv-x="1024" />

    
    <glyph glyph-name="ruanjian" unicode="&#58888;" d="M625.91936831 425.42522429H781.2639609c126.34693571 0 227.83873539 101.4918009 227.8387354 227.83873661S907.61089539 881.1026963 781.2639609 881.1026963s-227.83873539-101.4918009-227.83873661-227.8387354v-155.34459259c0-39.35396386 33.14018016-72.49414281 72.49414402-72.49414402zM656.98828683 653.2639609c0 68.35162075 55.92405333 124.27567408 124.27567407 124.27567408s124.27567408-55.92405333 124.27567408-124.27567408-55.92405333-124.27567408-124.27567408-124.27567407h-124.27567407v124.27567407zM242.7360391 881.1026963C116.38910461 881.1026963 14.8973037 779.61089539 14.8973037 653.2639609s101.4918009-227.83873539 227.8387354-227.83873661h155.34459259c39.35396386 0 72.49414281 33.14018016 72.49414402 72.49414402V653.2639609c0 126.34693571-101.4918009 227.83873539-227.83873661 227.8387354z m124.27567407-352.11440947h-124.27567407c-68.35162075 0-124.27567408 55.92405333-124.27567408 124.27567407s55.92405333 124.27567408 124.27567408 124.27567408 124.27567408-55.92405333 124.27567407-124.27567408v-124.27567407z m414.25224773-186.41351112h-155.34459259c-39.35396386 0-72.49414281-33.14018016-72.49414402-72.49414402V114.73603909999997c0-126.34693571 101.4918009-227.83873539 227.83873661-227.8387354s227.83873539 101.4918009 227.8387354 227.8387354-101.4918009 227.83873539-227.8387354 227.83873661z m0-352.11441069c-68.35162075 0-124.27567408 55.92405333-124.27567407 124.27567408v124.27567407h124.27567407c68.35162075 0 124.27567408-55.92405333 124.27567408-124.27567407s-55.92405333-124.27567408-124.27567408-124.27567408zM398.08063169 342.57477571000004H242.7360391c-126.34693571 0-227.83873539-101.4918009-227.8387354-227.83873661s101.4918009-227.83873539 227.8387354-227.8387354 227.83873539 101.4918009 227.83873661 227.8387354v155.34459259c0 39.35396386-33.14018016 72.49414281-72.49414402 72.49414402zM367.01171317 114.73603909999997c0-68.35162075-55.92405333-124.27567408-124.27567407-124.27567408s-124.27567408 55.92405333-124.27567408 124.27567408 55.92405333 124.27567408 124.27567408 124.27567407h124.27567407v-124.27567407z"  horiz-adv-x="1024" />

    
    <glyph glyph-name="sousuo" unicode="&#58889;" d="M975.53726902 34.98370305000003l-114.52097207 114.5209721c54.53379733 76.34731369 81.80069437 163.60138869 81.80069436 267.2156026 0 256.30884121-207.22842465 463.53726902-458.08388836 463.53726906-256.30884121 0-458.08388835-207.22842465-458.08388835-463.53726906s207.22842465-463.53726902 458.08388835-463.53726906c98.16083323 0 190.86828575 32.72027775 261.7622219 81.80069436l114.5209721-114.52097207c16.36013886-16.36013886 38.17365843-21.81351956 59.98717476-21.81351638 21.81351956 0 43.62703593 5.45338068 59.98717484 21.81351638 27.26689705 27.26689705 27.26689705 81.80069437-5.45337753 114.52097207zM184.79722258 411.26689705c0 163.60138869 130.88111099 299.93588035 299.93588037 299.93588037 163.60138869 0 299.93588035-136.33449163 299.93587715-299.93588037S653.78786912 111.3310199 484.73310295 111.3310199c-163.60138869 0-299.93588035 136.33449163-299.93588037 299.93587715z"  horiz-adv-x="1024" />

    
    <glyph glyph-name="sheying" unicode="&#58890;" d="M885.37935899 693.30834394H755.02798442v41.97756145c0 61.86166931-50.81494186 112.67661117-112.67661115 112.67661114H381.64862673c-61.86166931 0-112.67661117-50.81494186-112.67661115-112.67661114V693.30834394h-130.35137457C63.5029011 693.30834394 3.85057755 631.4466759300001 3.85057755 558.53828047v-501.52138779c0-75.11774121 59.65232355-134.77006476 134.77006346-134.77006347h746.75871798c75.11774121 0 134.77006476 59.65232355 134.77006346 134.77006347V558.53828047c0 72.90839547-59.65232355 134.77006476-134.77006346 134.77006347zM357.34582738 735.28590539c0 13.2560719 11.04672615 24.30279805 24.30279935 24.30279804h260.70274654c13.2560719 0 24.30279805-11.04672615 24.30279935-24.30279804V693.30834394H357.34582738v41.97756145z m574.42978327-680.47835718c0-26.51214381-19.88410785-46.39625165-46.39625166-46.39625164H138.62064101c-26.51214381 0-46.39625165 22.0934536-46.39625166 46.39625164V558.53828047c0 26.51214381 19.88410785 46.39625165 46.39625166 46.39625165h746.75871798c26.51214381 0 46.39625165-19.88410785 46.39625166-46.39625165v-503.73073226zM512 527.60744516c-121.51399286 0-220.93453212-99.42053925-220.93453212-220.93453082s99.42053925-220.93453212 220.93453212-220.93453212 220.93453212 99.42053925 220.93453212 220.93453212-99.42053925 220.93453212-220.93453212 220.93453082z m0-353.49524984c-72.90839547 0-132.56071902 59.65232355-132.56071902 132.56071902s59.65232355 132.56071902 132.56071902 132.56071901 132.56071902-59.65232355 132.56071902-132.56071901-59.65232355-132.56071902-132.56071902-132.56071902z m-276.16816418 353.49524984c-24.30279805 0-44.18690591-19.88410785-44.18690719-44.18690591s19.88410785-44.18690591 44.18690719-44.1869059 44.18690591 19.88410785 44.18690591 44.1869059-19.88410785 44.18690591-44.18690591 44.18690591z"  horiz-adv-x="1024" />

    
    <glyph glyph-name="jiaoliu" unicode="&#58893;" d="M362.48083001 411.18530333c0-40.77795555 33.01072555-75.73048889 73.7886811-75.7304889 40.77795555 0 73.7886811 33.01072555 73.7886811 75.7304889 0 40.77795555-33.01072555 75.73048889-73.7886811 75.73048888-40.77795555 0-73.7886811-34.95253333-73.7886811-75.73048888z m332.04906666 75.73048888c-40.77795555 0-73.7886811-33.01072555-73.78868224-75.73048888 0-40.77795555 33.01072555-75.73048889 73.78868224-75.7304889 40.77795555 0 73.7886811 33.01072555 73.78868111 75.7304889 0 40.77795555-33.01072555 75.73048889-73.78868111 75.73048888z m283.50388111-15.53445888h-5.82542223c-50.48699221 176.70447445-209.7152 254.37676999-275.73665222 287.38749668-1.94180779 1.94180779-5.82542222 1.94180779-9.70903666 3.88361444 9.70903666 7.76723001 19.41807445 19.41807445 21.3598811 34.95253333 3.88361443 17.47626667-1.94180779 33.01072555-13.5926511 46.60337777-9.70903666 11.65084445-33.01072555 34.95253333-161.17001557 19.41807446-124.27567445-15.53445888-423.31401443-116.50844445-483.51004444-394.18690446H45.96622222c-21.3598811 0-38.83614777-17.47626667-38.83614777-38.83614777V306.32770332999996c0-21.3598811 17.47626667-38.83614777 38.83614777-38.83614778h5.82542223c44.66156999-217.48243001 225.24965888-312.63099221 400.01232554-330.10725888 0-21.3598811 17.47626667-38.83614777 38.83614891-38.8361489H647.9265189c21.3598811 0 38.83614777 17.47626667 38.83614777 38.8361489v93.20675556c0 21.3598811-17.47626667 38.83614777-38.83614777 38.83614777h-157.2864c-21.3598811 0-38.83614777-17.47626667-38.83614891-38.83614777v-5.82542222c-100.97398557 13.59265223-271.85303666 62.13783666-316.51460665 248.55134777 11.65084445 5.82542222 21.3598811 19.41807445 21.35988111 34.95253333v124.27567446c0 15.53445888-7.76723001 27.18530333-21.35988111 34.95253333C201.31081443 731.58352555 539.18530333 782.0705189 543.0689189 782.0705189c21.3598811 1.94180779 38.83614777 3.88361443 54.37060665 3.88361443-3.88361443-7.76723001-5.82542222-17.47626667-5.82542222-27.18530332 0-13.59265223 5.82542222-33.01072555 25.24349667-52.4288 7.76723001-7.76723001 21.3598811-13.59265223 40.77795555-23.30168889 58.25422222-29.12711111 178.6462811-89.32314112 227.19146667-217.48243001-11.65084445-5.82542222-19.41807445-19.41807445-19.41807445-33.01072554v-124.27567446c0-21.3598811 17.47626667-38.83614777 38.8361489-38.83614777H978.03377778c21.3598811 0 38.83614777 17.47626667 38.83614777 38.83614777v124.27567446c0 21.3598811-17.47626667 38.83614777-38.83614777 38.83614776z"  horiz-adv-x="1024" />

    
    <glyph glyph-name="kecheng" unicode="&#58894;" d="M611.42053925-68.91579038999998c-13.2560719 0-24.30279805 4.4186902-35.3495255 11.04672745-17.6747621 11.04672615-26.51214381 30.93083402-26.51214379 53.02428759V339.81309409000005c0 35.3495255 22.0934536 66.2803595 55.23363335 79.53643141l298.26161778 112.67661115c19.88410785 6.62803595 41.97756145 4.4186902 59.65232355-6.62803595 17.6747621-11.04672615 26.51214381-30.93083402 26.51214381-53.0242876v-344.65786943c0-35.3495255-22.0934536-66.2803595-55.23363337-79.5364314l-298.26161777-112.67661117c-8.8373817-2.20934575-15.46541765-4.4186902-24.30279806-4.41869149z m24.30279806 406.51953874v-311.51768968l265.12143804 101.629885V439.23363335l-265.12143804-101.629885zM412.57946075-68.91579038999998c-6.62803595 0-15.46541765 2.20934575-22.09345361 4.41869149L92.22438935 48.17951227000003c-33.14017975 13.2560719-55.23363335 44.18690591-55.23363204 79.5364314V472.3738131c0 19.88410785 11.04672615 39.7682157 26.51214379 53.0242876 17.6747621 11.04672615 39.7682157 15.46541765 59.65232355 6.62803595l298.26161778-112.67661115c33.14017975-13.2560719 55.23363335-44.18690591 55.23363207-79.53643141v-344.65786944c0-19.88410785-11.04672615-39.7682157-26.51214381-53.02428759-13.2560719-6.62803595-26.51214381-11.04672615-37.55886994-11.04672745z m-289.4242361 196.63173406l265.12143804-101.629885V337.60374835000005l-265.12143804 101.629885v-311.51768968zM512 474.58315757c-8.8373817 0-19.88410785 2.20934575-28.72148955 4.41869149l-362.33263154 130.35137325c-26.51214381 8.8373817-41.97756145 35.3495255-41.97756145 61.86166932 0 28.72148955 19.88410785 50.81494186 46.39625166 59.65232355L489.9065464 834.70644464c15.46541765 4.4186902 30.93083402 4.4186902 46.39625165 0l364.5419773-101.629885c26.51214381-6.62803595 46.39625165-30.93083402 46.39625165-59.65232357 0-28.72148955-15.46541765-53.02428761-41.97756016-61.86166801l-362.33263282-130.35137455c-11.04672615-4.4186902-19.88410785-6.62803595-30.93083402-6.62803594z m-296.05227202 194.4223883L514.20934575 560.74762492l293.84292627 106.04857521L512 750.75132303l-296.05227202-81.74577716z m-66.28035951-19.88410784z m724.66526306 44.18690591z"  horiz-adv-x="1024" />

    
    <glyph glyph-name="zhoulian" unicode="&#58895;" d="M807.15472555 772.3614811h-69.90506667V811.19763001c0 23.30168889-19.41807445 44.66156999-42.71976221 44.66156999s-42.71976334-19.41807445-42.71976334-44.66156999v-38.83614891H372.18986667V811.19763001c0 23.30168889-19.41807445 44.66156999-42.71976334 44.66156999s-42.71976334-19.41807445-42.71976221-44.66156999v-38.83614891h-69.90506667c-100.97398557 0-184.47170333-83.4977189-184.47170446-184.47170332v-489.33546667c0-100.97398557 81.55591111-184.47170333 184.47170446-184.47170332h592.25125888c100.97398557 0 184.47170333 83.4977189 184.47170333 184.47170332V587.88977778c-1.94180779 100.97398557-83.4977189 184.47170333-186.41351111 184.47170332z m97.09037112-675.74897777c0-52.4288-42.71976334-97.09036999-97.09037112-97.09037H216.84527445c-52.4288 0-97.09036999 42.71976334-97.09037112 97.09037V587.88977778c0 52.4288 42.71976334 97.09036999 97.09037112 97.09036999h69.90506667V636.43496334c0-23.30168889 19.41807445-44.66156999 42.71976221-44.66157113s42.71976334 19.41807445 42.71976334 44.66157113v48.54518443h277.67845888V636.43496334c0-23.30168889 19.41807445-44.66156999 42.71976334-44.66157113s42.71976334 19.41807445 42.71976334 44.66157113v48.54518443h69.90506667c52.4288 0 97.09036999-42.71976334 97.09036999-97.09036999v-491.27727445z m-254.37677112 368.94340778l-153.40278443-155.34459221-83.4977189 83.49771776c-19.41807445 19.41807445-50.48699221 19.41807445-69.90506667 0s-19.41807445-52.4288 0-71.84687332l118.45025224-118.45025223c9.70903666-9.70903666 23.30168889-15.53445888 34.95253333-15.53445888 13.59265223 0 25.24349667 5.82542222 34.95253333 15.53445888l188.35531776 190.29712555c19.41807445 19.41807445 19.41807445 52.4288 0 71.84687445s-50.48699221 19.41807445-69.90506666 0z"  horiz-adv-x="1024" />

    
    <glyph glyph-name="haibao" unicode="&#58896;" d="M872.39945482 787.89594075H151.60054518c-70.42288238 0-126.34693571-55.92405333-126.34693571-126.34693573v-555.09801004c0-33.14018016 12.42756741-62.13783703 31.06891852-84.92171143 18.64135111-26.92639645 49.71026963-43.49648592 80.77918815-43.49648593h733.22647703c6.2137837 0 14.49882905 0 20.71261275 2.07126163 37.28270222 4.14252206 64.20909868 18.64135111 82.85044979 43.49648593 8.28504534 12.42756741 14.49882905 24.85513482 16.57008947 41.42522429 4.14252206 12.42756741 6.2137837 26.92639645 6.21378371 39.35396386V661.54900502c2.07126164 70.42288238-53.85279169 126.34693571-124.27567407 126.34693573z m6.2137837-724.9414317H151.60054518c-10.35630577 0-20.71261275 4.14252206-28.99765687 10.35630577v4.14252207l149.13080888 167.77216c22.78387317 20.71261275 39.35396386 31.06891852 53.8527917 31.0689185 12.42756741 0 28.99765689-12.42756741 49.71026963-35.21144057 22.78387317-24.85513482 55.92405333-53.85279169 99.42053926-53.85279171 28.99765689 0 55.92405333 16.57008947 80.77918814 45.56774636l126.34693572 159.48711587c14.49882905 16.57008947 33.14018016 26.92639645 51.78153005 22.78387318 20.71261275-2.07126164 35.21144059-18.64135111 45.56774756-43.49648593l122.20441244-250.62260978c6.2137837-16.57008947 8.28504534-28.99765689 8.28504534-37.28270222-6.2137837-8.28504534-16.57008947-18.64135111-31.06891851-20.71261154z m37.28270223 223.69621333l-60.06657541 122.20441244c-20.71261275 51.78153127-62.13783703 84.92171022-109.77684624 93.20675555-47.63900799 6.2137837-95.27801719-14.49882905-128.41819613-55.92405334L491.28738725 286.65072238000005c-10.35630577-12.42756741-16.57008947-14.49882905-18.64135111-14.49882905 0 0-12.42756741 0-35.21144059 26.92639645-24.85513482 28.99765689-62.13783703 60.06657539-107.7055846 62.13783705-37.28270222 2.07126164-74.56540445-16.57008947-113.91936709-55.92405334l-105.63432296-120.13315201v476.39008354c0 24.85513482 18.64135111 43.49648592 43.49648593 43.49648593h720.79890962c24.85513482 0 43.49648592-18.64135111 43.49648593-43.49648593v-374.89828264zM373.22549689 628.4088260799999c-53.85279169 0-97.34927762-43.49648592-97.34927764-97.34927883s43.49648592-97.34927762 97.34927764-97.34927762 97.34927762 43.49648592 97.34927882 97.34927762-43.49648592 97.34927762-97.34927882 97.34927883z m0-132.56071941c-18.64135111 0-35.21144059 16.57008947-35.21144059 35.21144058 0 18.64135111 16.57008947 35.21144059 35.21144059 35.2114418 18.64135111 0 35.21144059-16.57008947 35.21144179-35.2114418 0-18.64135111-14.49882905-35.21144059-35.21144179-35.21144058z"  horiz-adv-x="1024" />

    
    <glyph glyph-name="shuaxin" unicode="&#58897;" d="M964.9455941 725.2603794199999c-31.02366954 6.20473535-62.04734274-12.40946708-74.45680977-43.43314031l-24.81893783-99.27574757C785.00830134 725.2603794199999 636.09468182 818.33139165 462.36212801 818.33139165c-260.59883424 0-471.55979652-223.37042937-446.74085871-483.96926364 24.81893781-210.96096229 198.55149154-372.28404897 415.71718558-384.69351966 111.6852147-6.20473535 217.16569401 24.81893781 297.82723913 93.07101223 24.81893781 18.61420243 24.81893781 55.84260732 6.20473536 80.66154518-18.61420243 18.61420243-49.63787199 18.61420243-68.25207445 6.20473534-49.63787199-37.22840491-130.29941714-68.25207443-204.75622691-68.25207808-186.14202447 0-328.85090864 142.70888423-328.85091234 328.85091233 0 179.93728908 142.70888423 328.85090864 328.85091234 328.8509087 124.09468182 0 235.77989649-68.25207443 291.62250381-167.52782204l-86.8662769 18.61420246c-31.02366954 6.20473535-62.04734274-12.40946708-74.4568098-43.43314024-6.20473535-31.02366954 6.20473535-62.04734274 43.4331367-68.25207446l229.57516468-62.04734269c31.02366954-6.20473535 62.04734274 12.40946708 74.45680981 43.43314024l62.04734269 223.37042935c12.40946708 24.81893781-6.20473535 62.04734274-37.2284049 62.04734275z"  horiz-adv-x="1024" />

    
    <glyph glyph-name="app2" unicode="&#58898;" d="M742.06445282 869.6916217200001h-460.12890564c-56.23797637 0-102.25086698-46.01289055-102.25086698-102.25086699v-766.88150946c0-56.23797637 46.01289055-102.25086698 102.25086698-102.25086699h460.12890564c56.23797637 0 102.25086698 46.01289055 102.25086698 102.25086699v766.88150946c0 56.23797637-46.01289055 102.25086698-102.25086698 102.25086699z m-230.06445282-869.13237645c-40.90034618 0-76.68815097 35.78780478-76.68815097 76.6881509s35.78780478 76.68815097 76.68815097 76.68815101 76.68815097-35.78780478 76.68815097-76.68815101-35.78780478-76.68815097-76.68815097-76.6881509z"  horiz-adv-x="1024" />

    
    <glyph glyph-name="lujing" unicode="&#58899;" d="M300.34299221 492.74121443c-79.61410333 0-143.69374777-64.07964445-143.69374776-143.69374776 0-79.61410333 64.07964445-143.69374777 143.69374776-143.69374777 79.61410333 0 143.69374777 64.07964445 143.69374891 143.69374777-1.94180779 79.61410333-66.02145223 143.69374777-143.69374891 143.69374776z m0-207.77339221c-34.95253333 0-66.02145223 29.12711111-66.02145109 66.02145223 0 34.95253333 29.12711111 66.02145223 66.02145109 66.0214511s66.02145223-29.12711111 66.02145224-66.0214511c-1.94180779-36.89434112-31.0689189-66.02145223-66.02145224-66.02145223zM779.96942222 714.10725888c-58.25422222 0-104.8576-46.60337778-104.8576-104.8576 0-58.25422222 46.60337778-104.8576 104.8576-104.8576 58.25422222 0 104.8576 46.60337778 104.8576 104.8576 0 58.25422222-46.60337778 104.8576-104.8576 104.8576z m0-151.46097778c-25.24349667 0-46.60337778 21.3598811-46.60337777 46.60337778 0 25.24349667 21.3598811 46.60337778 46.60337777 46.60337778 25.24349667 0 46.60337778-21.3598811 46.60337778-46.60337778 0-25.24349667-21.3598811-46.60337778-46.60337778-46.60337778z m233.01688889-351.46713998c-3.88361443 29.12711111-19.41807445 54.37060779-34.95253333 73.7886811-17.47626667 19.41807445-36.89434112 36.89434112-56.31241444 50.48699221-23.30168889 15.53445888-46.60337778 29.12711111-71.84687445 40.77795556l69.90506666 73.78868224 1.94180779 1.94180665c21.3598811 25.24349667 34.95253333 44.66156999 44.66156999 58.25422222 9.70903666 17.47626667 29.12711111 54.37060779 29.12711112 95.14856335 0 104.8576-79.61410333 213.59881443-213.59881444 213.59881443-137.86832555 0-213.59881443-110.68302222-213.59881558-213.59881443 0-42.71976334 19.41807445-81.55591111 29.12711112-97.09037 11.65084445-17.47626667 31.0689189-44.66156999 44.66157112-58.25422222l87.38133334-93.20675556c13.59265223-15.53445888 33.01072555-23.30168889 52.4288-23.30168888h3.88361444c38.83614777-11.65084445 75.73048889-25.24349667 106.79940778-46.60337778 34.95253333-21.3598811 64.07964445-52.4288 69.90506667-85.43952668 5.82542222-33.01072555-11.65084445-67.96325888-42.71976335-93.20675556-31.0689189-25.24349667-69.90506667-44.66156999-110.68302222-58.25422222C725.59881443 24.765630009999995 636.27567445 15.056592209999963 548.89434112 15.056592209999963c-52.4288 0-104.8576 3.88361443-155.34459335 11.65084445l97.09037113 102.91579335 1.94180665 1.94180665c29.12711111 34.95253333 48.54518557 60.19603001 58.25422222 79.61410446l1.94180778 1.94180665c11.65084445 19.41807445 38.83614777 73.7886811 38.83614778 132.04290446 0 145.63555555-108.74121443 295.15472555-291.27111112 295.15472555-188.3553189 0-291.27111111-151.46097778-291.27111111-295.15472555 0-58.25422222 25.24349667-112.62483001 38.83614891-133.98471111 15.53445888-23.30168889 42.71976334-60.19603001 60.19602887-79.61410446l120.39206002-128.15928889c11.65084445-11.65084445 25.24349667-21.3598811 40.77795555-27.18530332h1.94180665c5.82542222-1.94180779 9.70903666-1.94180779 15.53446002-3.88361444 87.38133333-19.41807445 174.76266667-25.24349667 262.144-23.30168889 93.20675555 3.88361443 186.41351111 15.53445888 275.73665109 46.60337778 44.66156999 15.53445888 89.32314112 36.89434112 128.15928889 69.90506667 19.41807445 17.47626667 36.89434112 36.89434112 48.54518557 64.07964444 13.59265223 25.24349667 17.47626667 52.4288 11.65084444 81.55591111z m-225.24965888 186.41351111c-1.94180779-1.94180779-5.82542222-3.88361443-7.76723001-3.88361557-3.88361443 0-7.76723001 1.94180779-9.70903665 3.88361557l-87.38133334 93.20675556c-11.65084445 11.65084445-29.12711111 34.95253333-36.89434112 50.48699221l-1.94180778 3.88361443c-5.82542222 9.70903666-17.47626667 34.95253333-17.47626667 62.1378378 0 77.67229667 52.4288 155.34459221 155.34459335 155.34459222 97.09036999 0 155.34459221-79.61410333 155.34459221-155.34459222 0-27.18530333-13.59265223-56.31241443-21.3598811-66.02145223-5.82542222-11.65084445-19.41807445-27.18530333-36.89434112-50.48699221l-91.26494777-93.20675556zM311.99383666 53.89274111999998c-1.94180779-3.88361443-9.70903666-5.82542222-11.65084445-5.82542222-1.94180779 0-5.82542222 1.94180779-7.76722887 1.94180665-1.94180779 1.94180779-3.88361443 3.88361443-5.82542222 3.88361557l-120.39206002 128.15928889c-15.53445888 17.47626667-38.83614777 48.54518557-52.4288 69.90506666l-1.94180665 3.88361444C104.22044445 267.49155555000004 86.74417778 306.32770332999996 86.74417778 343.22204445c0 106.79940779 73.7886811 215.54062222 213.59881443 215.54062222 133.98471111 0 213.59881443-110.68302222 213.59881558-215.54062222 0-40.77795555-21.3598811-81.55591111-27.18530446-93.20675556-9.70903666-15.53445888-27.18530333-38.83614777-52.4288-69.90506667L315.87745223 53.89274111999998h-3.88361557z"  horiz-adv-x="1024" />

    
    <glyph glyph-name="xiaoxi" unicode="&#58900;" d="M499.36218217 851.59926026c-227.48072122-16.85042462-412.83538214-206.4176923-425.47319997-442.32362456-8.42521107-130.59078523 37.91345351-256.96896368 122.1655717-353.85889967 88.46472492-96.889936 206.4176923-151.65381413 337.00847501-151.65381416 42.12606033 0 88.46472492 8.42521107 130.59078522 21.06302891 25.2756357 8.42521107 54.76387813 8.42521107 80.03951385 8.42521358l96.88993599-12.63781785c16.85042462-4.21260677 37.91345351 4.21260677 50.55127138 16.85042216 12.63781783 12.63781783 21.06302891 29.48824246 21.06302893 46.33866705v75.82690706c0 29.48824246 4.21260677 58.97648247 16.85042461 88.46472494 33.70084676 71.6143003 63.18908923 151.65381413 63.18908924 235.90593228 0 265.39417475-223.2681144 484.44968487-492.87489596 467.59926026z m315.94544613-661.37913469c-21.06302891-42.12606033-29.48824246-92.67733168-29.48824248-139.01599632v-4.21260428l-29.48823997 4.21260428c-42.12606033 4.21260677-88.46472492 0-130.59078526-12.63781784-29.48824246-8.42521107-63.18908923-12.63781783-96.88993597-12.63781782-92.67733168 0-181.14205659 37.91345351-244.33114584 109.52775628-63.18908923 71.6143003-96.889936 164.29163198-88.46472488 261.18156796 8.42521107 172.71684306 143.22860307 311.73283933 307.52023503 324.3706572h21.0630289c185.35466089 0 337.00847503-155.86642092 337.00847503-345.4336861 4.21260677-58.97648247-16.85042462-122.16557166-46.33866456-185.35466336z m-353.85889966 248.54375256c-33.70084676 0-63.18908923-29.48824246-63.18908923-63.1890892s29.48824246-63.18908923 63.18908923-63.18908923 63.18908923 29.48824246 63.18908919 63.18908923-29.48824246 63.18908923-63.18908919 63.1890892z m248.5437501 0c-33.70084676 0-63.18908923-29.48824246-63.18908923-63.1890892s29.48824246-63.18908923 63.18908923-63.18908923 63.18908923 29.48824246 63.18908924 63.18908923-25.2756357 63.18908923-63.18908924 63.1890892z"  horiz-adv-x="1024" />

    


  </font>
</defs>
</svg>
