<?xml version="1.0" encoding="utf-8"?>
<!-- Generator: Adobe Illustrator 19.0.0, SVG Export Plug-In . SVG Version: 6.00 Build 0)  -->
<svg version="1.1" id="图层_1" xmlns="http://www.w3.org/2000/svg" xmlns:xlink="http://www.w3.org/1999/xlink" x="0px" y="0px"
	 viewBox="0 0 34 34" style="enable-background:new 0 0 34 34;" xml:space="preserve">
<style type="text/css">
	.st0{fill:#FFFFFF;}
	.st1{fill:#34ACFE;}
	.st2{fill:#FF5959;}
	.st3{fill:#330000;}
</style>
<g id="XMLID_16_">
	<path id="XMLID_25_" class="st0" d="M31.1,20.5c0,6.6-6.7,12-14.9,12s-14.9-5.4-14.9-12s6.7-12,14.9-12S31.1,13.9,31.1,20.5"/>
	<path id="XMLID_24_" class="st1" d="M33.7,7.2c0.4-0.5,0.5-1.2,0-1.7l-2.5-2.9c-0.4-0.5-1.1-0.6-1.7-0.3c-1.2,0.8-3.1,1.7-5.9,0.4
		c0,0-3.5-1.7-7.3-1.7C7.3,1,0,8.3,0,17.2c0,4.7,2,9,5.2,11.9l-0.7-3.7c-0.1-0.6-0.3-1.2-0.6-1.8c-0.8-1.3-1.2-2.9-1.2-4.5
		c0-3.5,2.1-6.6,5.1-8.1l0,0c1.7,2.9,4.9,4.9,8.5,4.9s6.8-2,8.5-4.9l0,0c3,1.4,5.1,4.5,5.1,8.1c0,1.7-0.5,3.2-1.2,4.5
		c-0.3,0.5-0.5,1-0.6,1.5l-0.7,3.9c3.2-3,5.1-7.2,5.2-11.9c0-1.4,0-2.2-0.6-4.3C31.4,10.6,32.7,8.3,33.7,7.2"/>
	<path id="XMLID_23_" class="st1" d="M3.6,27.5c0,0-2.4-3.3-3-6c-0.4-2.1,3.5,5.7,3.5,5.7L3.6,27.5z"/>
	<path id="XMLID_22_" class="st1" d="M29,27.5c0,0,1.4-1.5,2.7-5.3c0.7-2-3.7,4.9-3.7,4.9L29,27.5z"/>
	<path id="XMLID_21_" class="st1" d="M16.3,33c-5,0-9.8-2.1-12.7-5.5L4.2,27c2.8,3.3,7.3,5.2,12.1,5.2s9.3-1.9,12.1-5.2l0.6,0.5
		C26.1,31,21.3,33,16.3,33"/>
	<path id="XMLID_20_" class="st2" d="M16.5,30.6c-5.7,0-7.1-4.2-7.4-5.9c-0.1-0.5,0.2-1,0.8-1.1c2.6-0.6,4.9-0.6,6.6-0.6h0.1
		c1.7,0,4,0,6.6,0.6c0.5,0.1,0.9,0.6,0.8,1.1C23.5,26.4,22.1,30.6,16.5,30.6"/>
	<path id="XMLID_19_" class="st0" d="M21.1,26.5c-0.6-0.1-2.6-0.4-4.9-0.4c-2.4,0-4.1,0.3-4.5,0.4c0,0,0,0-0.1,0
		c-0.1,0-0.3-0.1-0.3-0.2c0,0-0.1-0.3-0.1-0.3c0-0.1-0.1-0.3-0.1-0.4c0,0,0-0.1,0-0.1c-0.1-0.5,0.2-0.9,0.7-1
		c0.3-0.1,0.5-0.1,0.6-0.1c0,0,0.1,0,0.1,0c0.2,0,0.4-0.1,0.6-0.1c0.2,0,0.4-0.1,0.6-0.1c0.2,0,0.4,0,0.6,0c0.2,0,0.4,0,0.6,0l0.5,0
		l1.4,0l0.5,0c0,0,0.6,0,0.6,0c0.2,0,0.3,0,0.5,0c0.3,0,0.4,0,0.6,0c0.2,0,0.4,0,0.6,0.1c0.2,0,0.4,0.1,0.6,0.1c0,0,0.1,0,0.1,0
		c0.2,0,0.4,0.1,0.6,0.1c0.5,0.1,0.8,0.6,0.7,1c0,0-0.1,0.3-0.1,0.3l-0.1,0.5C21.5,26.4,21.3,26.5,21.1,26.5
		C21.2,26.5,21.1,26.5,21.1,26.5"/>
	<path id="XMLID_18_" class="st3" d="M13.8,20.5c0.1,0,0.2,0,0.3-0.1c0.3-0.2,0.4-0.6,0.2-0.9c0-0.1-0.9-1.5-2.6-1.9
		c-1.3-0.3-2.8,0.1-4.3,1l-1.5-0.8c-0.1-0.1-0.2,0.1-0.2,0.2L7,20c0.2,0.2,0.6,0.2,0.8,0.1c1.4-1,2.6-1.4,3.7-1.1
		c1.2,0.3,1.8,1.3,1.8,1.3C13.4,20.4,13.6,20.5,13.8,20.5"/>
	<path id="XMLID_17_" class="st3" d="M19.7,20.5c-0.1,0-0.2,0-0.3-0.1c-0.3-0.2-0.4-0.6-0.2-0.9c0-0.1,0.9-1.5,2.6-1.9
		c1.3-0.3,2.8,0.1,4.3,1l1.5-0.8c0.1-0.1,0.2,0.1,0.2,0.2L26.6,20c-0.2,0.2-0.6,0.2-0.8,0.1c-1.4-1-2.6-1.4-3.7-1.1
		c-1.2,0.3-1.8,1.3-1.8,1.3C20.1,20.4,19.9,20.5,19.7,20.5"/>
</g>
</svg>
