<?xml version="1.0" encoding="utf-8"?>
<!-- Generator: Adobe Illustrator 19.0.0, SVG Export Plug-In . SVG Version: 6.00 Build 0)  -->
<svg version="1.1" id="图层_1" xmlns="http://www.w3.org/2000/svg" xmlns:xlink="http://www.w3.org/1999/xlink" x="0px" y="0px"
	 viewBox="0 0 34 34" style="enable-background:new 0 0 34 34;" xml:space="preserve">
<style type="text/css">
	.st0{fill:#FFFFFF;}
	.st1{fill:#34ACFE;}
	.st2{fill:#FF5959;}
	.st3{display:none;}
	.st4{display:inline;fill:#FF8383;}
	.st5{fill:#330000;}
	.st6{fill:#FFB005;}
</style>
<g id="XMLID_21_">
	<g id="XMLID_47_">
		<g id="XMLID_55_">
			<ellipse id="XMLID_56_" class="st0" cx="16.3" cy="20.5" rx="14.9" ry="12"/>
		</g>
		<g id="XMLID_53_">
			<path id="XMLID_54_" class="st1" d="M33.7,7.2c0.4-0.5,0.5-1.2,0-1.7l-2.5-2.9c-0.4-0.5-1.1-0.6-1.7-0.3
				c-1.2,0.8-3.1,1.7-5.9,0.4c0,0-3.5-1.7-7.3-1.7C7.3,1,0,8.3,0,17.2c0,4.7,2,9,5.2,11.9l-0.7-3.7c-0.1-0.6-0.3-1.2-0.6-1.8
				c-0.8-1.3-1.2-2.9-1.2-4.5c0-3.5,2.1-6.6,5.1-8.1l0,0c1.7,2.9,4.9,4.9,8.5,4.9c3.6,0,6.8-2,8.5-4.9l0,0c3,1.5,5.1,4.5,5.1,8.1
				c0,1.7-0.5,3.2-1.2,4.5c-0.3,0.5-0.5,1-0.6,1.5l-0.7,3.9c3.2-3,5.1-7.2,5.2-11.9c0-1.4,0-2.2-0.6-4.3
				C31.4,10.6,32.7,8.3,33.7,7.2z"/>
		</g>
		<path id="XMLID_52_" class="st1" d="M3.6,27.5c0,0-2.4-3.3-3-6c-0.4-2.1,3.6,5.7,3.6,5.7L3.6,27.5z"/>
		<g id="XMLID_50_">
			<path id="XMLID_51_" class="st1" d="M29,27.5c0,0,1.4-1.5,2.7-5.3c0.7-2-3.7,4.9-3.7,4.9L29,27.5z"/>
		</g>
		<g id="XMLID_48_">
			<path id="XMLID_49_" class="st1" d="M16.3,33c-5,0-9.8-2.1-12.7-5.5L4.2,27c2.8,3.3,7.3,5.2,12.1,5.2c4.8,0,9.3-1.9,12.1-5.2
				l0.6,0.5C26.1,31,21.3,33,16.3,33z"/>
		</g>
	</g>
	<g id="XMLID_39_">
		<g id="XMLID_44_">
			<path id="XMLID_63_" class="st2" d="M19.3,25.5l-6.7,1.8c-0.1,0-0.2,0.2-0.2,0.3c0.6,1.8,2.6,2.9,4.5,2.4
				c1.9-0.5,3.1-2.4,2.7-4.3C19.6,25.5,19.4,25.4,19.3,25.5z"/>
		</g>
		<g id="XMLID_41_" class="st3">
			<path id="XMLID_45_" class="st4" d="M16.9,30c1-0.3,1.8-1,2.3-1.8c-0.6-0.6-1.7-0.8-2.9-0.5c-1.2,0.3-2.1,1.1-2.3,1.9
				C14.8,30.1,15.9,30.2,16.9,30z"/>
		</g>
	</g>
	<g id="XMLID_26_">
		<g id="XMLID_33_">
			<g id="XMLID_18_">
				<path id="XMLID_19_" class="st5" d="M25.4,16.8c0,0-5.9,1-5.9,1l0.1,0.2c0,0-0.5,6.6,2.2,6.8c2.4,0.2,2.8-6.4,2.6-7.2L25.4,16.8
					z"/>
			</g>
			<ellipse id="XMLID_17_" class="st0" cx="23.1" cy="19.9" rx="0.9" ry="1.4"/>
			<circle id="XMLID_34_" class="st0" cx="21" cy="21.9" r="0.5"/>
		</g>
		<g id="XMLID_27_">
			<g id="XMLID_10_">
				<path id="XMLID_16_" class="st5" d="M6.6,16.8c0,0,5.9,1,5.9,1L12.4,18c0,0,0.5,6.6-2.2,6.8c-2.4,0.2-2.8-6.4-2.6-7.2L6.6,16.8z
					"/>
			</g>
			<ellipse id="XMLID_8_" class="st0" cx="8.9" cy="19.9" rx="0.9" ry="1.4"/>
			<circle id="XMLID_28_" class="st0" cx="11" cy="21.9" r="0.5"/>
		</g>
	</g>
	<path id="XMLID_22_" class="st6" d="M20.5,23.5c-0.2,0.7-0.7,1.8-2.3,2.1c-0.1,0-0.1,0.1,0,0.1c0.4,0.3,1.6,1.2,1.9,2.4
		c0,0.1,0.1,0.1,0.1,0c0.2-0.7,0.7-2,2.3-1.8c0.1,0,0.1-0.1,0-0.1c-0.5-0.3-1.6-1.3-1.9-2.7C20.6,23.5,20.5,23.5,20.5,23.5z"/>
</g>
</svg>
