<?xml version="1.0" encoding="utf-8"?>
<!-- Generator: Adobe Illustrator 19.0.0, SVG Export Plug-In . SVG Version: 6.00 Build 0)  -->
<svg version="1.1" id="图层_1" xmlns="http://www.w3.org/2000/svg" xmlns:xlink="http://www.w3.org/1999/xlink" x="0px" y="0px"
	 viewBox="0 0 34 34" style="enable-background:new 0 0 34 34;" xml:space="preserve">
<style type="text/css">
	.st0{fill:#34ACFE;}
	.st1{fill:#FFFFFF;}
	.st2{fill:#FF5959;}
	.st3{fill:#330000;}
	.st4{fill:none;}
</style>
<g>
	<path id="XMLID_25_" class="st0" d="M3.6,27.5c0,0-2.4-3.3-3-6c-0.4-2.1,3.6,5.7,3.6,5.7L3.6,27.5z"/>
	<g>
		<path id="XMLID_24_" class="st1" d="M31.1,20.5c0,6.6-6.7,12-14.9,12c-8.2,0-14.9-5.4-14.9-12s6.7-12,14.9-12
			C24.5,8.5,31.1,13.9,31.1,20.5"/>
		<path id="XMLID_23_" class="st0" d="M33.7,7.2c0.4-0.5,0.5-1.2,0-1.7l-2.5-2.9c-0.4-0.5-1.1-0.6-1.7-0.3c-1.2,0.8-3.1,1.7-5.9,0.4
			c0,0-3.5-1.7-7.3-1.7C7.3,1,0,8.3,0,17.2c0,4.7,2,9,5.2,11.9l-0.7-3.7c-0.1-0.6-0.3-1.2-0.6-1.8c-0.8-1.3-1.2-2.9-1.2-4.5
			c0-3.5,2.1-6.6,5.1-8.1l0,0c1.7,2.9,4.9,4.9,8.5,4.9s6.8-2,8.5-4.9l0,0c3,1.4,5.1,4.5,5.1,8.1c0,1.7-0.5,3.2-1.2,4.5
			c-0.3,0.5-0.5,1-0.6,1.5l-0.7,3.9c3.2-3,5.1-7.2,5.2-11.9c0-1.4,0-2.2-0.6-4.3C31.4,10.6,32.7,8.3,33.7,7.2"/>
		<path id="XMLID_22_" class="st0" d="M29,27.5c0,0,1.4-1.5,2.7-5.3c0.7-2-3.7,4.9-3.7,4.9L29,27.5z"/>
		<path id="XMLID_21_" class="st0" d="M16.3,33c-5,0-9.8-2.1-12.7-5.5L4.2,27c2.8,3.3,7.3,5.2,12.1,5.2s9.3-1.9,12.1-5.2l0.6,0.5
			C26.1,31,21.3,33,16.3,33"/>
		<path id="XMLID_20_" class="st2" d="M22.5,25.1c-0.5-0.6-1.3-0.7-2.1-0.7c-0.8,0-1.6,0-2.4,0c-0.6,0-1.1,0-1.6,0
			c-0.4,0-0.9,0-1.5,0c-0.7,0-1.5,0-2.5,0c-0.8,0-1.7,0.1-2.1,0.7c-0.3,0.4-0.4,1-0.2,1.6c0.4,1.5,2.8,2.5,6.3,2.5
			c3.5,0,5.9-0.9,6.3-2.5C22.9,26.1,22.8,25.5,22.5,25.1"/>
		<path id="XMLID_19_" class="st1" d="M18.4,27.5h-4.1c-1,0-1.8-0.8-1.8-1.8v-0.3h7.6v0.3C20.2,26.7,19.4,27.5,18.4,27.5"/>
		<g>
			<path id="XMLID_18_" class="st3" d="M23.9,23.1c-0.1,0-0.2,0-0.3-0.1l-5.4-2.6c-0.2-0.1-0.4-0.3-0.4-0.6s0.1-0.5,0.3-0.6l3.9-3
				c0.3-0.2,0.8-0.2,1,0.1c0.2,0.3,0.2,0.8-0.1,1l-3,2.3l4.3,2.1c0.4,0.2,0.5,0.6,0.3,0.9C24.4,23,24.2,23.1,23.9,23.1z"/>
		</g>
		<g>
			<path id="XMLID_17_" class="st3" d="M25.2,20.2h-5.9c-0.4,0-0.7-0.3-0.7-0.7s0.3-0.7,0.7-0.7h5.9c0.4,0,0.7,0.3,0.7,0.7
				S25.6,20.2,25.2,20.2z"/>
		</g>
		<g>
			<path id="XMLID_16_" class="st3" d="M8.3,23.1c0.1,0,0.2,0,0.3-0.1l5.4-2.6c0.2-0.1,0.4-0.3,0.4-0.6s-0.1-0.5-0.3-0.6l-3.9-3
				c-0.3-0.2-0.8-0.2-1,0.1c-0.2,0.3-0.2,0.8,0.1,1l3,2.3L8,21.8c-0.4,0.2-0.5,0.6-0.3,0.9C7.8,23,8.1,23.1,8.3,23.1z"/>
		</g>
		<g>
			<path id="XMLID_10_" class="st3" d="M7,20.2h5.9c0.4,0,0.7-0.3,0.7-0.7s-0.3-0.7-0.7-0.7H7c-0.4,0-0.7,0.3-0.7,0.7
				S6.6,20.2,7,20.2z"/>
		</g>
		<rect id="XMLID_8_" x="0" y="1" class="st4" width="34" height="32"/>
	</g>
</g>
</svg>
