<?xml version="1.0" encoding="utf-8"?>
<!-- Generator: Adobe Illustrator 19.0.0, SVG Export Plug-In . SVG Version: 6.00 Build 0)  -->
<svg version="1.1" id="图层_1" xmlns="http://www.w3.org/2000/svg" xmlns:xlink="http://www.w3.org/1999/xlink" x="0px" y="0px"
	 viewBox="0 0 34.3 34.3" style="enable-background:new 0 0 34.3 34.3;" xml:space="preserve">
<style type="text/css">
	.st0{fill:#FFFFFF;}
	.st1{fill:#34ACFE;}
	.st2{fill:#FF5959;}
	.st3{fill:#330000;}
</style>
<g id="XMLID_2_">
	<g id="XMLID_9_">
		<g id="XMLID_17_">
			<ellipse id="XMLID_18_" class="st0" cx="16.4" cy="20.6" rx="14.9" ry="11.9"/>
		</g>
		<g id="XMLID_15_">
			<path id="XMLID_16_" class="st1" d="M33.9,7.4c0.5-0.5,0.5-1.2,0-1.7l-2.5-2.9c-0.4-0.5-1.1-0.6-1.7-0.3c-1.2,0.8-3.2,1.7-6,0.4
				c0,0-3.5-1.7-7.3-1.7c-9,0-16.4,7.3-16.4,16.2c0,4.7,2,8.9,5.3,11.9l-0.7-3.7C4.6,25,4.4,24.4,4,23.9c-0.8-1.3-1.2-2.9-1.2-4.5
				c0-3.5,2.1-6.6,5.1-8l0,0c1.7,2.9,4.9,4.9,8.5,4.9c3.7,0,6.9-2,8.5-4.9l0,0c3,1.4,5.1,4.5,5.1,8c0,1.7-0.5,3.2-1.2,4.5
				c-0.3,0.5-0.5,1-0.6,1.5l-0.7,3.9c3.2-3,5.1-7.2,5.3-11.9c0-1.4,0-2.2-0.6-4.3C31.6,10.7,32.9,8.4,33.9,7.4z"/>
		</g>
		<path id="XMLID_14_" class="st1" d="M3.7,27.7c0,0-2.5-3.3-3-6c-0.4-2.1,3.6,5.7,3.6,5.7L3.7,27.7z"/>
		<g id="XMLID_12_">
			<path id="XMLID_13_" class="st1" d="M29.3,27.7c0,0,1.4-1.5,2.7-5.3c0.7-2-3.7,4.9-3.7,4.9L29.3,27.7z"/>
		</g>
		<g id="XMLID_10_">
			<path id="XMLID_11_" class="st1" d="M16.5,33.1c-5.1,0-9.8-2-12.8-5.5l0.6-0.5c2.8,3.3,7.3,5.2,12.2,5.2c4.8,0,9.4-1.9,12.2-5.2
				l0.6,0.5C26.3,31.1,21.5,33.1,16.5,33.1z"/>
		</g>
	</g>
	<path id="XMLID_8_" class="st2" d="M16.8,22.7h-0.5c-0.5,0-1,0.4-1.1,0.9l-0.7,4c-0.1,0.7,0.4,1.3,1.1,1.3h1.9
		c0.7,0,1.2-0.6,1.1-1.3l-0.7-4C17.8,23.1,17.4,22.7,16.8,22.7z"/>
	<path id="XMLID_7_" class="st1" d="M27.8,28.4c0,0-0.9,0.8-2.4,1.8c-0.9,0.6-1.2,0.8-1.2,0.8s-2.3-0.9-3-2.8
		c-0.9-2.5,0.4-4.7,0.4-6.3c0-2.2-1.5-3.5-1.5-3.5h4.2c0,0,0.7,1,0.7,2.2c0,2.2-1.4,4.1-1.3,5.5C23.9,28.7,27.8,28.4,27.8,28.4z"/>
	<path id="XMLID_6_" class="st1" d="M5.4,28.4c0,0,0.9,0.8,2.4,1.8C8.6,30.7,8.9,31,8.9,31s2.3-0.9,3-2.8c0.9-2.5-0.4-4.7-0.4-6.3
		c0-2.2,1.5-3.5,1.5-3.5H8.8c0,0-0.7,1-0.7,2.2c0,2.2,1.4,4.1,1.3,5.5C9.2,28.7,5.4,28.4,5.4,28.4z"/>
	<g id="XMLID_3_">
		<path id="XMLID_5_" class="st3" d="M6.2,17.1c0-0.1,0-0.1,0.1-0.1c0,0,0,0,0,0l0,0l1.8,0.8h4.7c0.4,0,0.7,0.3,0.7,0.7
			s-0.3,0.7-0.7,0.7h-5c-0.2,0-0.3-0.1-0.5-0.2L6.2,17.1L6.2,17.1C6.2,17.1,6.2,17.1,6.2,17.1z"/>
		<path id="XMLID_4_" class="st3" d="M27,17.1c0-0.1,0-0.1-0.1-0.1c0,0,0,0,0,0l0,0l-1.8,0.8h-4.7c-0.4,0-0.7,0.3-0.7,0.7
			s0.3,0.7,0.7,0.7h5c0.2,0,0.3-0.1,0.5-0.2L27,17.1L27,17.1C27,17.1,27,17.1,27,17.1z"/>
	</g>
</g>
</svg>
