<?xml version="1.0" encoding="utf-8"?>
<!-- Generator: Adobe Illustrator 19.0.0, SVG Export Plug-In . SVG Version: 6.00 Build 0)  -->
<svg version="1.1" id="图层_1" xmlns="http://www.w3.org/2000/svg" xmlns:xlink="http://www.w3.org/1999/xlink" x="0px" y="0px"
	 viewBox="2 -2.6 34 34" style="enable-background:new 2 -2.6 34 34;" xml:space="preserve">
<style type="text/css">
	.st0{fill:#FFFFFF;}
	.st1{fill:#34ACFE;}
	.st2{fill:none;stroke:#330000;stroke-width:1.4173;stroke-miterlimit:10;}
	.st3{fill:#FF5959;}
	.st4{fill:none;stroke:#330000;stroke-width:0.9921;stroke-linecap:round;stroke-linejoin:round;stroke-miterlimit:10;}
</style>
<g>
	<g>
		<g>
			<ellipse class="st0" cx="18.3" cy="17.8" rx="14.9" ry="12"/>
		</g>
		<g>
			<path class="st1" d="M35.6,4.5c0.4-0.5,0.5-1.2,0-1.7l-2.5-2.9c-0.4-0.5-1.1-0.6-1.7-0.3c-1.2,0.8-3.1,1.7-5.9,0.4
				c0,0-3.5-1.7-7.3-1.7C9.3-1.6,2,5.6,2,14.6c0,4.7,2,9,5.2,11.9l-0.7-3.7c-0.1-0.6-0.3-1.2-0.6-1.8c-0.8-1.3-1.2-2.9-1.2-4.5
				c0-3.5,2.1-6.6,5.1-8.1l0,0c1.7,2.9,4.9,4.9,8.5,4.9c3.6,0,6.8-2,8.5-4.9l0,0c3,1.5,5.1,4.5,5.1,8.1c0,1.7-0.5,3.2-1.2,4.5
				c-0.3,0.5-0.5,1-0.6,1.5l-0.7,3.9c3.2-3,5.1-7.2,5.2-11.9c0-1.4,0-2.2-0.6-4.3C33.4,7.9,34.7,5.6,35.6,4.5z"/>
		</g>
		<path class="st1" d="M5.6,24.9c0,0-2.4-3.3-3-6c-0.4-2.1,3.6,5.7,3.6,5.7L5.6,24.9z"/>
		<g>
			<path class="st1" d="M31,24.9c0,0,1.4-1.5,2.7-5.3c0.7-2-3.7,4.9-3.7,4.9L31,24.9z"/>
		</g>
		<g>
			<path class="st1" d="M18.3,30.4c-5,0-9.8-2.1-12.7-5.5l0.6-0.5c2.8,3.3,7.3,5.2,12.1,5.2c4.8,0,9.3-1.9,12.1-5.2l0.6,0.5
				C28.1,28.3,23.3,30.4,18.3,30.4z"/>
		</g>
	</g>
	<g>
		<path class="st2" d="M9,15.8c-0.2,0-0.3,0.2-0.3,0.4c0.1,2.6,1.9,4.2,4,4.2c2.1,0,3.9-1.6,4-4.2c0-0.2-0.1-0.4-0.3-0.4
			C15.3,15.8,10.3,15.8,9,15.8z"/>
		<path class="st2" d="M20.1,15.8c-0.2,0-0.3,0.2-0.3,0.4c0.1,2.6,1.9,4.2,4,4.2c2.1,0,3.9-1.6,4-4.2c0-0.2-0.1-0.4-0.3-0.4
			C26.4,15.8,21.4,15.8,20.1,15.8z"/>
	</g>
	<g>
		<path class="st3" d="M18.5,26.1c-0.3,0-0.5-0.1-0.4-0.4c0.8-1.9-0.1-2.3,1.4-2.4c2.1-0.1,4.6-1.8,4.2-3.6
			c-0.1-0.6,0.2-0.8,0.5-0.8c0.5,0.1,0.9,0.5,1.2,1.4c0.1,0.2,0.3,0.4,0.7,0.5c0.7,0,2.3-0.1,2.8-1.3c0-0.1,0.2-0.1,0.2,0.1
			c0,0.2,0,1.5-1.3,2.3c-0.2,0.1-0.2,0.3-0.1,0.4c0.4,0.4,1.3,0.9,3.2,0.7c0.1,0,0.1,0,0.1,0.1c0,0.2,0.2,1.3-1.5,1.5
			c-0.2,0-0.3,0.2-0.2,0.4c0.4,0.6,0.9,1.8,0.5,3.3c0,0-0.1,0.1-0.1,0c-0.1-0.4-0.8-1.9-2.3-2.2c-1.2-0.3-1.7,0.6-0.9,1.4
			c0.7,0.7,1,1.6,1.1,2.7c0,0.2-0.3,0.3-0.5,0.1c-0.4-0.2-2.1-2.1-3.1-2.6C23,27.2,20.3,26.2,18.5,26.1z"/>
		<circle class="st3" cx="29.7" cy="28.8" r="0.2"/>
		<circle class="st3" cx="31" cy="22.6" r="0.2"/>
		<circle class="st3" cx="28.7" cy="19.4" r="0.2"/>
		<g>
			<path class="st3" d="M17.9,26.4c-0.1,0-0.2,0-0.3-0.1c-0.2-0.2-0.3-0.5-0.1-0.7c0.8-1.2,0.6-2,0.6-2c-0.1-0.3,0.1-0.6,0.3-0.6
				c0.3-0.1,0.5,0.1,0.6,0.4c0,0.1,0.5,1.3-0.6,2.9C18.4,26.3,18.1,26.4,17.9,26.4z"/>
		</g>
	</g>
	<line class="st4" x1="8.7" y1="16.7" x2="8.7" y2="21.7"/>
	<line class="st4" x1="11.4" y1="20.3" x2="11.4" y2="23.8"/>
</g>
</svg>
