<?xml version="1.0" encoding="utf-8"?>
<!-- Generator: Adobe Illustrator 19.0.0, SVG Export Plug-In . SVG Version: 6.00 Build 0)  -->
<svg version="1.1" id="图层_1" xmlns="http://www.w3.org/2000/svg" xmlns:xlink="http://www.w3.org/1999/xlink" x="0px" y="0px"
	 viewBox="-1 1.8 34 34" style="enable-background:new -1 1.8 34 34;" xml:space="preserve">
<style type="text/css">
	.st0{fill:#FFFFFF;}
	.st1{fill:#34ACFE;}
	.st2{fill:#330000;}
	.st3{fill:#FF5959;}
	.st4{fill:#BD4040;}
</style>
<g>
	<g>
		<g>
			<ellipse class="st0" cx="15.3" cy="22.3" rx="14.9" ry="12"/>
		</g>
		<g>
			<path class="st1" d="M32.6,9c0.4-0.5,0.5-1.2,0-1.7l-2.5-2.9c-0.4-0.5-1.1-0.6-1.7-0.3c-1.2,0.8-3.1,1.7-5.9,0.4
				c0,0-3.5-1.7-7.3-1.7C6.3,2.9-1,10.1-1,19.1c0,4.7,2,9,5.2,11.9l-0.7-3.7c-0.1-0.6-0.3-1.2-0.6-1.8c-0.8-1.3-1.2-2.9-1.2-4.5
				c0-3.5,2.1-6.6,5.1-8.1l0,0c1.7,2.9,4.9,4.9,8.5,4.9s6.8-2,8.5-4.9l0,0c3,1.5,5.1,4.5,5.1,8.1c0,1.7-0.5,3.2-1.2,4.5
				c-0.3,0.5-0.5,1-0.6,1.5l-0.7,3.9c3.2-3,5.1-7.2,5.2-11.9c0-1.4,0-2.2-0.6-4.3C30.4,12.4,31.7,10.1,32.6,9z"/>
		</g>
		<path class="st1" d="M2.6,29.4c0,0-2.4-3.3-3-6c-0.4-2.1,3.6,5.7,3.6,5.7L2.6,29.4z"/>
		<g>
			<path class="st1" d="M28,29.4c0,0,1.4-1.5,2.7-5.3c0.7-2-3.7,4.9-3.7,4.9L28,29.4z"/>
		</g>
		<g>
			<path class="st1" d="M15.3,34.9c-5,0-9.8-2.1-12.7-5.5l0.6-0.5c2.8,3.3,7.3,5.2,12.1,5.2s9.3-1.9,12.1-5.2l0.6,0.5
				C25.1,32.8,20.3,34.9,15.3,34.9z"/>
		</g>
	</g>
	<g>
		<g>
			<path class="st2" d="M12.5,21.6c0.1,0,0.2,0,0.3-0.1c0.3-0.2,0.4-0.5,0.2-0.8c0-0.1-0.8-1.4-2.4-1.7c-1.2-0.3-2.5,0-3.9,1
				l-1.4-0.8c-0.1-0.1-0.2,0.1-0.1,0.2l1.1,1.8c0.2,0.2,0.5,0.2,0.7,0c1.3-0.9,2.4-1.2,3.4-1c1.1,0.2,1.6,1.2,1.6,1.2
				C12.1,21.5,12.3,21.6,12.5,21.6z"/>
		</g>
		<g>
			<path class="st2" d="M18.2,21.6c-0.1,0-0.2,0-0.3-0.1c-0.3-0.2-0.4-0.5-0.2-0.8c0-0.1,0.8-1.4,2.4-1.7c1.2-0.3,2.5,0,3.9,1
				l1.4-0.8c0.1-0.1,0.2,0.1,0.1,0.2l-1.1,1.8c-0.2,0.2-0.5,0.2-0.7,0c-1.3-0.9-2.4-1.2-3.4-1c-1.1,0.2-1.6,1.2-1.6,1.2
				C18.6,21.5,18.4,21.6,18.2,21.6z"/>
		</g>
	</g>
	<g>
		<g>
			<path class="st3" d="M15.4,22.9c-0.7,0-5.6,0.2-3.7,3.1c1.3,2.1,1.5,2.6,0.8,4c-0.7,1.3,0.3,3.4,3,3.4s3.7-2.1,3-3.4
				c-0.8-1.4-0.6-1.9,0.8-4C21,23.1,16,22.9,15.4,22.9z"/>
		</g>
		<g>
			<ellipse class="st4" cx="15.4" cy="28.2" rx="0.9" ry="1.4"/>
		</g>
	</g>
	<path class="st3" d="M10,27.9c-0.4-0.9-1.3-0.3-1.3-0.3s-0.2-1.1-1.2-0.7c-0.9,0.4-0.5,2,0.4,2.7C8.9,29.7,10.3,28.8,10,27.9z"/>
	<path class="st3" d="M6.5,22.8c-0.7-2-2.8-0.7-2.8-0.7s-0.5-2.4-2.4-1.5S0.1,25,2,26.3C4.1,26.7,7.2,24.8,6.5,22.8z"/>
</g>
</svg>
