<?xml version="1.0" encoding="utf-8"?>
<!-- Generator: Adobe Illustrator 19.0.0, SVG Export Plug-In . SVG Version: 6.00 Build 0)  -->
<svg version="1.1" id="图层_1" xmlns="http://www.w3.org/2000/svg" xmlns:xlink="http://www.w3.org/1999/xlink" x="0px" y="0px"
	 viewBox="2 -2.6 34 34" style="enable-background:new 2 -2.6 34 34;" xml:space="preserve">
<style type="text/css">
	.st0{fill:#FFFFFF;}
	.st1{fill:#34ACFE;}
	.st2{fill:#330000;}
	.st3{fill:none;stroke:#330000;stroke-width:1.4173;stroke-linecap:round;stroke-linejoin:round;stroke-miterlimit:10;}
	.st4{fill:#BD4040;}
	.st5{fill:#FF5959;}
</style>
<g>
	<g>
		<g>
			<ellipse class="st0" cx="18.3" cy="17.8" rx="14.9" ry="12"/>
		</g>
		<g>
			<path class="st1" d="M35.6,4.5c0.4-0.5,0.5-1.2,0-1.7l-2.5-2.9c-0.4-0.5-1.1-0.6-1.7-0.3c-1.2,0.8-3.1,1.7-5.9,0.4
				c0,0-3.5-1.7-7.3-1.7C9.3-1.6,2,5.6,2,14.6c0,4.7,2,9,5.2,11.9l-0.7-3.7c-0.1-0.6-0.3-1.2-0.6-1.8c-0.8-1.3-1.2-2.9-1.2-4.5
				c0-3.5,2.1-6.6,5.1-8.1l0,0c1.7,2.9,4.9,4.9,8.5,4.9c3.6,0,6.8-2,8.5-4.9l0,0c3,1.5,5.1,4.5,5.1,8.1c0,1.7-0.5,3.2-1.2,4.5
				c-0.3,0.5-0.5,1-0.6,1.5l-0.7,3.9c3.2-3,5.1-7.2,5.2-11.9c0-1.4,0-2.2-0.6-4.3C33.4,7.9,34.7,5.6,35.6,4.5z"/>
		</g>
		<path class="st1" d="M5.6,24.9c0,0-2.4-3.3-3-6c-0.4-2.1,3.6,5.7,3.6,5.7L5.6,24.9z"/>
		<g>
			<path class="st1" d="M31,24.9c0,0,1.4-1.5,2.7-5.3c0.7-2-3.7,4.9-3.7,4.9L31,24.9z"/>
		</g>
		<g>
			<path class="st1" d="M18.3,30.4c-5,0-9.8-2.1-12.7-5.5l0.6-0.5c2.8,3.3,7.3,5.2,12.1,5.2c4.8,0,9.3-1.9,12.1-5.2l0.6,0.5
				C28.1,28.3,23.3,30.4,18.3,30.4z"/>
		</g>
	</g>
	<g>
		<g>
			<g id="XMLID_12_">
				<path id="XMLID_14_" class="st2" d="M10.7,13.1c0,0,5.3,0.9,5.3,0.9l-0.1,0.2c0,0,0.4,5.9-1.9,6c-2.1,0.1-2.5-5.7-2.3-6.4
					L10.7,13.1z"/>
			</g>
			<ellipse id="XMLID_11_" class="st0" cx="12.9" cy="15.8" rx="0.8" ry="1.2"/>
			<circle class="st0" cx="14.6" cy="17.6" r="0.4"/>
		</g>
		<path class="st3" d="M25.3,15c0,0-2.8,0.6-3.8,2.3c0,0,1.8-0.3,3.3,0.9"/>
	</g>
	<g>
		<path class="st4" d="M11.1,20.8c-0.4,0-0.8,0.4-0.7,0.8c0.4,3.7,3.7,6,7.6,6c3.9,0,7.2-2.3,7.6-6c0-0.4-0.3-0.8-0.7-0.8
			C22.3,20.8,13.7,20.8,11.1,20.8z"/>
	</g>
	<g>
		<path class="st5" d="M18,29.1L18,29.1c-2.4,0-4.3-1.9-4.3-4.3v-2.2h8.7v2.2C22.3,27.1,20.4,29.1,18,29.1z"/>
	</g>
</g>
</svg>
