<?xml version="1.0" encoding="utf-8"?>
<!-- Generator: Adobe Illustrator 19.0.0, SVG Export Plug-In . SVG Version: 6.00 Build 0)  -->
<svg version="1.1" id="图层_1" xmlns="http://www.w3.org/2000/svg" xmlns:xlink="http://www.w3.org/1999/xlink" x="0px" y="0px"
	 viewBox="2 -2.6 34 34" style="enable-background:new 2 -2.6 34 34;" xml:space="preserve">
<style type="text/css">
	.st0{fill:#FFFFFF;}
	.st1{fill:#34ACFE;}
	.st2{fill:#FF5959;}
</style>
<g>
	<g>
		<g>
			<ellipse class="st0" cx="18.3" cy="17.8" rx="14.9" ry="12"/>
		</g>
		<g>
			<path class="st1" d="M35.6,4.5c0.4-0.5,0.5-1.2,0-1.7l-2.5-2.9c-0.4-0.5-1.1-0.6-1.7-0.3c-1.2,0.8-3.1,1.7-5.9,0.4
				c0,0-3.5-1.7-7.3-1.7C9.3-1.6,2,5.6,2,14.6c0,4.7,2,9,5.2,11.9l-0.7-3.7c-0.1-0.6-0.3-1.2-0.6-1.8c-0.8-1.3-1.2-2.9-1.2-4.5
				c0-3.5,2.1-6.6,5.1-8.1l0,0c1.7,2.9,4.9,4.9,8.5,4.9c3.6,0,6.8-2,8.5-4.9l0,0c3,1.5,5.1,4.5,5.1,8.1c0,1.7-0.5,3.2-1.2,4.5
				c-0.3,0.5-0.5,1-0.6,1.5l-0.7,3.9c3.2-3,5.1-7.2,5.2-11.9c0-1.4,0-2.2-0.6-4.3C33.4,7.9,34.7,5.6,35.6,4.5z"/>
		</g>
		<path class="st1" d="M5.6,24.9c0,0-2.4-3.3-3-6c-0.4-2.1,3.6,5.7,3.6,5.7L5.6,24.9z"/>
		<g>
			<path class="st1" d="M31,24.9c0,0,1.4-1.5,2.7-5.3c0.7-2-3.7,4.9-3.7,4.9L31,24.9z"/>
		</g>
		<g>
			<path class="st1" d="M18.3,30.4c-5,0-9.8-2.1-12.7-5.5l0.6-0.5c2.8,3.3,7.3,5.2,12.1,5.2c4.8,0,9.3-1.9,12.1-5.2l0.6,0.5
				C28.1,28.3,23.3,30.4,18.3,30.4z"/>
		</g>
	</g>
	<path class="st2" d="M21.9,22.8c-0.2,0-0.5,0-0.7,0.1c-0.7,0.2-2.5,0.3-3.2,0.3c-0.7,0-2.4-0.1-3.2-0.3c-0.2-0.1-0.5-0.1-0.7-0.1
		c-1.1,0-2,0.7-2.1,1.8c0,0.5,0.1,1,0.5,1.4c0.8,0.9,2.6,1.3,5.4,1.3c2.8,0,4.6-0.4,5.4-1.3c0.4-0.4,0.5-0.9,0.5-1.4
		C23.8,23.5,23,22.8,21.9,22.8z"/>
	<path class="st0" d="M22.8,25.9c0.1,0,0.1-0.1,0.1-0.2c0.1-0.1,0.1-0.1,0.2-0.2c0.1-0.2,0-0.4-0.1-0.6s-0.4-0.2-0.6-0.2
		c-0.7-0.2-1.5-0.2-2.3-0.2c-0.8,0-1.5,0.1-2.3,0.3c-0.3,0.1-0.7,0.2-1,0.3c-0.3,0.2-0.5,0.3-0.6,0.6c0,0.1-0.1,0.3,0,0.3
		c0.1,0.1,0.2,0.2,0.3,0.2c0.2,0.1,0.4,0.2,0.5,0.4c0.1,0.1,0.1,0.1,0.2,0.2c0.1,0,0.2,0.1,0.2,0.1c0.2,0,0.5,0.1,0.6,0
		s0.4-0.1,0.6,0c0.2,0.1,0.5,0.2,0.7,0.1c0.1,0,0.1-0.1,0.2-0.1c0.1,0,0.2,0,0.3,0c0.2,0,0.4,0.1,0.6,0.1c0.1,0,0.2,0,0.3,0.1
		c0.1,0.1,0.1,0.1,0.2,0.2c0.1,0.3,0.2,0.6,0.1,0.9c0,0.2-0.1,0.3-0.1,0.5c0,0.1,0,0.3,0,0.4c0,0.2-0.1,0.3-0.1,0.5
		c0,0.1,0.1,0.2,0.2,0.3s0.3,0.1,0.4,0c0.2-0.1,0.2-0.4,0.1-0.6c-0.2-0.8-0.4-1.5-0.2-2.3c0,0,0-0.1,0.1-0.1
		c0.1-0.1,0.2-0.1,0.3-0.1c0.2-0.1,0.2-0.4,0.4-0.5c0.1,0,0.2,0,0.3,0c0.2,0,0.1-0.2,0.2-0.2C22.5,25.9,22.7,26,22.8,25.9z"/>
	<g>
		<g>
			<path class="st2" d="M21.3,16.2c-0.1-0.1-0.3,0-0.4,0.1l-1.2,2.5c-0.1,0.1,0,0.3,0.1,0.4c0,0,0.1,0,0.1,0c0.1,0,0.2-0.1,0.2-0.2
				l1.2-2.5C21.5,16.4,21.4,16.3,21.3,16.2z"/>
			<path class="st2" d="M20.3,16.2c-0.1-0.1-0.3,0-0.4,0.1l-1.2,2.5c-0.1,0.1,0,0.3,0.1,0.4c0,0,0.1,0,0.1,0c0.1,0,0.2-0.1,0.2-0.2
				l1.2-2.5C20.5,16.4,20.4,16.3,20.3,16.2z"/>
			<path class="st2" d="M19.2,16.2c-0.1-0.1-0.3,0-0.4,0.1l-1.2,2.5c-0.1,0.1,0,0.3,0.1,0.4c0,0,0.1,0,0.1,0c0.1,0,0.2-0.1,0.2-0.2
				l1.2-2.5C19.4,16.4,19.4,16.3,19.2,16.2z"/>
			<path class="st2" d="M18.2,16.2c-0.1-0.1-0.3,0-0.4,0.1l-1.2,2.5c-0.1,0.1,0,0.3,0.1,0.4c0,0,0.1,0,0.1,0c0.1,0,0.2-0.1,0.2-0.2
				l1.2-2.5C18.4,16.4,18.3,16.3,18.2,16.2z"/>
			<path class="st2" d="M17.2,16.2c-0.1-0.1-0.3,0-0.4,0.1l-1.2,2.5c-0.1,0.1,0,0.3,0.1,0.4c0,0,0.1,0,0.1,0c0.1,0,0.2-0.1,0.2-0.2
				l1.2-2.5C17.4,16.4,17.3,16.3,17.2,16.2z"/>
			<path class="st2" d="M16.2,16.2c-0.1-0.1-0.3,0-0.4,0.1l-1.2,2.5c-0.1,0.1,0,0.3,0.1,0.4c0,0,0.1,0,0.1,0c0.1,0,0.2-0.1,0.2-0.2
				l1.2-2.5C16.4,16.4,16.3,16.3,16.2,16.2z"/>
		</g>
		<g>
			<path class="st2" d="M9.9,12.8c0,0,3.4-3.3,5.8,0.2c2.5,3.6-2.6,8.6-5.3,9.2c-2.3,0.5-9-5.8-5.9-9.6C6.4,10.2,9.1,11.9,9.9,12.8z
				"/>
			<path class="st2" d="M26.1,12.8c0,0-3.4-3.3-5.8,0.2c-2.5,3.6,2.6,8.6,5.3,9.2c2.3,0.5,9-5.8,5.9-9.6
				C29.6,10.2,26.9,11.9,26.1,12.8z"/>
		</g>
	</g>
</g>
</svg>
